<?xml version="1.0" encoding="utf-8" standalone="no"?>
<!DOCTYPE svg PUBLIC "-//W3C//DTD SVG 1.1//EN"
  "http://www.w3.org/Graphics/SVG/1.1/DTD/svg11.dtd">
<svg xmlns:xlink="http://www.w3.org/1999/xlink" width="648pt" height="360pt" viewBox="0 0 648 360" xmlns="http://www.w3.org/2000/svg" version="1.1">
 <metadata>
  <rdf:RDF xmlns:dc="http://purl.org/dc/elements/1.1/" xmlns:cc="http://creativecommons.org/ns#" xmlns:rdf="http://www.w3.org/1999/02/22-rdf-syntax-ns#">
   <cc:Work>
    <dc:type rdf:resource="http://purl.org/dc/dcmitype/StillImage"/>
    <dc:date>2025-08-29T13:00:09.543184</dc:date>
    <dc:format>image/svg+xml</dc:format>
    <dc:creator>
     <cc:Agent>
      <dc:title>Matplotlib v3.10.5, https://matplotlib.org/</dc:title>
     </cc:Agent>
    </dc:creator>
   </cc:Work>
  </rdf:RDF>
 </metadata>
 <defs>
  <style type="text/css">*{stroke-linejoin: round; stroke-linecap: butt}</style>
 </defs>
 <g id="figure_1">
  <g id="patch_1">
   <path d="M 0 360 
L 648 360 
L 648 0 
L 0 0 
z
" style="fill: #ffffff"/>
  </g>
  <g id="axes_1">
   <g id="patch_2">
    <path d="M 28.112571 320.04 
L 603.27 320.04 
L 603.27 86.112 
L 28.112571 86.112 
z
" style="fill: #ffffff"/>
   </g>
   <g id="line2d_1">
    <path d="M 155.468859 320.04 
L 155.468859 86.112 
" clip-path="url(#pc847bae2b2)" style="fill: none; stroke-dasharray: 0.74,0.32; stroke-dashoffset: 0; stroke: #000000; stroke-opacity: 0.3; stroke-width: 0.2"/>
   </g>
   <g id="PathCollection_1">
    <defs>
     <path id="me290d1a3c0" d="M 0 2.738613 
C 0.726289 2.738613 1.422928 2.450055 1.936492 1.936492 
C 2.450055 1.422928 2.738613 0.726289 2.738613 0 
C 2.738613 -0.726289 2.450055 -1.422928 1.936492 -1.936492 
C 1.422928 -2.450055 0.726289 -2.738613 0 -2.738613 
C -0.726289 -2.738613 -1.422928 -2.450055 -1.936492 -1.936492 
C -2.450055 -1.422928 -2.738613 -0.726289 -2.738613 0 
C -2.738613 0.726289 -2.450055 1.422928 -1.936492 1.936492 
C -1.422928 2.450055 -0.726289 2.738613 0 2.738613 
z
"/>
    </defs>
    <g clip-path="url(#pc847bae2b2)">
     <use xlink:href="#me290d1a3c0" x="28.112571" y="273.137436" style="fill: #faa61a; fill-opacity: 0.6"/>
     <use xlink:href="#me290d1a3c0" x="51.940522" y="277.114212" style="fill: #faa61a; fill-opacity: 0.6"/>
     <use xlink:href="#me290d1a3c0" x="77.41178" y="263.224737" style="fill: #faa61a; fill-opacity: 0.6"/>
     <use xlink:href="#me290d1a3c0" x="102.061384" y="260.768493" style="fill: #faa61a; fill-opacity: 0.6"/>
     <use xlink:href="#me290d1a3c0" x="127.532641" y="185.853051" style="fill: #faa61a; fill-opacity: 0.6"/>
     <use xlink:href="#me290d1a3c0" x="152.182245" y="148.044438" style="fill: #faa61a; fill-opacity: 0.6"/>
     <use xlink:href="#me290d1a3c0" x="177.653503" y="260.037468" style="fill: #faa61a; fill-opacity: 0.6"/>
     <use xlink:href="#me290d1a3c0" x="203.12476" y="310.507434" style="fill: #faa61a; fill-opacity: 0.6"/>
     <use xlink:href="#me290d1a3c0" x="227.774364" y="277.231176" style="fill: #faa61a; fill-opacity: 0.6"/>
     <use xlink:href="#me290d1a3c0" x="253.245622" y="295.623765" style="fill: #faa61a; fill-opacity: 0.6"/>
     <use xlink:href="#me290d1a3c0" x="277.895226" y="297.115056" style="fill: #faa61a; fill-opacity: 0.6"/>
     <use xlink:href="#me290d1a3c0" x="303.366484" y="300.302325" style="fill: #faa61a; fill-opacity: 0.6"/>
     <use xlink:href="#me290d1a3c0" x="328.837741" y="299.746746" style="fill: #faa61a; fill-opacity: 0.6"/>
     <use xlink:href="#me290d1a3c0" x="351.844038" y="279.628938" style="fill: #faa61a; fill-opacity: 0.6"/>
     <use xlink:href="#me290d1a3c0" x="377.315296" y="278.020683" style="fill: #faa61a; fill-opacity: 0.6"/>
     <use xlink:href="#me290d1a3c0" x="401.9649" y="282.933171" style="fill: #faa61a; fill-opacity: 0.6"/>
     <use xlink:href="#me290d1a3c0" x="427.436158" y="298.10925" style="fill: #faa61a; fill-opacity: 0.6"/>
     <use xlink:href="#me290d1a3c0" x="452.085762" y="302.992497" style="fill: #faa61a; fill-opacity: 0.6"/>
     <use xlink:href="#me290d1a3c0" x="477.557019" y="268.839009" style="fill: #faa61a; fill-opacity: 0.6"/>
     <use xlink:href="#me290d1a3c0" x="503.028277" y="306.852309" style="fill: #faa61a; fill-opacity: 0.6"/>
    </g>
   </g>
   <g id="PathCollection_2">
    <defs>
     <path id="m5a86803dc9" d="M 0 2.738613 
C 0.726289 2.738613 1.422928 2.450055 1.936492 1.936492 
C 2.450055 1.422928 2.738613 0.726289 2.738613 0 
C 2.738613 -0.726289 2.450055 -1.422928 1.936492 -1.936492 
C 1.422928 -2.450055 0.726289 -2.738613 0 -2.738613 
C -0.726289 -2.738613 -1.422928 -2.450055 -1.936492 -1.936492 
C -2.450055 -1.422928 -2.738613 -0.726289 -2.738613 0 
C -2.738613 0.726289 -2.450055 1.422928 -1.936492 1.936492 
C -1.422928 2.450055 -0.726289 2.738613 0 2.738613 
z
"/>
    </defs>
    <g clip-path="url(#pc847bae2b2)">
     <use xlink:href="#m5a86803dc9" x="28.112571" y="287.085393" style="fill: #0087dc; fill-opacity: 0.6"/>
     <use xlink:href="#m5a86803dc9" x="51.940522" y="274.979619" style="fill: #0087dc; fill-opacity: 0.6"/>
     <use xlink:href="#m5a86803dc9" x="77.41178" y="255.7098" style="fill: #0087dc; fill-opacity: 0.6"/>
     <use xlink:href="#m5a86803dc9" x="102.061384" y="288.313515" style="fill: #0087dc; fill-opacity: 0.6"/>
     <use xlink:href="#m5a86803dc9" x="127.532641" y="286.061958" style="fill: #0087dc; fill-opacity: 0.6"/>
     <use xlink:href="#m5a86803dc9" x="152.182245" y="295.623765" style="fill: #0087dc; fill-opacity: 0.6"/>
     <use xlink:href="#m5a86803dc9" x="177.653503" y="254.393955" style="fill: #0087dc; fill-opacity: 0.6"/>
     <use xlink:href="#m5a86803dc9" x="203.12476" y="300.185361" style="fill: #0087dc; fill-opacity: 0.6"/>
     <use xlink:href="#m5a86803dc9" x="227.774364" y="249.364503" style="fill: #0087dc; fill-opacity: 0.6"/>
     <use xlink:href="#m5a86803dc9" x="253.245622" y="246.64509" style="fill: #0087dc; fill-opacity: 0.6"/>
     <use xlink:href="#m5a86803dc9" x="277.895226" y="211.234239" style="fill: #0087dc; fill-opacity: 0.6"/>
     <use xlink:href="#m5a86803dc9" x="303.366484" y="265.154643" style="fill: #0087dc; fill-opacity: 0.6"/>
     <use xlink:href="#m5a86803dc9" x="328.837741" y="273.54681" style="fill: #0087dc; fill-opacity: 0.6"/>
     <use xlink:href="#m5a86803dc9" x="351.844038" y="271.587663" style="fill: #0087dc; fill-opacity: 0.6"/>
     <use xlink:href="#m5a86803dc9" x="377.315296" y="261.674964" style="fill: #0087dc; fill-opacity: 0.6"/>
     <use xlink:href="#m5a86803dc9" x="401.9649" y="241.469433" style="fill: #0087dc; fill-opacity: 0.6"/>
     <use xlink:href="#m5a86803dc9" x="427.436158" y="284.07357" style="fill: #0087dc; fill-opacity: 0.6"/>
     <use xlink:href="#m5a86803dc9" x="452.085762" y="291.763953" style="fill: #0087dc; fill-opacity: 0.6"/>
     <use xlink:href="#m5a86803dc9" x="477.557019" y="269.219142" style="fill: #0087dc; fill-opacity: 0.6"/>
     <use xlink:href="#m5a86803dc9" x="503.028277" y="290.126457" style="fill: #0087dc; fill-opacity: 0.6"/>
    </g>
   </g>
   <g id="PathCollection_3">
    <defs>
     <path id="mcc3cfcb708" d="M 0 2.738613 
C 0.726289 2.738613 1.422928 2.450055 1.936492 1.936492 
C 2.450055 1.422928 2.738613 0.726289 2.738613 0 
C 2.738613 -0.726289 2.450055 -1.422928 1.936492 -1.936492 
C 1.422928 -2.450055 0.726289 -2.738613 0 -2.738613 
C -0.726289 -2.738613 -1.422928 -2.450055 -1.936492 -1.936492 
C -2.450055 -1.422928 -2.738613 -0.726289 -2.738613 0 
C -2.738613 0.726289 -2.450055 1.422928 -1.936492 1.936492 
C -1.422928 2.450055 -0.726289 2.738613 0 2.738613 
z
"/>
    </defs>
    <g clip-path="url(#pc847bae2b2)">
     <use xlink:href="#mcc3cfcb708" x="28.112571" y="288.021105" style="fill: #12b6cf; fill-opacity: 0.6"/>
     <use xlink:href="#mcc3cfcb708" x="51.940522" y="265.330089" style="fill: #12b6cf; fill-opacity: 0.6"/>
     <use xlink:href="#mcc3cfcb708" x="77.41178" y="241.177023" style="fill: #12b6cf; fill-opacity: 0.6"/>
     <use xlink:href="#mcc3cfcb708" x="102.061384" y="281.383398" style="fill: #12b6cf; fill-opacity: 0.6"/>
     <use xlink:href="#mcc3cfcb708" x="127.532641" y="235.650474" style="fill: #12b6cf; fill-opacity: 0.6"/>
     <use xlink:href="#mcc3cfcb708" x="138.941301" y="-1" style="fill: #12b6cf; fill-opacity: 0.6"/>
     <use xlink:href="#mcc3cfcb708" x="180.949549" y="-1" style="fill: #12b6cf; fill-opacity: 0.6"/>
     <use xlink:href="#mcc3cfcb708" x="203.12476" y="191.3796" style="fill: #12b6cf; fill-opacity: 0.6"/>
     <use xlink:href="#mcc3cfcb708" x="227.774364" y="232.229277" style="fill: #12b6cf; fill-opacity: 0.6"/>
     <use xlink:href="#mcc3cfcb708" x="253.245622" y="248.838165" style="fill: #12b6cf; fill-opacity: 0.6"/>
     <use xlink:href="#mcc3cfcb708" x="277.895226" y="206.409474" style="fill: #12b6cf; fill-opacity: 0.6"/>
     <use xlink:href="#mcc3cfcb708" x="303.366484" y="179.156862" style="fill: #12b6cf; fill-opacity: 0.6"/>
     <use xlink:href="#mcc3cfcb708" x="328.837741" y="113.30613" style="fill: #12b6cf; fill-opacity: 0.6"/>
     <use xlink:href="#mcc3cfcb708" x="351.844038" y="194.625351" style="fill: #12b6cf; fill-opacity: 0.6"/>
     <use xlink:href="#mcc3cfcb708" x="377.315296" y="209.187369" style="fill: #12b6cf; fill-opacity: 0.6"/>
     <use xlink:href="#mcc3cfcb708" x="401.9649" y="197.169318" style="fill: #12b6cf; fill-opacity: 0.6"/>
     <use xlink:href="#mcc3cfcb708" x="427.436158" y="98.130051" style="fill: #12b6cf; fill-opacity: 0.6"/>
     <use xlink:href="#mcc3cfcb708" x="452.085762" y="226.17639" style="fill: #12b6cf; fill-opacity: 0.6"/>
     <use xlink:href="#mcc3cfcb708" x="477.557019" y="162.43101" style="fill: #12b6cf; fill-opacity: 0.6"/>
     <use xlink:href="#mcc3cfcb708" x="503.028277" y="154.53594" style="fill: #12b6cf; fill-opacity: 0.6"/>
    </g>
   </g>
   <g id="matplotlib.axis_1">
    <g id="xtick_1">
     <g id="line2d_2">
      <defs>
       <path id="mb8f81998b9" d="M 0 0 
L 0 3.5 
" style="stroke: #ff0000; stroke-opacity: 0.5; stroke-width: 0.8"/>
      </defs>
      <g>
       <use xlink:href="#mb8f81998b9" x="28.934225" y="320.04" style="fill: #ff0000; fill-opacity: 0.5; stroke: #ff0000; stroke-opacity: 0.5; stroke-width: 0.8"/>
      </g>
     </g>
     <g id="text_1">
      <!-- Feb 24 -->
      <g style="fill: #323034" transform="translate(10.922037 335.87875) scale(0.12 -0.12)">
       <defs>
        <path id="Lato-Regular-46" d="M 3382 4586 
L 3382 4080 
L 1181 4080 
L 1181 2477 
L 3062 2477 
L 3062 1971 
L 1181 1971 
L 1181 0 
L 557 0 
L 557 4586 
L 3382 4586 
z
" transform="scale(0.015625)"/>
        <path id="Lato-Regular-65" d="M 1750 3293 
Q 2042 3293 2288 3195 
Q 2534 3098 2713 2914 
Q 2893 2730 2993 2459 
Q 3094 2189 3094 1843 
Q 3094 1709 3065 1664 
Q 3037 1619 2957 1619 
L 800 1619 
Q 806 1312 883 1085 
Q 960 858 1094 706 
Q 1229 554 1414 478 
Q 1600 403 1830 403 
Q 2045 403 2200 452 
Q 2355 502 2467 560 
Q 2579 618 2654 667 
Q 2730 717 2784 717 
Q 2854 717 2893 662 
L 3053 454 
Q 2947 326 2800 232 
Q 2653 138 2485 77 
Q 2317 16 2137 -14 
Q 1958 -45 1782 -45 
Q 1446 -45 1163 68 
Q 880 182 673 401 
Q 467 621 352 944 
Q 237 1267 237 1686 
Q 237 2026 341 2320 
Q 445 2614 640 2830 
Q 835 3046 1116 3169 
Q 1398 3293 1750 3293 
z
M 1763 2874 
Q 1350 2874 1113 2635 
Q 877 2397 819 1974 
L 2582 1974 
Q 2582 2173 2528 2337 
Q 2474 2502 2368 2622 
Q 2262 2742 2110 2808 
Q 1958 2874 1763 2874 
z
" transform="scale(0.015625)"/>
        <path id="Lato-Regular-62" d="M 486 0 
L 486 4714 
L 1059 4714 
L 1059 2774 
Q 1261 3008 1521 3150 
Q 1782 3293 2118 3293 
Q 2400 3293 2627 3187 
Q 2854 3082 3014 2872 
Q 3174 2662 3260 2353 
Q 3347 2045 3347 1642 
Q 3347 1283 3251 974 
Q 3155 666 2974 440 
Q 2794 214 2533 84 
Q 2272 -45 1946 -45 
Q 1632 -45 1413 76 
Q 1194 198 1030 416 
L 1002 122 
Q 976 0 854 0 
L 486 0 
z
M 1933 2838 
Q 1654 2838 1444 2710 
Q 1235 2582 1059 2349 
L 1059 781 
Q 1213 570 1400 483 
Q 1587 397 1818 397 
Q 2272 397 2515 720 
Q 2758 1043 2758 1642 
Q 2758 1958 2702 2185 
Q 2646 2413 2540 2558 
Q 2435 2704 2281 2771 
Q 2128 2838 1933 2838 
z
" transform="scale(0.015625)"/>
        <path id="Lato-Regular-20" transform="scale(0.015625)"/>
        <path id="Lato-Regular-32" d="M 1923 4637 
Q 2214 4637 2467 4550 
Q 2720 4464 2904 4299 
Q 3088 4134 3193 3897 
Q 3299 3661 3299 3360 
Q 3299 3104 3222 2886 
Q 3146 2669 3014 2469 
Q 2883 2269 2712 2081 
Q 2541 1894 2349 1699 
L 1142 464 
Q 1270 499 1401 520 
Q 1533 541 1654 541 
L 3190 541 
Q 3283 541 3337 486 
Q 3392 432 3392 346 
L 3392 0 
L 333 0 
L 333 195 
Q 333 256 357 320 
Q 381 384 435 438 
L 1904 1914 
Q 2086 2099 2236 2270 
Q 2387 2442 2494 2614 
Q 2602 2787 2659 2964 
Q 2717 3142 2717 3344 
Q 2717 3546 2653 3698 
Q 2589 3850 2477 3949 
Q 2365 4048 2214 4097 
Q 2064 4147 1891 4147 
Q 1718 4147 1571 4096 
Q 1424 4045 1310 3953 
Q 1197 3862 1118 3737 
Q 1040 3613 1008 3462 
Q 982 3370 931 3328 
Q 880 3286 797 3286 
Q 781 3286 763 3288 
Q 746 3290 723 3293 
L 426 3344 
Q 470 3658 598 3899 
Q 726 4141 923 4304 
Q 1120 4467 1374 4552 
Q 1629 4637 1923 4637 
z
" transform="scale(0.015625)"/>
        <path id="Lato-Regular-34" d="M 2890 1654 
L 3584 1654 
L 3584 1328 
Q 3584 1277 3553 1241 
Q 3523 1206 3459 1206 
L 2890 1206 
L 2890 0 
L 2387 0 
L 2387 1206 
L 355 1206 
Q 291 1206 244 1243 
Q 198 1280 186 1334 
L 128 1626 
L 2358 4586 
L 2890 4586 
L 2890 1654 
z
M 2387 3546 
Q 2387 3629 2392 3725 
Q 2397 3821 2413 3923 
L 746 1654 
L 2387 1654 
L 2387 3546 
z
" transform="scale(0.015625)"/>
       </defs>
       <use xlink:href="#Lato-Regular-46"/>
       <use xlink:href="#Lato-Regular-65" transform="translate(56.600006 0)"/>
       <use xlink:href="#Lato-Regular-62" transform="translate(109.000015 0)"/>
       <use xlink:href="#Lato-Regular-20" transform="translate(164.900024 0)"/>
       <use xlink:href="#Lato-Regular-32" transform="translate(184.200027 0)"/>
       <use xlink:href="#Lato-Regular-34" transform="translate(242.200027 0)"/>
      </g>
     </g>
    </g>
    <g id="xtick_2">
     <g id="line2d_3">
      <g>
       <use xlink:href="#mb8f81998b9" x="178.475156" y="320.04" style="fill: #ff0000; fill-opacity: 0.5; stroke: #ff0000; stroke-opacity: 0.5; stroke-width: 0.8"/>
      </g>
     </g>
     <g id="text_2">
      <!-- Aug 24 -->
      <g style="fill: #323034" transform="translate(159.876094 335.7475) scale(0.12 -0.12)">
       <defs>
        <path id="Lato-Regular-41" d="M 4330 0 
L 3850 0 
Q 3766 0 3715 41 
Q 3664 83 3638 147 
L 3210 1254 
L 1152 1254 
L 723 147 
Q 701 90 646 45 
Q 592 0 512 0 
L 32 0 
L 1866 4586 
L 2496 4586 
L 4330 0 
z
M 1325 1702 
L 3037 1702 
L 2317 3568 
Q 2246 3741 2179 4000 
Q 2144 3869 2110 3758 
Q 2077 3648 2045 3565 
L 1325 1702 
z
" transform="scale(0.015625)"/>
        <path id="Lato-Regular-75" d="M 960 3242 
L 960 1174 
Q 960 806 1129 604 
Q 1299 403 1642 403 
Q 1891 403 2112 521 
Q 2333 640 2518 851 
L 2518 3242 
L 3088 3242 
L 3088 0 
L 2749 0 
Q 2627 0 2595 118 
L 2550 467 
Q 2339 234 2076 91 
Q 1814 -51 1475 -51 
Q 1210 -51 1006 37 
Q 803 125 665 285 
Q 528 445 459 672 
Q 390 899 390 1174 
L 390 3242 
L 960 3242 
z
" transform="scale(0.015625)"/>
        <path id="Lato-Regular-67" d="M 1558 3296 
Q 1770 3296 1954 3249 
Q 2138 3203 2288 3114 
L 3168 3114 
L 3168 2902 
Q 3168 2797 3034 2768 
L 2666 2717 
Q 2774 2509 2774 2253 
Q 2774 2016 2683 1822 
Q 2592 1629 2430 1491 
Q 2269 1354 2046 1280 
Q 1824 1206 1558 1206 
Q 1331 1206 1130 1261 
Q 1027 1197 974 1123 
Q 922 1050 922 979 
Q 922 864 1014 805 
Q 1107 746 1260 720 
Q 1414 694 1609 688 
Q 1805 682 2008 667 
Q 2211 653 2406 617 
Q 2602 582 2755 502 
Q 2909 422 3001 281 
Q 3094 141 3094 -83 
Q 3094 -291 2990 -486 
Q 2886 -682 2691 -834 
Q 2496 -986 2214 -1077 
Q 1933 -1168 1578 -1168 
Q 1222 -1168 955 -1097 
Q 688 -1027 512 -908 
Q 336 -790 248 -635 
Q 160 -480 160 -310 
Q 160 -70 312 98 
Q 464 266 730 365 
Q 592 429 510 536 
Q 429 643 429 822 
Q 429 893 454 968 
Q 480 1043 533 1116 
Q 586 1190 662 1257 
Q 739 1325 842 1376 
Q 602 1510 466 1732 
Q 330 1955 330 2253 
Q 330 2490 421 2683 
Q 512 2877 675 3013 
Q 838 3149 1064 3222 
Q 1290 3296 1558 3296 
z
M 2570 -176 
Q 2570 -54 2502 19 
Q 2435 93 2320 133 
Q 2205 173 2054 192 
Q 1904 211 1737 219 
Q 1571 227 1398 236 
Q 1226 246 1069 272 
Q 886 186 772 61 
Q 659 -64 659 -237 
Q 659 -346 715 -440 
Q 771 -534 886 -603 
Q 1002 -672 1176 -712 
Q 1350 -752 1587 -752 
Q 1818 -752 2000 -710 
Q 2182 -669 2308 -592 
Q 2435 -515 2502 -409 
Q 2570 -304 2570 -176 
z
M 1558 1584 
Q 1731 1584 1864 1632 
Q 1997 1680 2086 1766 
Q 2176 1853 2221 1973 
Q 2266 2093 2266 2237 
Q 2266 2534 2085 2710 
Q 1904 2886 1558 2886 
Q 1216 2886 1035 2710 
Q 854 2534 854 2237 
Q 854 2093 900 1973 
Q 947 1853 1036 1766 
Q 1126 1680 1257 1632 
Q 1389 1584 1558 1584 
z
" transform="scale(0.015625)"/>
       </defs>
       <use xlink:href="#Lato-Regular-41"/>
       <use xlink:href="#Lato-Regular-75" transform="translate(68.000015 0)"/>
       <use xlink:href="#Lato-Regular-67" transform="translate(123.600021 0)"/>
       <use xlink:href="#Lato-Regular-20" transform="translate(174.700027 0)"/>
       <use xlink:href="#Lato-Regular-32" transform="translate(194.000031 0)"/>
       <use xlink:href="#Lato-Regular-34" transform="translate(252.000031 0)"/>
      </g>
     </g>
    </g>
    <g id="xtick_3">
     <g id="line2d_4">
      <g>
       <use xlink:href="#mb8f81998b9" x="329.659395" y="320.04" style="fill: #ff0000; fill-opacity: 0.5; stroke: #ff0000; stroke-opacity: 0.5; stroke-width: 0.8"/>
      </g>
     </g>
     <g id="text_3">
      <!-- Feb 25 -->
      <g style="fill: #323034" transform="translate(311.647207 335.87875) scale(0.12 -0.12)">
       <defs>
        <path id="Lato-Regular-35" d="M 3130 4336 
Q 3130 4214 3053 4136 
Q 2976 4058 2794 4058 
L 1354 4058 
L 1142 2854 
Q 1501 2931 1805 2931 
Q 2163 2931 2436 2825 
Q 2710 2720 2896 2534 
Q 3082 2349 3176 2096 
Q 3270 1843 3270 1546 
Q 3270 1181 3142 886 
Q 3014 592 2792 382 
Q 2570 173 2269 61 
Q 1968 -51 1619 -51 
Q 1418 -51 1232 -11 
Q 1046 29 886 96 
Q 726 163 588 249 
Q 451 336 346 432 
L 518 675 
Q 576 758 672 758 
Q 733 758 814 708 
Q 896 659 1011 598 
Q 1126 538 1281 488 
Q 1437 438 1651 438 
Q 1891 438 2083 515 
Q 2275 592 2411 734 
Q 2547 877 2620 1075 
Q 2694 1274 2694 1520 
Q 2694 1734 2632 1907 
Q 2570 2080 2443 2201 
Q 2317 2323 2128 2390 
Q 1939 2458 1686 2458 
Q 1514 2458 1328 2429 
Q 1142 2400 944 2336 
L 586 2442 
L 957 4586 
L 3130 4586 
L 3130 4336 
z
" transform="scale(0.015625)"/>
       </defs>
       <use xlink:href="#Lato-Regular-46"/>
       <use xlink:href="#Lato-Regular-65" transform="translate(56.600006 0)"/>
       <use xlink:href="#Lato-Regular-62" transform="translate(109.000015 0)"/>
       <use xlink:href="#Lato-Regular-20" transform="translate(164.900024 0)"/>
       <use xlink:href="#Lato-Regular-32" transform="translate(184.200027 0)"/>
       <use xlink:href="#Lato-Regular-35" transform="translate(242.200027 0)"/>
      </g>
     </g>
    </g>
    <g id="xtick_4">
     <g id="line2d_5">
      <g>
       <use xlink:href="#mb8f81998b9" x="478.378673" y="320.04" style="fill: #ff0000; fill-opacity: 0.5; stroke: #ff0000; stroke-opacity: 0.5; stroke-width: 0.8"/>
      </g>
     </g>
     <g id="text_4">
      <!-- Aug 25 -->
      <g style="fill: #323034" transform="translate(459.77961 335.7475) scale(0.12 -0.12)">
       <use xlink:href="#Lato-Regular-41"/>
       <use xlink:href="#Lato-Regular-75" transform="translate(68.000015 0)"/>
       <use xlink:href="#Lato-Regular-67" transform="translate(123.600021 0)"/>
       <use xlink:href="#Lato-Regular-20" transform="translate(174.700027 0)"/>
       <use xlink:href="#Lato-Regular-32" transform="translate(194.000031 0)"/>
       <use xlink:href="#Lato-Regular-35" transform="translate(252.000031 0)"/>
      </g>
     </g>
    </g>
    <g id="xtick_5">
     <g id="line2d_6">
      <defs>
       <path id="maefe33b1f1" d="M 0 0 
L 0 2 
" style="stroke: #ff0000; stroke-opacity: 0.5; stroke-width: 0.6"/>
      </defs>
      <g>
       <use xlink:href="#maefe33b1f1" x="52.762176" y="320.04" style="fill: #ff0000; fill-opacity: 0.5; stroke: #ff0000; stroke-opacity: 0.5; stroke-width: 0.6"/>
      </g>
     </g>
    </g>
    <g id="xtick_6">
     <g id="line2d_7">
      <g>
       <use xlink:href="#maefe33b1f1" x="78.233433" y="320.04" style="fill: #ff0000; fill-opacity: 0.5; stroke: #ff0000; stroke-opacity: 0.5; stroke-width: 0.6"/>
      </g>
     </g>
    </g>
    <g id="xtick_7">
     <g id="line2d_8">
      <g>
       <use xlink:href="#maefe33b1f1" x="102.883037" y="320.04" style="fill: #ff0000; fill-opacity: 0.5; stroke: #ff0000; stroke-opacity: 0.5; stroke-width: 0.6"/>
      </g>
     </g>
    </g>
    <g id="xtick_8">
     <g id="line2d_9">
      <g>
       <use xlink:href="#maefe33b1f1" x="128.354295" y="320.04" style="fill: #ff0000; fill-opacity: 0.5; stroke: #ff0000; stroke-opacity: 0.5; stroke-width: 0.6"/>
      </g>
     </g>
    </g>
    <g id="xtick_9">
     <g id="line2d_10">
      <g>
       <use xlink:href="#maefe33b1f1" x="153.003899" y="320.04" style="fill: #ff0000; fill-opacity: 0.5; stroke: #ff0000; stroke-opacity: 0.5; stroke-width: 0.6"/>
      </g>
     </g>
    </g>
    <g id="xtick_10">
     <g id="line2d_11">
      <g>
       <use xlink:href="#maefe33b1f1" x="203.946414" y="320.04" style="fill: #ff0000; fill-opacity: 0.5; stroke: #ff0000; stroke-opacity: 0.5; stroke-width: 0.6"/>
      </g>
     </g>
    </g>
    <g id="xtick_11">
     <g id="line2d_12">
      <g>
       <use xlink:href="#maefe33b1f1" x="228.596018" y="320.04" style="fill: #ff0000; fill-opacity: 0.5; stroke: #ff0000; stroke-opacity: 0.5; stroke-width: 0.6"/>
      </g>
     </g>
    </g>
    <g id="xtick_12">
     <g id="line2d_13">
      <g>
       <use xlink:href="#maefe33b1f1" x="254.067276" y="320.04" style="fill: #ff0000; fill-opacity: 0.5; stroke: #ff0000; stroke-opacity: 0.5; stroke-width: 0.6"/>
      </g>
     </g>
    </g>
    <g id="xtick_13">
     <g id="line2d_14">
      <g>
       <use xlink:href="#maefe33b1f1" x="278.71688" y="320.04" style="fill: #ff0000; fill-opacity: 0.5; stroke: #ff0000; stroke-opacity: 0.5; stroke-width: 0.6"/>
      </g>
     </g>
    </g>
    <g id="xtick_14">
     <g id="line2d_15">
      <g>
       <use xlink:href="#maefe33b1f1" x="304.188137" y="320.04" style="fill: #ff0000; fill-opacity: 0.5; stroke: #ff0000; stroke-opacity: 0.5; stroke-width: 0.6"/>
      </g>
     </g>
    </g>
    <g id="xtick_15">
     <g id="line2d_16">
      <g>
       <use xlink:href="#maefe33b1f1" x="352.665692" y="320.04" style="fill: #ff0000; fill-opacity: 0.5; stroke: #ff0000; stroke-opacity: 0.5; stroke-width: 0.6"/>
      </g>
     </g>
    </g>
    <g id="xtick_16">
     <g id="line2d_17">
      <g>
       <use xlink:href="#maefe33b1f1" x="378.136949" y="320.04" style="fill: #ff0000; fill-opacity: 0.5; stroke: #ff0000; stroke-opacity: 0.5; stroke-width: 0.6"/>
      </g>
     </g>
    </g>
    <g id="xtick_17">
     <g id="line2d_18">
      <g>
       <use xlink:href="#maefe33b1f1" x="402.786553" y="320.04" style="fill: #ff0000; fill-opacity: 0.5; stroke: #ff0000; stroke-opacity: 0.5; stroke-width: 0.6"/>
      </g>
     </g>
    </g>
    <g id="xtick_18">
     <g id="line2d_19">
      <g>
       <use xlink:href="#maefe33b1f1" x="428.257811" y="320.04" style="fill: #ff0000; fill-opacity: 0.5; stroke: #ff0000; stroke-opacity: 0.5; stroke-width: 0.6"/>
      </g>
     </g>
    </g>
    <g id="xtick_19">
     <g id="line2d_20">
      <g>
       <use xlink:href="#maefe33b1f1" x="452.907415" y="320.04" style="fill: #ff0000; fill-opacity: 0.5; stroke: #ff0000; stroke-opacity: 0.5; stroke-width: 0.6"/>
      </g>
     </g>
    </g>
    <g id="xtick_20">
     <g id="line2d_21">
      <g>
       <use xlink:href="#maefe33b1f1" x="503.84993" y="320.04" style="fill: #ff0000; fill-opacity: 0.5; stroke: #ff0000; stroke-opacity: 0.5; stroke-width: 0.6"/>
      </g>
     </g>
    </g>
    <g id="xtick_21">
     <g id="line2d_22">
      <g>
       <use xlink:href="#maefe33b1f1" x="528.499534" y="320.04" style="fill: #ff0000; fill-opacity: 0.5; stroke: #ff0000; stroke-opacity: 0.5; stroke-width: 0.6"/>
      </g>
     </g>
    </g>
    <g id="xtick_22">
     <g id="line2d_23">
      <g>
       <use xlink:href="#maefe33b1f1" x="553.970792" y="320.04" style="fill: #ff0000; fill-opacity: 0.5; stroke: #ff0000; stroke-opacity: 0.5; stroke-width: 0.6"/>
      </g>
     </g>
    </g>
    <g id="xtick_23">
     <g id="line2d_24">
      <g>
       <use xlink:href="#maefe33b1f1" x="578.620396" y="320.04" style="fill: #ff0000; fill-opacity: 0.5; stroke: #ff0000; stroke-opacity: 0.5; stroke-width: 0.6"/>
      </g>
     </g>
    </g>
   </g>
   <g id="matplotlib.axis_2">
    <g id="ytick_1">
     <g id="line2d_25">
      <path d="M 28.112571 320.04 
L 603.27 320.04 
" clip-path="url(#pc847bae2b2)" style="fill: none; stroke: #b1afb5; stroke-width: 0.2; stroke-linecap: square"/>
     </g>
     <g id="line2d_26"/>
     <g id="text_5">
      <!-- $\mathdefault{0}$ -->
      <g style="fill: #323034" transform="translate(606.77 324.459375) scale(0.12 -0.12)">
       <defs>
        <path id="Lato-Regular-30" d="M 3520 2291 
Q 3520 1690 3390 1250 
Q 3261 810 3037 522 
Q 2813 234 2507 93 
Q 2202 -48 1853 -48 
Q 1501 -48 1198 93 
Q 896 234 672 522 
Q 448 810 320 1250 
Q 192 1690 192 2291 
Q 192 2893 320 3334 
Q 448 3776 672 4065 
Q 896 4355 1198 4496 
Q 1501 4637 1853 4637 
Q 2202 4637 2507 4496 
Q 2813 4355 3037 4065 
Q 3261 3776 3390 3334 
Q 3520 2893 3520 2291 
z
M 2928 2291 
Q 2928 2816 2840 3173 
Q 2752 3530 2603 3747 
Q 2454 3965 2259 4059 
Q 2064 4154 1853 4154 
Q 1642 4154 1446 4059 
Q 1251 3965 1104 3747 
Q 957 3530 869 3173 
Q 781 2816 781 2291 
Q 781 1766 869 1411 
Q 957 1056 1104 838 
Q 1251 621 1446 526 
Q 1642 432 1853 432 
Q 2064 432 2259 526 
Q 2454 621 2603 838 
Q 2752 1056 2840 1411 
Q 2928 1766 2928 2291 
z
" transform="scale(0.015625)"/>
       </defs>
       <use xlink:href="#Lato-Regular-30" transform="translate(0 0.546875)"/>
      </g>
     </g>
    </g>
    <g id="ytick_2">
     <g id="line2d_27">
      <path d="M 28.112571 290.799 
L 603.27 290.799 
" clip-path="url(#pc847bae2b2)" style="fill: none; stroke: #b1afb5; stroke-width: 0.2; stroke-linecap: square"/>
     </g>
     <g id="line2d_28"/>
     <g id="text_6">
      <!-- $\mathdefault{1000}$ -->
      <g style="fill: #323034" transform="translate(606.77 295.218375) scale(0.12 -0.12)">
       <defs>
        <path id="Lato-Regular-31" d="M 918 435 
L 1904 435 
L 1904 3562 
Q 1904 3702 1914 3846 
L 1094 3146 
Q 1062 3120 1030 3109 
Q 998 3098 970 3098 
Q 922 3098 883 3118 
Q 845 3139 826 3168 
L 646 3414 
L 2010 4595 
L 2474 4595 
L 2474 435 
L 3376 435 
L 3376 0 
L 918 0 
L 918 435 
z
" transform="scale(0.015625)"/>
       </defs>
       <use xlink:href="#Lato-Regular-31" transform="translate(0 0.546875)"/>
       <use xlink:href="#Lato-Regular-30" transform="translate(58 0.546875)"/>
       <use xlink:href="#Lato-Regular-30" transform="translate(116 0.546875)"/>
       <use xlink:href="#Lato-Regular-30" transform="translate(174 0.546875)"/>
      </g>
     </g>
    </g>
    <g id="ytick_3">
     <g id="line2d_29">
      <path d="M 28.112571 261.558 
L 603.27 261.558 
" clip-path="url(#pc847bae2b2)" style="fill: none; stroke: #b1afb5; stroke-width: 0.2; stroke-linecap: square"/>
     </g>
     <g id="line2d_30"/>
     <g id="text_7">
      <!-- $\mathdefault{2000}$ -->
      <g style="fill: #323034" transform="translate(606.77 265.977375) scale(0.12 -0.12)">
       <use xlink:href="#Lato-Regular-32" transform="translate(0 0.546875)"/>
       <use xlink:href="#Lato-Regular-30" transform="translate(58 0.546875)"/>
       <use xlink:href="#Lato-Regular-30" transform="translate(116 0.546875)"/>
       <use xlink:href="#Lato-Regular-30" transform="translate(174 0.546875)"/>
      </g>
     </g>
    </g>
    <g id="ytick_4">
     <g id="line2d_31">
      <path d="M 28.112571 232.317 
L 603.27 232.317 
" clip-path="url(#pc847bae2b2)" style="fill: none; stroke: #b1afb5; stroke-width: 0.2; stroke-linecap: square"/>
     </g>
     <g id="line2d_32"/>
     <g id="text_8">
      <!-- $\mathdefault{3000}$ -->
      <g style="fill: #323034" transform="translate(606.77 236.736375) scale(0.12 -0.12)">
       <defs>
        <path id="Lato-Regular-33" d="M 1984 4637 
Q 2275 4637 2521 4553 
Q 2768 4470 2945 4316 
Q 3123 4163 3222 3945 
Q 3322 3728 3322 3462 
Q 3322 3245 3266 3073 
Q 3210 2902 3106 2772 
Q 3002 2643 2854 2553 
Q 2707 2464 2525 2410 
Q 2973 2291 3198 2012 
Q 3424 1734 3424 1315 
Q 3424 998 3304 745 
Q 3184 493 2976 315 
Q 2768 138 2491 43 
Q 2214 -51 1898 -51 
Q 1533 -51 1273 40 
Q 1014 131 835 291 
Q 656 451 541 670 
Q 426 890 346 1146 
L 589 1248 
Q 656 1277 723 1277 
Q 787 1277 836 1249 
Q 886 1222 912 1165 
Q 918 1152 924 1137 
Q 931 1123 938 1107 
Q 982 1014 1046 897 
Q 1110 781 1219 678 
Q 1328 576 1489 505 
Q 1651 435 1891 435 
Q 2131 435 2312 513 
Q 2493 592 2613 717 
Q 2733 842 2793 995 
Q 2854 1149 2854 1299 
Q 2854 1485 2804 1638 
Q 2755 1792 2625 1904 
Q 2496 2016 2267 2080 
Q 2038 2144 1680 2144 
L 1680 2557 
Q 1971 2560 2177 2621 
Q 2384 2682 2515 2787 
Q 2646 2893 2705 3040 
Q 2765 3187 2765 3366 
Q 2765 3565 2702 3712 
Q 2640 3859 2531 3955 
Q 2422 4051 2273 4099 
Q 2125 4147 1952 4147 
Q 1779 4147 1632 4096 
Q 1485 4045 1371 3953 
Q 1258 3862 1181 3736 
Q 1104 3610 1066 3462 
Q 1040 3370 989 3328 
Q 938 3286 858 3286 
Q 842 3286 824 3288 
Q 806 3290 784 3293 
L 486 3344 
Q 531 3658 659 3899 
Q 787 4141 984 4304 
Q 1181 4467 1435 4552 
Q 1690 4637 1984 4637 
z
" transform="scale(0.015625)"/>
       </defs>
       <use xlink:href="#Lato-Regular-33" transform="translate(0 0.546875)"/>
       <use xlink:href="#Lato-Regular-30" transform="translate(58 0.546875)"/>
       <use xlink:href="#Lato-Regular-30" transform="translate(116 0.546875)"/>
       <use xlink:href="#Lato-Regular-30" transform="translate(174 0.546875)"/>
      </g>
     </g>
    </g>
    <g id="ytick_5">
     <g id="line2d_33">
      <path d="M 28.112571 203.076 
L 603.27 203.076 
" clip-path="url(#pc847bae2b2)" style="fill: none; stroke: #b1afb5; stroke-width: 0.2; stroke-linecap: square"/>
     </g>
     <g id="line2d_34"/>
     <g id="text_9">
      <!-- $\mathdefault{4000}$ -->
      <g style="fill: #323034" transform="translate(606.77 207.495375) scale(0.12 -0.12)">
       <use xlink:href="#Lato-Regular-34" transform="translate(0 0.546875)"/>
       <use xlink:href="#Lato-Regular-30" transform="translate(58 0.546875)"/>
       <use xlink:href="#Lato-Regular-30" transform="translate(116 0.546875)"/>
       <use xlink:href="#Lato-Regular-30" transform="translate(174 0.546875)"/>
      </g>
     </g>
    </g>
    <g id="ytick_6">
     <g id="line2d_35">
      <path d="M 28.112571 173.835 
L 603.27 173.835 
" clip-path="url(#pc847bae2b2)" style="fill: none; stroke: #b1afb5; stroke-width: 0.2; stroke-linecap: square"/>
     </g>
     <g id="line2d_36"/>
     <g id="text_10">
      <!-- $\mathdefault{5000}$ -->
      <g style="fill: #323034" transform="translate(606.77 178.254375) scale(0.12 -0.12)">
       <use xlink:href="#Lato-Regular-35" transform="translate(0 0.546875)"/>
       <use xlink:href="#Lato-Regular-30" transform="translate(58 0.546875)"/>
       <use xlink:href="#Lato-Regular-30" transform="translate(116 0.546875)"/>
       <use xlink:href="#Lato-Regular-30" transform="translate(174 0.546875)"/>
      </g>
     </g>
    </g>
    <g id="ytick_7">
     <g id="line2d_37">
      <path d="M 28.112571 144.594 
L 603.27 144.594 
" clip-path="url(#pc847bae2b2)" style="fill: none; stroke: #b1afb5; stroke-width: 0.2; stroke-linecap: square"/>
     </g>
     <g id="line2d_38"/>
     <g id="text_11">
      <!-- $\mathdefault{6000}$ -->
      <g style="fill: #323034" transform="translate(606.77 149.013375) scale(0.12 -0.12)">
       <defs>
        <path id="Lato-Regular-36" d="M 2080 2810 
Q 2355 2810 2601 2718 
Q 2848 2627 3033 2452 
Q 3219 2278 3328 2024 
Q 3437 1770 3437 1443 
Q 3437 1126 3321 854 
Q 3206 582 3000 380 
Q 2794 179 2502 64 
Q 2211 -51 1862 -51 
Q 1517 -51 1237 59 
Q 957 170 758 373 
Q 560 576 453 865 
Q 346 1155 346 1514 
Q 346 1814 480 2153 
Q 614 2493 906 2883 
L 2067 4448 
Q 2112 4506 2192 4546 
Q 2272 4586 2374 4586 
L 2880 4586 
L 1290 2573 
Q 1453 2685 1651 2747 
Q 1850 2810 2080 2810 
z
M 896 1414 
Q 896 1194 960 1011 
Q 1024 829 1147 697 
Q 1270 566 1448 494 
Q 1626 422 1853 422 
Q 2083 422 2268 496 
Q 2454 570 2587 701 
Q 2720 832 2792 1011 
Q 2864 1190 2864 1402 
Q 2864 1626 2793 1806 
Q 2723 1987 2595 2113 
Q 2467 2240 2288 2307 
Q 2109 2374 1894 2374 
Q 1664 2374 1478 2296 
Q 1293 2218 1163 2085 
Q 1034 1952 965 1777 
Q 896 1603 896 1414 
z
" transform="scale(0.015625)"/>
       </defs>
       <use xlink:href="#Lato-Regular-36" transform="translate(0 0.546875)"/>
       <use xlink:href="#Lato-Regular-30" transform="translate(58 0.546875)"/>
       <use xlink:href="#Lato-Regular-30" transform="translate(116 0.546875)"/>
       <use xlink:href="#Lato-Regular-30" transform="translate(174 0.546875)"/>
      </g>
     </g>
    </g>
    <g id="ytick_8">
     <g id="line2d_39">
      <path d="M 28.112571 115.353 
L 603.27 115.353 
" clip-path="url(#pc847bae2b2)" style="fill: none; stroke: #b1afb5; stroke-width: 0.2; stroke-linecap: square"/>
     </g>
     <g id="line2d_40"/>
     <g id="text_12">
      <!-- $\mathdefault{7000}$ -->
      <g style="fill: #323034" transform="translate(606.77 119.772375) scale(0.12 -0.12)">
       <defs>
        <path id="Lato-Regular-37" d="M 3469 4586 
L 3469 4330 
Q 3469 4221 3445 4150 
Q 3421 4080 3395 4032 
L 1498 202 
Q 1456 118 1382 59 
Q 1309 0 1184 0 
L 778 0 
L 2704 3782 
Q 2746 3862 2789 3929 
Q 2832 3997 2886 4058 
L 493 4058 
Q 438 4058 395 4101 
Q 352 4144 352 4198 
L 352 4586 
L 3469 4586 
z
" transform="scale(0.015625)"/>
       </defs>
       <use xlink:href="#Lato-Regular-37" transform="translate(0 0.546875)"/>
       <use xlink:href="#Lato-Regular-30" transform="translate(58 0.546875)"/>
       <use xlink:href="#Lato-Regular-30" transform="translate(116 0.546875)"/>
       <use xlink:href="#Lato-Regular-30" transform="translate(174 0.546875)"/>
      </g>
     </g>
    </g>
    <g id="ytick_9">
     <g id="line2d_41">
      <path d="M 28.112571 86.112 
L 603.27 86.112 
" clip-path="url(#pc847bae2b2)" style="fill: none; stroke: #b1afb5; stroke-width: 0.2; stroke-linecap: square"/>
     </g>
     <g id="line2d_42"/>
     <g id="text_13">
      <!-- $\mathdefault{8000}$ -->
      <g style="fill: #323034" transform="translate(606.77 90.531375) scale(0.12 -0.12)">
       <defs>
        <path id="Lato-Regular-38" d="M 1853 -51 
Q 1510 -51 1225 40 
Q 941 131 736 300 
Q 531 470 419 712 
Q 307 954 307 1254 
Q 307 1696 537 1982 
Q 768 2269 1197 2390 
Q 835 2525 651 2792 
Q 467 3059 467 3430 
Q 467 3683 566 3904 
Q 666 4125 848 4288 
Q 1030 4451 1284 4544 
Q 1539 4637 1853 4637 
Q 2163 4637 2419 4544 
Q 2675 4451 2857 4288 
Q 3040 4125 3139 3904 
Q 3238 3683 3238 3430 
Q 3238 3059 3052 2792 
Q 2867 2525 2509 2390 
Q 2938 2269 3168 1982 
Q 3398 1696 3398 1254 
Q 3398 954 3284 712 
Q 3171 470 2968 300 
Q 2765 131 2480 40 
Q 2195 -51 1853 -51 
z
M 1853 403 
Q 2077 403 2254 465 
Q 2432 528 2555 641 
Q 2678 755 2744 913 
Q 2810 1072 2810 1264 
Q 2810 1501 2731 1669 
Q 2653 1837 2520 1942 
Q 2387 2048 2214 2097 
Q 2042 2147 1853 2147 
Q 1664 2147 1491 2097 
Q 1318 2048 1185 1942 
Q 1053 1837 974 1669 
Q 896 1501 896 1264 
Q 896 1072 961 913 
Q 1027 755 1150 641 
Q 1274 528 1451 465 
Q 1629 403 1853 403 
z
M 1853 2605 
Q 2077 2605 2235 2673 
Q 2394 2742 2493 2856 
Q 2592 2970 2637 3117 
Q 2682 3264 2682 3421 
Q 2682 3581 2629 3721 
Q 2576 3862 2472 3968 
Q 2368 4074 2213 4134 
Q 2058 4195 1853 4195 
Q 1648 4195 1493 4134 
Q 1338 4074 1234 3968 
Q 1130 3862 1077 3721 
Q 1024 3581 1024 3421 
Q 1024 3264 1069 3117 
Q 1114 2970 1213 2856 
Q 1312 2742 1470 2673 
Q 1629 2605 1853 2605 
z
" transform="scale(0.015625)"/>
       </defs>
       <use xlink:href="#Lato-Regular-38" transform="translate(0 0.546875)"/>
       <use xlink:href="#Lato-Regular-30" transform="translate(58 0.546875)"/>
       <use xlink:href="#Lato-Regular-30" transform="translate(116 0.546875)"/>
       <use xlink:href="#Lato-Regular-30" transform="translate(174 0.546875)"/>
      </g>
     </g>
    </g>
   </g>
   <g id="line2d_43">
    <path d="M 28.112571 275.917646 
L 51.940522 271.130725 
L 77.41178 266.034203 
L 102.061384 259.509827 
L 127.532641 260.815311 
L 152.182245 260.283792 
L 177.653503 260.037468 
L 203.12476 269.689347 
L 227.774364 280.00372 
L 253.245622 289.397782 
L 277.895226 295.872368 
L 303.366484 296.763481 
L 328.837741 291.990243 
L 351.844038 287.042656 
L 377.315296 283.907934 
L 401.9649 287.018271 
L 427.436158 295.120105 
L 452.085762 300.96553 
L 477.557019 304.41243 
L 503.028277 307.814069 
" clip-path="url(#pc847bae2b2)" style="fill: none; stroke: #faa61a; stroke-opacity: 0.6; stroke-width: 3; stroke-linecap: square"/>
   </g>
   <g id="line2d_44">
    <path d="M 28.112571 280.726067 
L 51.940522 279.441489 
L 77.41178 278.812762 
L 102.061384 281.186492 
L 127.532641 283.324227 
L 152.182245 275.651668 
L 177.653503 266.033217 
L 203.12476 255.886127 
L 227.774364 249.307135 
L 253.245622 251.128348 
L 277.895226 257.280874 
L 303.366484 263.997985 
L 328.837741 269.258122 
L 351.844038 267.715708 
L 377.315296 268.542671 
L 401.9649 273.37599 
L 427.436158 278.736089 
L 452.085762 283.244419 
L 477.557019 284.407998 
L 503.028277 284.941159 
" clip-path="url(#pc847bae2b2)" style="fill: none; stroke: #0087dc; stroke-opacity: 0.6; stroke-width: 3; stroke-linecap: square"/>
   </g>
   <g id="line2d_45">
    <path d="M 28.112571 279.993572 
L 51.940522 270.402891 
L 77.41178 260.977306 
L 102.061384 252.57354 
L 127.532641 244.185735 
L 152.182245 224.605313 
L 177.653503 213.366476 
L 203.12476 194.060383 
L 227.774364 217.91893 
L 253.245622 218.705434 
L 277.895226 207.577184 
L 303.366484 195.252243 
L 328.837741 192.589927 
L 351.844038 195.315964 
L 377.315296 200.61757 
L 401.9649 205.796219 
L 427.436158 201.60339 
L 452.085762 192.592248 
L 477.557019 175.493182 
L 503.028277 153.218356 
" clip-path="url(#pc847bae2b2)" style="fill: none; stroke: #12b6cf; stroke-opacity: 0.6; stroke-width: 3; stroke-linecap: square"/>
   </g>
   <g id="text_14">
    <!-- Ed Davey -->
    <g style="fill: #323034" transform="translate(508.028277 311.204069) scale(0.12 -0.12)">
     <defs>
      <path id="Lato-Regular-45" d="M 3382 4586 
L 3382 4080 
L 1181 4080 
L 1181 2557 
L 2963 2557 
L 2963 2070 
L 1181 2070 
L 1181 506 
L 3382 506 
L 3382 0 
L 557 0 
L 557 4586 
L 3382 4586 
z
" transform="scale(0.015625)"/>
      <path id="Lato-Regular-64" d="M 2749 0 
Q 2627 0 2595 118 
L 2544 512 
Q 2336 259 2069 107 
Q 1802 -45 1456 -45 
Q 1178 -45 950 62 
Q 723 170 563 378 
Q 403 586 316 896 
Q 230 1206 230 1610 
Q 230 1968 326 2277 
Q 422 2586 603 2813 
Q 784 3040 1043 3169 
Q 1302 3299 1632 3299 
Q 1930 3299 2141 3198 
Q 2352 3098 2518 2915 
L 2518 4714 
L 3088 4714 
L 3088 0 
L 2749 0 
z
M 1645 416 
Q 1923 416 2132 544 
Q 2342 672 2518 906 
L 2518 2474 
Q 2362 2685 2174 2769 
Q 1987 2854 1760 2854 
Q 1306 2854 1062 2531 
Q 819 2208 819 1610 
Q 819 1293 873 1067 
Q 928 842 1033 696 
Q 1139 550 1292 483 
Q 1446 416 1645 416 
z
" transform="scale(0.015625)"/>
      <path id="Lato-Regular-44" d="M 4531 2291 
Q 4531 1776 4368 1353 
Q 4205 931 3907 630 
Q 3610 330 3194 165 
Q 2778 0 2272 0 
L 557 0 
L 557 4586 
L 2272 4586 
Q 2778 4586 3194 4421 
Q 3610 4256 3907 3953 
Q 4205 3651 4368 3228 
Q 4531 2806 4531 2291 
z
M 3894 2291 
Q 3894 2714 3779 3046 
Q 3664 3379 3453 3609 
Q 3242 3840 2941 3961 
Q 2640 4083 2272 4083 
L 1181 4083 
L 1181 502 
L 2272 502 
Q 2640 502 2941 624 
Q 3242 746 3453 974 
Q 3664 1203 3779 1536 
Q 3894 1869 3894 2291 
z
" transform="scale(0.015625)"/>
      <path id="Lato-Regular-61" d="M 2848 0 
L 2595 0 
Q 2512 0 2461 25 
Q 2410 51 2394 134 
L 2330 435 
Q 2202 320 2080 229 
Q 1958 138 1824 75 
Q 1690 13 1538 -19 
Q 1386 -51 1200 -51 
Q 1011 -51 846 1 
Q 682 54 560 160 
Q 438 266 366 427 
Q 294 589 294 810 
Q 294 1002 400 1179 
Q 506 1357 741 1494 
Q 976 1632 1357 1720 
Q 1738 1808 2288 1821 
L 2288 2074 
Q 2288 2451 2126 2644 
Q 1965 2838 1648 2838 
Q 1440 2838 1297 2785 
Q 1155 2733 1051 2667 
Q 947 2602 872 2549 
Q 797 2496 723 2496 
Q 666 2496 622 2526 
Q 579 2557 554 2602 
L 451 2784 
Q 720 3043 1030 3171 
Q 1341 3299 1718 3299 
Q 1990 3299 2201 3209 
Q 2413 3120 2557 2960 
Q 2701 2800 2774 2573 
Q 2848 2346 2848 2074 
L 2848 0 
z
M 1370 349 
Q 1520 349 1645 379 
Q 1770 410 1880 466 
Q 1990 522 2091 602 
Q 2192 682 2288 784 
L 2288 1459 
Q 1894 1446 1619 1396 
Q 1344 1347 1171 1267 
Q 998 1187 920 1078 
Q 842 970 842 835 
Q 842 707 883 614 
Q 925 522 995 462 
Q 1066 403 1162 376 
Q 1258 349 1370 349 
z
" transform="scale(0.015625)"/>
      <path id="Lato-Regular-76" d="M 58 3242 
L 525 3242 
Q 592 3242 637 3206 
Q 682 3171 701 3123 
L 1523 1037 
Q 1568 922 1593 806 
Q 1619 691 1642 579 
Q 1667 691 1696 806 
Q 1725 922 1770 1037 
L 2602 3123 
Q 2621 3174 2664 3208 
Q 2707 3242 2771 3242 
L 3216 3242 
L 1894 0 
L 1379 0 
L 58 3242 
z
" transform="scale(0.015625)"/>
      <path id="Lato-Regular-79" d="M 1418 -957 
Q 1389 -1021 1345 -1059 
Q 1302 -1098 1213 -1098 
L 790 -1098 
L 1382 189 
L 45 3242 
L 538 3242 
Q 611 3242 652 3205 
Q 694 3168 714 3123 
L 1581 1082 
Q 1610 1011 1630 940 
Q 1651 870 1667 797 
Q 1690 870 1712 940 
Q 1734 1011 1763 1085 
L 2605 3123 
Q 2624 3174 2670 3208 
Q 2717 3242 2771 3242 
L 3226 3242 
L 1418 -957 
z
" transform="scale(0.015625)"/>
     </defs>
     <use xlink:href="#Lato-Regular-45"/>
     <use xlink:href="#Lato-Regular-64" transform="translate(58.100006 0)"/>
     <use xlink:href="#Lato-Regular-20" transform="translate(114.000015 0)"/>
     <use xlink:href="#Lato-Regular-44" transform="translate(133.300018 0)"/>
     <use xlink:href="#Lato-Regular-61" transform="translate(208.600037 0)"/>
     <use xlink:href="#Lato-Regular-76" transform="translate(259.300049 0)"/>
     <use xlink:href="#Lato-Regular-65" transform="translate(310.500061 0)"/>
     <use xlink:href="#Lato-Regular-79" transform="translate(362.90007 0)"/>
    </g>
   </g>
   <g id="text_15">
    <!-- Kemi Badenoch -->
    <g style="fill: #323034" transform="translate(508.028277 288.331159) scale(0.12 -0.12)">
     <defs>
      <path id="Lato-Regular-4b" d="M 1238 2576 
L 1472 2576 
Q 1594 2576 1666 2606 
Q 1738 2637 1802 2710 
L 3328 4438 
Q 3398 4518 3464 4552 
Q 3530 4586 3632 4586 
L 4160 4586 
L 2413 2611 
Q 2346 2538 2286 2486 
Q 2227 2435 2160 2403 
Q 2250 2374 2317 2316 
Q 2384 2259 2458 2173 
L 4282 0 
L 3744 0 
Q 3683 0 3641 9 
Q 3600 19 3569 35 
Q 3539 51 3513 76 
Q 3488 102 3462 131 
L 1878 1952 
Q 1843 1990 1812 2017 
Q 1782 2045 1742 2064 
Q 1702 2083 1649 2091 
Q 1597 2099 1520 2099 
L 1238 2099 
L 1238 0 
L 621 0 
L 621 4586 
L 1238 4586 
L 1238 2576 
z
" transform="scale(0.015625)"/>
      <path id="Lato-Regular-6d" d="M 467 0 
L 467 3242 
L 806 3242 
Q 928 3242 960 3123 
L 1002 2790 
Q 1181 3011 1403 3152 
Q 1626 3293 1920 3293 
Q 2250 3293 2453 3110 
Q 2656 2928 2746 2618 
Q 2813 2794 2923 2922 
Q 3034 3050 3171 3133 
Q 3309 3216 3464 3254 
Q 3619 3293 3779 3293 
Q 4035 3293 4235 3211 
Q 4435 3130 4574 2973 
Q 4714 2816 4787 2587 
Q 4861 2358 4861 2064 
L 4861 0 
L 4291 0 
L 4291 2064 
Q 4291 2445 4124 2641 
Q 3958 2838 3642 2838 
Q 3501 2838 3374 2788 
Q 3248 2739 3152 2643 
Q 3056 2547 3000 2401 
Q 2944 2256 2944 2064 
L 2944 0 
L 2374 0 
L 2374 2064 
Q 2374 2454 2217 2646 
Q 2061 2838 1760 2838 
Q 1549 2838 1368 2724 
Q 1187 2611 1037 2416 
L 1037 0 
L 467 0 
z
" transform="scale(0.015625)"/>
      <path id="Lato-Regular-69" d="M 1101 3242 
L 1101 0 
L 531 0 
L 531 3242 
L 1101 3242 
z
M 1229 4259 
Q 1229 4176 1195 4104 
Q 1162 4032 1106 3976 
Q 1050 3920 976 3888 
Q 902 3856 819 3856 
Q 736 3856 664 3888 
Q 592 3920 536 3976 
Q 480 4032 448 4104 
Q 416 4176 416 4259 
Q 416 4342 448 4417 
Q 480 4493 536 4549 
Q 592 4605 664 4637 
Q 736 4669 819 4669 
Q 902 4669 976 4637 
Q 1050 4605 1106 4549 
Q 1162 4493 1195 4417 
Q 1229 4342 1229 4259 
z
" transform="scale(0.015625)"/>
      <path id="Lato-Regular-42" d="M 557 0 
L 557 4586 
L 2019 4586 
Q 2442 4586 2747 4502 
Q 3053 4419 3249 4265 
Q 3446 4112 3540 3889 
Q 3635 3667 3635 3389 
Q 3635 3219 3582 3062 
Q 3530 2906 3422 2771 
Q 3315 2637 3153 2531 
Q 2992 2426 2774 2358 
Q 3277 2259 3533 1996 
Q 3789 1734 3789 1306 
Q 3789 1014 3681 774 
Q 3574 534 3368 361 
Q 3162 189 2862 94 
Q 2563 0 2179 0 
L 557 0 
z
M 1178 2090 
L 1178 493 
L 2170 493 
Q 2435 493 2625 553 
Q 2816 614 2939 724 
Q 3062 835 3120 987 
Q 3178 1139 3178 1322 
Q 3178 1677 2926 1883 
Q 2675 2090 2166 2090 
L 1178 2090 
z
M 1178 2531 
L 1997 2531 
Q 2259 2531 2451 2588 
Q 2643 2646 2769 2748 
Q 2896 2851 2957 2996 
Q 3018 3142 3018 3315 
Q 3018 3718 2774 3907 
Q 2531 4096 2019 4096 
L 1178 4096 
L 1178 2531 
z
" transform="scale(0.015625)"/>
      <path id="Lato-Regular-6e" d="M 467 0 
L 467 3242 
L 806 3242 
Q 928 3242 960 3123 
L 1005 2771 
Q 1216 3005 1477 3149 
Q 1738 3293 2080 3293 
Q 2346 3293 2549 3205 
Q 2752 3117 2888 2955 
Q 3024 2794 3094 2566 
Q 3165 2339 3165 2064 
L 3165 0 
L 2595 0 
L 2595 2064 
Q 2595 2432 2427 2635 
Q 2259 2838 1914 2838 
Q 1661 2838 1441 2716 
Q 1222 2595 1037 2387 
L 1037 0 
L 467 0 
z
" transform="scale(0.015625)"/>
      <path id="Lato-Regular-6f" d="M 1779 3293 
Q 2134 3293 2420 3174 
Q 2707 3056 2907 2838 
Q 3107 2621 3214 2312 
Q 3322 2003 3322 1622 
Q 3322 1238 3214 931 
Q 3107 624 2907 406 
Q 2707 189 2420 72 
Q 2134 -45 1779 -45 
Q 1424 -45 1137 72 
Q 851 189 649 406 
Q 448 624 339 931 
Q 230 1238 230 1622 
Q 230 2003 339 2312 
Q 448 2621 649 2838 
Q 851 3056 1137 3174 
Q 1424 3293 1779 3293 
z
M 1779 400 
Q 2259 400 2496 721 
Q 2733 1043 2733 1619 
Q 2733 2198 2496 2521 
Q 2259 2845 1779 2845 
Q 1536 2845 1357 2761 
Q 1178 2678 1058 2521 
Q 938 2365 878 2136 
Q 819 1907 819 1619 
Q 819 1331 878 1104 
Q 938 877 1058 721 
Q 1178 566 1357 483 
Q 1536 400 1779 400 
z
" transform="scale(0.015625)"/>
      <path id="Lato-Regular-63" d="M 2678 2666 
Q 2653 2630 2627 2611 
Q 2602 2592 2554 2592 
Q 2506 2592 2450 2632 
Q 2394 2672 2307 2720 
Q 2221 2768 2097 2808 
Q 1974 2848 1795 2848 
Q 1558 2848 1376 2763 
Q 1194 2678 1070 2518 
Q 947 2358 884 2131 
Q 822 1904 822 1622 
Q 822 1328 889 1099 
Q 957 870 1078 715 
Q 1200 560 1374 478 
Q 1549 397 1766 397 
Q 1974 397 2108 446 
Q 2243 496 2332 557 
Q 2422 618 2480 667 
Q 2538 717 2595 717 
Q 2669 717 2704 662 
L 2864 454 
Q 2653 195 2336 75 
Q 2019 -45 1667 -45 
Q 1363 -45 1102 67 
Q 842 179 650 392 
Q 458 605 347 915 
Q 237 1226 237 1622 
Q 237 1984 337 2291 
Q 438 2598 632 2820 
Q 826 3043 1110 3168 
Q 1395 3293 1763 3293 
Q 2102 3293 2364 3182 
Q 2627 3072 2829 2870 
L 2678 2666 
z
" transform="scale(0.015625)"/>
      <path id="Lato-Regular-68" d="M 467 0 
L 467 4714 
L 1037 4714 
L 1037 2806 
Q 1245 3027 1497 3160 
Q 1750 3293 2080 3293 
Q 2346 3293 2549 3205 
Q 2752 3117 2888 2955 
Q 3024 2794 3094 2566 
Q 3165 2339 3165 2064 
L 3165 0 
L 2595 0 
L 2595 2064 
Q 2595 2432 2427 2635 
Q 2259 2838 1914 2838 
Q 1661 2838 1441 2716 
Q 1222 2595 1037 2387 
L 1037 0 
L 467 0 
z
" transform="scale(0.015625)"/>
     </defs>
     <use xlink:href="#Lato-Regular-4b"/>
     <use xlink:href="#Lato-Regular-65" transform="translate(68.100006 0)"/>
     <use xlink:href="#Lato-Regular-6d" transform="translate(120.500015 0)"/>
     <use xlink:href="#Lato-Regular-69" transform="translate(202.600021 0)"/>
     <use xlink:href="#Lato-Regular-20" transform="translate(228.200027 0)"/>
     <use xlink:href="#Lato-Regular-42" transform="translate(247.500031 0)"/>
     <use xlink:href="#Lato-Regular-61" transform="translate(312.200043 0)"/>
     <use xlink:href="#Lato-Regular-64" transform="translate(362.900055 0)"/>
     <use xlink:href="#Lato-Regular-65" transform="translate(418.800064 0)"/>
     <use xlink:href="#Lato-Regular-6e" transform="translate(471.200073 0)"/>
     <use xlink:href="#Lato-Regular-6f" transform="translate(526.800079 0)"/>
     <use xlink:href="#Lato-Regular-63" transform="translate(582.400085 0)"/>
     <use xlink:href="#Lato-Regular-68" transform="translate(629.100082 0)"/>
    </g>
   </g>
   <g id="text_16">
    <!-- Nigel Farage -->
    <g style="fill: #323034" transform="translate(508.028277 156.542731) scale(0.12 -0.12)">
     <defs>
      <path id="Lato-Regular-4e" d="M 877 4586 
Q 960 4586 1000 4565 
Q 1040 4544 1091 4480 
L 3747 1024 
Q 3738 1107 3734 1185 
Q 3731 1264 3731 1338 
L 3731 4586 
L 4275 4586 
L 4275 0 
L 3962 0 
Q 3888 0 3838 25 
Q 3789 51 3741 112 
L 1088 3565 
Q 1094 3485 1097 3408 
Q 1101 3331 1101 3267 
L 1101 0 
L 557 0 
L 557 4586 
L 877 4586 
L 877 4586 
z
" transform="scale(0.015625)"/>
      <path id="Lato-Regular-6c" d="M 1101 4714 
L 1101 0 
L 531 0 
L 531 4714 
L 1101 4714 
z
" transform="scale(0.015625)"/>
      <path id="Lato-Regular-72" d="M 467 0 
L 467 3242 
L 794 3242 
Q 886 3242 921 3206 
Q 957 3171 970 3085 
L 1008 2579 
Q 1174 2918 1419 3108 
Q 1664 3299 1994 3299 
Q 2128 3299 2237 3268 
Q 2346 3238 2438 3184 
L 2365 2758 
Q 2342 2678 2266 2678 
Q 2221 2678 2128 2708 
Q 2035 2739 1869 2739 
Q 1571 2739 1371 2566 
Q 1171 2394 1037 2064 
L 1037 0 
L 467 0 
z
" transform="scale(0.015625)"/>
     </defs>
     <use xlink:href="#Lato-Regular-4e"/>
     <use xlink:href="#Lato-Regular-69" transform="translate(75.600006 0)"/>
     <use xlink:href="#Lato-Regular-67" transform="translate(101.200012 0)"/>
     <use xlink:href="#Lato-Regular-65" transform="translate(152.300018 0)"/>
     <use xlink:href="#Lato-Regular-6c" transform="translate(204.700027 0)"/>
     <use xlink:href="#Lato-Regular-20" transform="translate(230.300034 0)"/>
     <use xlink:href="#Lato-Regular-46" transform="translate(249.600037 0)"/>
     <use xlink:href="#Lato-Regular-61" transform="translate(306.200043 0)"/>
     <use xlink:href="#Lato-Regular-72" transform="translate(356.900055 0)"/>
     <use xlink:href="#Lato-Regular-61" transform="translate(397.200058 0)"/>
     <use xlink:href="#Lato-Regular-67" transform="translate(447.90007 0)"/>
     <use xlink:href="#Lato-Regular-65" transform="translate(499.000076 0)"/>
    </g>
   </g>
   <g id="text_17">
    <!-- General election -->
    <g style="fill: #323034" transform="translate(153.903092 204.620063) rotate(-90) scale(0.09 -0.09)">
     <defs>
      <path id="Lato-Regular-47" d="M 2602 451 
Q 2787 451 2942 468 
Q 3098 486 3235 521 
Q 3373 557 3494 606 
Q 3616 656 3738 720 
L 3738 1731 
L 3027 1731 
Q 2966 1731 2929 1766 
Q 2893 1802 2893 1853 
L 2893 2205 
L 4301 2205 
L 4301 445 
Q 4128 320 3941 227 
Q 3754 134 3541 72 
Q 3328 10 3085 -20 
Q 2842 -51 2557 -51 
Q 2058 -51 1642 120 
Q 1226 291 925 600 
Q 624 909 456 1341 
Q 288 1773 288 2291 
Q 288 2816 453 3248 
Q 618 3680 923 3989 
Q 1229 4298 1662 4467 
Q 2096 4637 2634 4637 
Q 2906 4637 3139 4597 
Q 3373 4557 3573 4481 
Q 3773 4406 3942 4299 
Q 4112 4192 4259 4058 
L 4083 3776 
Q 4029 3690 3942 3690 
Q 3891 3690 3830 3725 
Q 3750 3770 3651 3834 
Q 3552 3898 3409 3957 
Q 3267 4016 3073 4057 
Q 2880 4099 2614 4099 
Q 2227 4099 1913 3972 
Q 1600 3846 1379 3611 
Q 1158 3376 1040 3041 
Q 922 2707 922 2291 
Q 922 1856 1045 1515 
Q 1168 1174 1392 937 
Q 1616 701 1923 576 
Q 2230 451 2602 451 
z
" transform="scale(0.015625)"/>
      <path id="Lato-Regular-74" d="M 1450 -51 
Q 1066 -51 859 163 
Q 653 378 653 781 
L 653 2765 
L 262 2765 
Q 211 2765 176 2795 
Q 141 2826 141 2890 
L 141 3117 
L 672 3184 
L 803 4186 
Q 810 4234 845 4264 
Q 880 4294 934 4294 
L 1222 4294 
L 1222 3178 
L 2150 3178 
L 2150 2765 
L 1222 2765 
L 1222 819 
Q 1222 614 1321 515 
Q 1421 416 1578 416 
Q 1667 416 1732 440 
Q 1798 464 1846 493 
Q 1894 522 1928 546 
Q 1962 570 1987 570 
Q 2032 570 2067 515 
L 2234 243 
Q 2086 106 1878 27 
Q 1670 -51 1450 -51 
z
" transform="scale(0.015625)"/>
     </defs>
     <use xlink:href="#Lato-Regular-47"/>
     <use xlink:href="#Lato-Regular-65" transform="translate(73.400009 0)"/>
     <use xlink:href="#Lato-Regular-6e" transform="translate(125.800018 0)"/>
     <use xlink:href="#Lato-Regular-65" transform="translate(181.400024 0)"/>
     <use xlink:href="#Lato-Regular-72" transform="translate(233.800034 0)"/>
     <use xlink:href="#Lato-Regular-61" transform="translate(274.100037 0)"/>
     <use xlink:href="#Lato-Regular-6c" transform="translate(324.800049 0)"/>
     <use xlink:href="#Lato-Regular-20" transform="translate(350.400055 0)"/>
     <use xlink:href="#Lato-Regular-65" transform="translate(369.700058 0)"/>
     <use xlink:href="#Lato-Regular-6c" transform="translate(422.100067 0)"/>
     <use xlink:href="#Lato-Regular-65" transform="translate(447.700073 0)"/>
     <use xlink:href="#Lato-Regular-63" transform="translate(500.100082 0)"/>
     <use xlink:href="#Lato-Regular-74" transform="translate(546.800079 0)"/>
     <use xlink:href="#Lato-Regular-69" transform="translate(584.100082 0)"/>
     <use xlink:href="#Lato-Regular-6f" transform="translate(609.700089 0)"/>
     <use xlink:href="#Lato-Regular-6e" transform="translate(665.300095 0)"/>
    </g>
   </g>
   <g id="text_18">
    <!-- www.aeturrell.com -->
    <g style="fill: #323034; opacity: 0.3" transform="translate(574.512129 336.044737) scale(0.07 -0.07)">
     <defs>
      <path id="Lato-Regular-77" d="M 45 3242 
L 493 3242 
Q 563 3242 608 3206 
Q 653 3171 669 3123 
L 1290 1037 
Q 1315 922 1337 814 
Q 1360 707 1376 598 
Q 1402 707 1434 814 
Q 1466 922 1501 1037 
L 2186 3136 
Q 2202 3184 2242 3216 
Q 2282 3248 2342 3248 
L 2589 3248 
Q 2653 3248 2694 3216 
Q 2736 3184 2752 3136 
L 3421 1037 
Q 3456 925 3483 816 
Q 3510 707 3536 602 
Q 3552 707 3577 822 
Q 3603 938 3632 1037 
L 4266 3123 
Q 4282 3174 4326 3208 
Q 4371 3242 4432 3242 
L 4861 3242 
L 3811 0 
L 3360 0 
Q 3277 0 3245 109 
L 2528 2307 
Q 2502 2381 2486 2456 
Q 2470 2531 2454 2605 
Q 2438 2531 2422 2454 
Q 2406 2378 2381 2304 
L 1654 109 
Q 1619 0 1523 0 
L 1094 0 
L 45 3242 
z
" transform="scale(0.015625)"/>
      <path id="Lato-Regular-2e" d="M 282 352 
Q 282 435 312 508 
Q 342 582 395 636 
Q 448 691 521 723 
Q 595 755 678 755 
Q 762 755 835 723 
Q 909 691 963 636 
Q 1018 582 1048 508 
Q 1078 435 1078 352 
Q 1078 266 1048 194 
Q 1018 122 963 67 
Q 909 13 835 -17 
Q 762 -48 678 -48 
Q 595 -48 521 -17 
Q 448 13 395 67 
Q 342 122 312 194 
Q 282 266 282 352 
z
" transform="scale(0.015625)"/>
     </defs>
     <use xlink:href="#Lato-Regular-77"/>
     <use xlink:href="#Lato-Regular-77" transform="translate(76.600006 0)"/>
     <use xlink:href="#Lato-Regular-77" transform="translate(153.200012 0)"/>
     <use xlink:href="#Lato-Regular-2e" transform="translate(229.800018 0)"/>
     <use xlink:href="#Lato-Regular-61" transform="translate(251.000015 0)"/>
     <use xlink:href="#Lato-Regular-65" transform="translate(301.700027 0)"/>
     <use xlink:href="#Lato-Regular-74" transform="translate(354.100037 0)"/>
     <use xlink:href="#Lato-Regular-75" transform="translate(391.40004 0)"/>
     <use xlink:href="#Lato-Regular-72" transform="translate(447.000046 0)"/>
     <use xlink:href="#Lato-Regular-72" transform="translate(487.300049 0)"/>
     <use xlink:href="#Lato-Regular-65" transform="translate(527.600052 0)"/>
     <use xlink:href="#Lato-Regular-6c" transform="translate(580.000061 0)"/>
     <use xlink:href="#Lato-Regular-6c" transform="translate(605.600067 0)"/>
     <use xlink:href="#Lato-Regular-2e" transform="translate(631.200073 0)"/>
     <use xlink:href="#Lato-Regular-63" transform="translate(652.40007 0)"/>
     <use xlink:href="#Lato-Regular-6f" transform="translate(699.100067 0)"/>
     <use xlink:href="#Lato-Regular-6d" transform="translate(754.700073 0)"/>
    </g>
    <!-- Source: GDELT -->
    <g style="fill: #323034; opacity: 0.3" transform="translate(574.512129 343.4328) scale(0.07 -0.07)">
     <defs>
      <path id="Lato-Regular-53" d="M 2906 3869 
Q 2877 3821 2845 3797 
Q 2813 3773 2762 3773 
Q 2707 3773 2635 3827 
Q 2563 3882 2452 3947 
Q 2342 4013 2187 4067 
Q 2032 4122 1811 4122 
Q 1603 4122 1443 4066 
Q 1283 4010 1176 3914 
Q 1069 3818 1014 3688 
Q 960 3558 960 3408 
Q 960 3216 1054 3089 
Q 1149 2963 1304 2873 
Q 1459 2784 1656 2718 
Q 1853 2653 2059 2582 
Q 2266 2512 2462 2424 
Q 2659 2336 2814 2201 
Q 2970 2067 3064 1872 
Q 3158 1677 3158 1392 
Q 3158 1091 3056 827 
Q 2954 563 2757 368 
Q 2560 173 2273 61 
Q 1987 -51 1622 -51 
Q 1178 -51 811 110 
Q 445 272 186 547 
L 365 842 
Q 390 877 427 901 
Q 464 925 509 925 
Q 576 925 662 853 
Q 749 781 878 694 
Q 1008 608 1192 536 
Q 1376 464 1642 464 
Q 1862 464 2035 525 
Q 2208 586 2328 696 
Q 2448 806 2512 960 
Q 2576 1114 2576 1302 
Q 2576 1510 2481 1643 
Q 2387 1776 2233 1865 
Q 2080 1955 1883 2017 
Q 1686 2080 1480 2145 
Q 1274 2211 1077 2297 
Q 880 2384 726 2521 
Q 573 2659 478 2865 
Q 384 3072 384 3376 
Q 384 3619 478 3846 
Q 573 4074 752 4250 
Q 931 4426 1195 4531 
Q 1459 4637 1802 4637 
Q 2186 4637 2502 4515 
Q 2819 4394 3056 4163 
L 2906 3869 
z
" transform="scale(0.015625)"/>
      <path id="Lato-Regular-3a" d="M 410 352 
Q 410 435 440 508 
Q 470 582 523 636 
Q 576 691 649 723 
Q 723 755 806 755 
Q 890 755 963 723 
Q 1037 691 1091 636 
Q 1146 582 1176 508 
Q 1206 435 1206 352 
Q 1206 266 1176 194 
Q 1146 122 1091 67 
Q 1037 13 963 -17 
Q 890 -48 806 -48 
Q 723 -48 649 -17 
Q 576 13 523 67 
Q 470 122 440 194 
Q 410 266 410 352 
z
M 410 2752 
Q 410 2835 440 2908 
Q 470 2982 523 3036 
Q 576 3091 649 3123 
Q 723 3155 806 3155 
Q 890 3155 963 3123 
Q 1037 3091 1091 3036 
Q 1146 2982 1176 2908 
Q 1206 2835 1206 2752 
Q 1206 2666 1176 2594 
Q 1146 2522 1091 2467 
Q 1037 2413 963 2382 
Q 890 2352 806 2352 
Q 723 2352 649 2382 
Q 576 2413 523 2467 
Q 470 2522 440 2594 
Q 410 2666 410 2752 
z
" transform="scale(0.015625)"/>
      <path id="Lato-Regular-4c" d="M 1178 522 
L 3162 522 
L 3162 0 
L 557 0 
L 557 4586 
L 1178 4586 
L 1178 522 
z
" transform="scale(0.015625)"/>
      <path id="Lato-Regular-54" d="M 3680 4586 
L 3680 4064 
L 2198 4064 
L 2198 0 
L 1578 0 
L 1578 4064 
L 90 4064 
L 90 4586 
L 3680 4586 
z
" transform="scale(0.015625)"/>
     </defs>
     <use xlink:href="#Lato-Regular-53"/>
     <use xlink:href="#Lato-Regular-6f" transform="translate(53 0)"/>
     <use xlink:href="#Lato-Regular-75" transform="translate(108.600006 0)"/>
     <use xlink:href="#Lato-Regular-72" transform="translate(164.200012 0)"/>
     <use xlink:href="#Lato-Regular-63" transform="translate(204.500015 0)"/>
     <use xlink:href="#Lato-Regular-65" transform="translate(251.200012 0)"/>
     <use xlink:href="#Lato-Regular-3a" transform="translate(303.600021 0)"/>
     <use xlink:href="#Lato-Regular-20" transform="translate(328.800018 0)"/>
     <use xlink:href="#Lato-Regular-47" transform="translate(348.100021 0)"/>
     <use xlink:href="#Lato-Regular-44" transform="translate(421.500031 0)"/>
     <use xlink:href="#Lato-Regular-45" transform="translate(496.800049 0)"/>
     <use xlink:href="#Lato-Regular-4c" transform="translate(554.900055 0)"/>
     <use xlink:href="#Lato-Regular-54" transform="translate(606.300064 0)"/>
    </g>
   </g>
   <g id="text_19">
    <!-- Mentions -->
    <g style="fill: #323034" transform="translate(589.795083 70.75488) scale(0.14 -0.14)">
     <defs>
      <path id="Lato-Italic-4d" d="M 2624 1600 
Q 2643 1533 2660 1470 
Q 2678 1408 2694 1341 
Q 2752 1475 2829 1600 
L 4630 4483 
Q 4675 4557 4721 4571 
Q 4768 4586 4848 4586 
L 5293 4586 
L 4730 0 
L 4205 0 
L 4624 3389 
Q 4630 3453 4644 3526 
Q 4659 3600 4675 3680 
L 2893 806 
Q 2810 669 2659 669 
L 2576 669 
Q 2429 669 2374 806 
L 1270 3686 
Q 1267 3610 1264 3536 
Q 1261 3462 1254 3398 
L 838 0 
L 310 0 
L 877 4586 
L 1315 4586 
Q 1395 4586 1441 4571 
Q 1488 4557 1514 4483 
L 2624 1600 
L 2624 1600 
z
" transform="scale(0.015625)"/>
      <path id="Lato-Italic-65" d="M 2819 2547 
Q 2819 2336 2732 2158 
Q 2646 1981 2416 1838 
Q 2186 1696 1782 1590 
Q 1379 1485 746 1421 
Q 742 1386 742 1352 
Q 742 1318 742 1283 
Q 742 854 929 628 
Q 1117 403 1494 403 
Q 1648 403 1768 435 
Q 1888 467 1982 513 
Q 2077 560 2149 616 
Q 2221 672 2281 718 
Q 2342 765 2393 797 
Q 2445 829 2496 829 
Q 2554 829 2602 774 
L 2742 598 
Q 2579 429 2424 309 
Q 2269 189 2105 109 
Q 1942 29 1764 -8 
Q 1587 -45 1382 -45 
Q 1104 -45 883 48 
Q 662 141 508 312 
Q 355 483 272 726 
Q 189 970 189 1270 
Q 189 1520 241 1768 
Q 294 2016 395 2240 
Q 496 2464 641 2656 
Q 787 2848 974 2987 
Q 1162 3126 1387 3206 
Q 1613 3286 1872 3286 
Q 2118 3286 2297 3216 
Q 2477 3146 2592 3037 
Q 2707 2928 2763 2797 
Q 2819 2666 2819 2547 
z
M 1840 2877 
Q 1638 2877 1468 2793 
Q 1299 2710 1168 2564 
Q 1037 2419 944 2222 
Q 851 2026 800 1798 
Q 1293 1859 1590 1937 
Q 1888 2016 2048 2107 
Q 2208 2198 2259 2304 
Q 2310 2410 2310 2525 
Q 2310 2582 2284 2644 
Q 2259 2707 2203 2758 
Q 2147 2810 2057 2843 
Q 1968 2877 1840 2877 
z
" transform="scale(0.015625)"/>
      <path id="Lato-Italic-6e" d="M 227 0 
L 614 3245 
L 899 3245 
Q 1091 3245 1091 3053 
L 1043 2426 
Q 1302 2854 1627 3072 
Q 1952 3290 2301 3290 
Q 2662 3290 2862 3046 
Q 3062 2803 3062 2336 
Q 3062 2272 3059 2205 
Q 3056 2138 3046 2064 
L 2803 0 
L 2234 0 
L 2477 2064 
Q 2483 2128 2488 2187 
Q 2493 2246 2493 2301 
Q 2493 2563 2395 2689 
Q 2298 2816 2090 2816 
Q 1936 2816 1777 2733 
Q 1619 2650 1472 2498 
Q 1325 2346 1198 2130 
Q 1072 1914 982 1648 
L 797 0 
L 227 0 
z
" transform="scale(0.015625)"/>
      <path id="Lato-Italic-74" d="M 509 611 
Q 509 630 510 660 
Q 512 691 517 748 
Q 522 806 531 899 
Q 541 992 560 1142 
L 762 2765 
L 400 2765 
Q 358 2765 331 2789 
Q 304 2813 304 2864 
Q 304 2874 307 2902 
Q 310 2931 315 2968 
Q 320 3005 325 3043 
Q 330 3082 333 3117 
L 832 3184 
L 1072 4186 
Q 1085 4234 1120 4264 
Q 1155 4294 1206 4294 
L 1507 4294 
L 1366 3178 
L 2218 3178 
L 2170 2765 
L 1315 2765 
L 1120 1171 
Q 1104 1040 1096 960 
Q 1088 880 1083 832 
Q 1078 784 1076 765 
Q 1075 746 1075 736 
Q 1075 573 1150 494 
Q 1226 416 1357 416 
Q 1440 416 1504 440 
Q 1568 464 1614 493 
Q 1661 522 1693 546 
Q 1725 570 1750 570 
Q 1776 570 1790 557 
Q 1805 544 1821 515 
L 1939 243 
Q 1786 106 1586 27 
Q 1386 -51 1184 -51 
Q 874 -51 694 118 
Q 515 288 509 611 
z
" transform="scale(0.015625)"/>
      <path id="Lato-Italic-69" d="M 1254 3242 
L 864 0 
L 304 0 
L 694 3242 
L 1254 3242 
z
M 1469 4259 
Q 1469 4176 1435 4104 
Q 1402 4032 1346 3976 
Q 1290 3920 1219 3888 
Q 1149 3856 1072 3856 
Q 998 3856 928 3888 
Q 858 3920 805 3976 
Q 752 4032 720 4104 
Q 688 4176 688 4259 
Q 688 4342 720 4416 
Q 752 4490 806 4546 
Q 861 4602 931 4635 
Q 1002 4669 1075 4669 
Q 1152 4669 1222 4637 
Q 1293 4605 1349 4549 
Q 1405 4493 1437 4417 
Q 1469 4342 1469 4259 
z
" transform="scale(0.015625)"/>
      <path id="Lato-Italic-6f" d="M 1434 400 
Q 1667 400 1859 528 
Q 2051 656 2185 869 
Q 2320 1082 2393 1360 
Q 2467 1638 2467 1942 
Q 2467 2390 2291 2617 
Q 2115 2845 1782 2845 
Q 1546 2845 1355 2718 
Q 1165 2592 1030 2379 
Q 896 2166 822 1888 
Q 749 1610 749 1306 
Q 749 858 923 629 
Q 1098 400 1434 400 
z
M 1382 -45 
Q 1117 -45 896 46 
Q 675 138 515 310 
Q 355 483 265 732 
Q 176 982 176 1302 
Q 176 1712 304 2073 
Q 432 2435 654 2707 
Q 877 2979 1179 3136 
Q 1482 3293 1834 3293 
Q 2099 3293 2320 3201 
Q 2541 3110 2701 2937 
Q 2861 2765 2950 2513 
Q 3040 2262 3040 1946 
Q 3040 1539 2912 1177 
Q 2784 816 2561 544 
Q 2339 272 2035 113 
Q 1731 -45 1382 -45 
z
" transform="scale(0.015625)"/>
      <path id="Lato-Italic-73" d="M 2314 2723 
Q 2288 2685 2262 2667 
Q 2237 2650 2198 2650 
Q 2154 2650 2101 2685 
Q 2048 2720 1973 2763 
Q 1898 2806 1789 2843 
Q 1680 2880 1526 2880 
Q 1382 2880 1264 2840 
Q 1146 2800 1059 2729 
Q 973 2659 926 2564 
Q 880 2470 880 2365 
Q 880 2214 979 2124 
Q 1078 2035 1228 1969 
Q 1379 1904 1553 1843 
Q 1728 1782 1878 1689 
Q 2029 1597 2128 1453 
Q 2227 1309 2227 1078 
Q 2227 854 2139 649 
Q 2051 445 1886 289 
Q 1722 134 1490 41 
Q 1258 -51 970 -51 
Q 659 -51 420 59 
Q 182 170 32 342 
L 173 560 
Q 198 602 233 624 
Q 269 646 323 646 
Q 374 646 425 601 
Q 477 557 553 501 
Q 630 445 747 400 
Q 864 355 1043 355 
Q 1200 355 1326 403 
Q 1453 451 1541 531 
Q 1629 611 1675 718 
Q 1722 826 1722 947 
Q 1722 1110 1622 1206 
Q 1523 1302 1372 1366 
Q 1222 1430 1049 1486 
Q 877 1542 726 1630 
Q 576 1718 477 1859 
Q 378 2000 378 2234 
Q 378 2438 459 2628 
Q 541 2819 694 2966 
Q 848 3114 1067 3202 
Q 1286 3290 1562 3290 
Q 1853 3290 2075 3192 
Q 2298 3094 2458 2928 
L 2314 2723 
z
" transform="scale(0.015625)"/>
     </defs>
     <use xlink:href="#Lato-Italic-4d"/>
     <use xlink:href="#Lato-Italic-65" transform="translate(84.800018 0)"/>
     <use xlink:href="#Lato-Italic-6e" transform="translate(130.900024 0)"/>
     <use xlink:href="#Lato-Italic-74" transform="translate(183.500031 0)"/>
     <use xlink:href="#Lato-Italic-69" transform="translate(217.750031 0)"/>
     <use xlink:href="#Lato-Italic-6f" transform="translate(242.100037 0)"/>
     <use xlink:href="#Lato-Italic-6e" transform="translate(292.350037 0)"/>
     <use xlink:href="#Lato-Italic-73" transform="translate(344.950043 0)"/>
    </g>
   </g>
  </g>
  <g id="text_20">
   <!-- Nigel Farage receives more media mentions than other opposition party -->
   <g style="fill: #323034" transform="translate(19.44 49.258125) scale(0.18 -0.18)">
    <defs>
     <path id="Lato-Regular-73" d="M 2323 2707 
Q 2285 2637 2205 2637 
Q 2157 2637 2096 2672 
Q 2035 2707 1947 2750 
Q 1859 2794 1737 2830 
Q 1616 2867 1450 2867 
Q 1306 2867 1190 2830 
Q 1075 2794 993 2730 
Q 912 2666 869 2581 
Q 826 2496 826 2397 
Q 826 2272 898 2189 
Q 970 2106 1088 2045 
Q 1206 1984 1356 1937 
Q 1507 1891 1665 1838 
Q 1824 1786 1974 1722 
Q 2125 1658 2243 1562 
Q 2362 1466 2434 1326 
Q 2506 1187 2506 992 
Q 2506 768 2426 577 
Q 2346 387 2189 248 
Q 2032 109 1805 29 
Q 1578 -51 1280 -51 
Q 941 -51 665 59 
Q 390 170 198 342 
L 333 560 
Q 358 602 393 624 
Q 429 646 486 646 
Q 544 646 608 601 
Q 672 557 763 502 
Q 854 448 984 403 
Q 1114 358 1309 358 
Q 1475 358 1600 401 
Q 1725 445 1808 518 
Q 1891 592 1931 688 
Q 1971 784 1971 893 
Q 1971 1027 1899 1115 
Q 1827 1203 1708 1265 
Q 1590 1328 1438 1374 
Q 1286 1421 1128 1472 
Q 970 1523 818 1588 
Q 666 1654 547 1753 
Q 429 1853 357 1998 
Q 285 2144 285 2352 
Q 285 2538 361 2709 
Q 438 2880 585 3009 
Q 733 3139 947 3216 
Q 1162 3293 1437 3293 
Q 1757 3293 2011 3192 
Q 2266 3091 2451 2915 
L 2323 2707 
z
" transform="scale(0.015625)"/>
     <path id="Lato-Regular-70" d="M 467 -1098 
L 467 3242 
L 806 3242 
Q 928 3242 960 3123 
L 1008 2739 
Q 1216 2992 1483 3145 
Q 1750 3299 2099 3299 
Q 2378 3299 2605 3192 
Q 2832 3085 2992 2875 
Q 3152 2666 3238 2355 
Q 3325 2045 3325 1642 
Q 3325 1283 3229 974 
Q 3133 666 2953 440 
Q 2774 214 2513 84 
Q 2253 -45 1926 -45 
Q 1626 -45 1413 54 
Q 1200 154 1037 336 
L 1037 -1098 
L 467 -1098 
z
M 1910 2838 
Q 1632 2838 1422 2710 
Q 1213 2582 1037 2349 
L 1037 781 
Q 1194 570 1381 483 
Q 1568 397 1798 397 
Q 2250 397 2493 720 
Q 2736 1043 2736 1642 
Q 2736 1958 2680 2185 
Q 2624 2413 2518 2558 
Q 2413 2704 2259 2771 
Q 2106 2838 1910 2838 
z
" transform="scale(0.015625)"/>
    </defs>
    <use xlink:href="#Lato-Regular-4e"/>
    <use xlink:href="#Lato-Regular-69" transform="translate(75.600006 0)"/>
    <use xlink:href="#Lato-Regular-67" transform="translate(101.200012 0)"/>
    <use xlink:href="#Lato-Regular-65" transform="translate(152.300018 0)"/>
    <use xlink:href="#Lato-Regular-6c" transform="translate(204.700027 0)"/>
    <use xlink:href="#Lato-Regular-20" transform="translate(230.300034 0)"/>
    <use xlink:href="#Lato-Regular-46" transform="translate(249.600037 0)"/>
    <use xlink:href="#Lato-Regular-61" transform="translate(306.200043 0)"/>
    <use xlink:href="#Lato-Regular-72" transform="translate(356.900055 0)"/>
    <use xlink:href="#Lato-Regular-61" transform="translate(397.200058 0)"/>
    <use xlink:href="#Lato-Regular-67" transform="translate(447.90007 0)"/>
    <use xlink:href="#Lato-Regular-65" transform="translate(499.000076 0)"/>
    <use xlink:href="#Lato-Regular-20" transform="translate(551.400085 0)"/>
    <use xlink:href="#Lato-Regular-72" transform="translate(570.700089 0)"/>
    <use xlink:href="#Lato-Regular-65" transform="translate(611.000092 0)"/>
    <use xlink:href="#Lato-Regular-63" transform="translate(663.400101 0)"/>
    <use xlink:href="#Lato-Regular-65" transform="translate(710.100098 0)"/>
    <use xlink:href="#Lato-Regular-69" transform="translate(762.500107 0)"/>
    <use xlink:href="#Lato-Regular-76" transform="translate(788.100113 0)"/>
    <use xlink:href="#Lato-Regular-65" transform="translate(839.300125 0)"/>
    <use xlink:href="#Lato-Regular-73" transform="translate(891.700134 0)"/>
    <use xlink:href="#Lato-Regular-20" transform="translate(935.100143 0)"/>
    <use xlink:href="#Lato-Regular-6d" transform="translate(954.400146 0)"/>
    <use xlink:href="#Lato-Regular-6f" transform="translate(1036.500153 0)"/>
    <use xlink:href="#Lato-Regular-72" transform="translate(1092.100159 0)"/>
    <use xlink:href="#Lato-Regular-65" transform="translate(1132.400162 0)"/>
    <use xlink:href="#Lato-Regular-20" transform="translate(1184.800171 0)"/>
    <use xlink:href="#Lato-Regular-6d" transform="translate(1204.100174 0)"/>
    <use xlink:href="#Lato-Regular-65" transform="translate(1286.20018 0)"/>
    <use xlink:href="#Lato-Regular-64" transform="translate(1338.600189 0)"/>
    <use xlink:href="#Lato-Regular-69" transform="translate(1394.500198 0)"/>
    <use xlink:href="#Lato-Regular-61" transform="translate(1420.100204 0)"/>
    <use xlink:href="#Lato-Regular-20" transform="translate(1470.800217 0)"/>
    <use xlink:href="#Lato-Regular-6d" transform="translate(1490.10022 0)"/>
    <use xlink:href="#Lato-Regular-65" transform="translate(1572.200226 0)"/>
    <use xlink:href="#Lato-Regular-6e" transform="translate(1624.600235 0)"/>
    <use xlink:href="#Lato-Regular-74" transform="translate(1680.200241 0)"/>
    <use xlink:href="#Lato-Regular-69" transform="translate(1717.500244 0)"/>
    <use xlink:href="#Lato-Regular-6f" transform="translate(1743.10025 0)"/>
    <use xlink:href="#Lato-Regular-6e" transform="translate(1798.700256 0)"/>
    <use xlink:href="#Lato-Regular-73" transform="translate(1854.300262 0)"/>
    <use xlink:href="#Lato-Regular-20" transform="translate(1897.700272 0)"/>
    <use xlink:href="#Lato-Regular-74" transform="translate(1917.000275 0)"/>
    <use xlink:href="#Lato-Regular-68" transform="translate(1954.300278 0)"/>
    <use xlink:href="#Lato-Regular-61" transform="translate(2009.900284 0)"/>
    <use xlink:href="#Lato-Regular-6e" transform="translate(2060.600296 0)"/>
    <use xlink:href="#Lato-Regular-20" transform="translate(2116.200302 0)"/>
    <use xlink:href="#Lato-Regular-6f" transform="translate(2135.500305 0)"/>
    <use xlink:href="#Lato-Regular-74" transform="translate(2191.100311 0)"/>
    <use xlink:href="#Lato-Regular-68" transform="translate(2228.400314 0)"/>
    <use xlink:href="#Lato-Regular-65" transform="translate(2284.00032 0)"/>
    <use xlink:href="#Lato-Regular-72" transform="translate(2336.40033 0)"/>
    <use xlink:href="#Lato-Regular-20" transform="translate(2376.700333 0)"/>
    <use xlink:href="#Lato-Regular-6f" transform="translate(2396.000336 0)"/>
    <use xlink:href="#Lato-Regular-70" transform="translate(2451.600342 0)"/>
    <use xlink:href="#Lato-Regular-70" transform="translate(2506.800354 0)"/>
    <use xlink:href="#Lato-Regular-6f" transform="translate(2562.000366 0)"/>
    <use xlink:href="#Lato-Regular-73" transform="translate(2617.600372 0)"/>
    <use xlink:href="#Lato-Regular-69" transform="translate(2661.000381 0)"/>
    <use xlink:href="#Lato-Regular-74" transform="translate(2686.600388 0)"/>
    <use xlink:href="#Lato-Regular-69" transform="translate(2723.900391 0)"/>
    <use xlink:href="#Lato-Regular-6f" transform="translate(2749.500397 0)"/>
    <use xlink:href="#Lato-Regular-6e" transform="translate(2805.100403 0)"/>
    <use xlink:href="#Lato-Regular-20" transform="translate(2860.700409 0)"/>
    <use xlink:href="#Lato-Regular-70" transform="translate(2880.000412 0)"/>
    <use xlink:href="#Lato-Regular-61" transform="translate(2935.200424 0)"/>
    <use xlink:href="#Lato-Regular-72" transform="translate(2985.900436 0)"/>
    <use xlink:href="#Lato-Regular-74" transform="translate(3026.200439 0)"/>
    <use xlink:href="#Lato-Regular-79" transform="translate(3063.500443 0)"/>
   </g>
   <!-- leaders, despite having fewer MPs -->
   <g style="fill: #323034" transform="translate(19.44 68.452875) scale(0.18 -0.18)">
    <defs>
     <path id="Lato-Regular-2c" d="M 301 394 
Q 301 467 328 532 
Q 355 598 404 648 
Q 454 698 524 726 
Q 595 755 678 755 
Q 774 755 849 720 
Q 925 685 974 622 
Q 1024 560 1049 478 
Q 1075 397 1075 301 
Q 1075 157 1033 1 
Q 992 -154 915 -306 
Q 838 -458 724 -602 
Q 611 -746 467 -867 
L 371 -774 
Q 330 -736 330 -685 
Q 330 -643 374 -598 
Q 406 -563 456 -504 
Q 506 -445 557 -368 
Q 608 -291 651 -198 
Q 694 -106 714 0 
L 672 0 
Q 589 0 521 29 
Q 454 58 404 110 
Q 355 163 328 235 
Q 301 307 301 394 
z
" transform="scale(0.015625)"/>
     <path id="Lato-Regular-66" d="M 595 0 
L 595 2755 
L 237 2797 
Q 170 2813 126 2846 
Q 83 2880 83 2944 
L 83 3178 
L 595 3178 
L 595 3491 
Q 595 3770 673 3986 
Q 752 4202 897 4350 
Q 1043 4499 1248 4576 
Q 1453 4653 1709 4653 
Q 1926 4653 2112 4589 
L 2099 4304 
Q 2096 4240 2045 4227 
Q 1994 4214 1901 4214 
L 1802 4214 
Q 1654 4214 1534 4176 
Q 1414 4138 1328 4051 
Q 1242 3965 1195 3824 
Q 1149 3683 1149 3475 
L 1149 3178 
L 2086 3178 
L 2086 2765 
L 1168 2765 
L 1168 0 
L 595 0 
z
" transform="scale(0.015625)"/>
     <path id="Lato-Regular-4d" d="M 2813 1658 
Q 2858 1581 2891 1496 
Q 2925 1411 2957 1325 
Q 2989 1414 3024 1496 
Q 3059 1578 3104 1661 
L 4656 4480 
Q 4698 4554 4742 4570 
Q 4787 4586 4870 4586 
L 5328 4586 
L 5328 0 
L 4784 0 
L 4784 3370 
Q 4784 3437 4787 3513 
Q 4790 3590 4797 3670 
L 3226 803 
Q 3146 659 3002 659 
L 2912 659 
Q 2768 659 2688 803 
L 1082 3680 
Q 1091 3597 1096 3517 
Q 1101 3437 1101 3370 
L 1101 0 
L 557 0 
L 557 4586 
L 1014 4586 
Q 1098 4586 1142 4570 
Q 1187 4554 1229 4480 
L 2813 1658 
L 2813 1658 
z
" transform="scale(0.015625)"/>
     <path id="Lato-Regular-50" d="M 1238 1715 
L 1238 0 
L 621 0 
L 621 4586 
L 1974 4586 
Q 2410 4586 2731 4485 
Q 3053 4384 3264 4198 
Q 3475 4013 3579 3750 
Q 3683 3488 3683 3165 
Q 3683 2845 3571 2579 
Q 3459 2314 3243 2122 
Q 3027 1930 2707 1822 
Q 2387 1715 1974 1715 
L 1238 1715 
z
M 1238 2208 
L 1974 2208 
Q 2240 2208 2443 2278 
Q 2646 2349 2784 2475 
Q 2922 2602 2992 2778 
Q 3062 2954 3062 3165 
Q 3062 3603 2792 3849 
Q 2522 4096 1974 4096 
L 1238 4096 
L 1238 2208 
z
" transform="scale(0.015625)"/>
    </defs>
    <use xlink:href="#Lato-Regular-6c"/>
    <use xlink:href="#Lato-Regular-65" transform="translate(25.600006 0)"/>
    <use xlink:href="#Lato-Regular-61" transform="translate(78.000015 0)"/>
    <use xlink:href="#Lato-Regular-64" transform="translate(128.700027 0)"/>
    <use xlink:href="#Lato-Regular-65" transform="translate(184.600037 0)"/>
    <use xlink:href="#Lato-Regular-72" transform="translate(237.000046 0)"/>
    <use xlink:href="#Lato-Regular-73" transform="translate(277.300049 0)"/>
    <use xlink:href="#Lato-Regular-2c" transform="translate(320.700058 0)"/>
    <use xlink:href="#Lato-Regular-20" transform="translate(341.900055 0)"/>
    <use xlink:href="#Lato-Regular-64" transform="translate(361.200058 0)"/>
    <use xlink:href="#Lato-Regular-65" transform="translate(417.100067 0)"/>
    <use xlink:href="#Lato-Regular-73" transform="translate(469.500076 0)"/>
    <use xlink:href="#Lato-Regular-70" transform="translate(512.900085 0)"/>
    <use xlink:href="#Lato-Regular-69" transform="translate(568.100098 0)"/>
    <use xlink:href="#Lato-Regular-74" transform="translate(593.700104 0)"/>
    <use xlink:href="#Lato-Regular-65" transform="translate(631.000107 0)"/>
    <use xlink:href="#Lato-Regular-20" transform="translate(683.400116 0)"/>
    <use xlink:href="#Lato-Regular-68" transform="translate(702.700119 0)"/>
    <use xlink:href="#Lato-Regular-61" transform="translate(758.300125 0)"/>
    <use xlink:href="#Lato-Regular-76" transform="translate(809.000137 0)"/>
    <use xlink:href="#Lato-Regular-69" transform="translate(860.20015 0)"/>
    <use xlink:href="#Lato-Regular-6e" transform="translate(885.800156 0)"/>
    <use xlink:href="#Lato-Regular-67" transform="translate(941.400162 0)"/>
    <use xlink:href="#Lato-Regular-20" transform="translate(992.500168 0)"/>
    <use xlink:href="#Lato-Regular-66" transform="translate(1011.800171 0)"/>
    <use xlink:href="#Lato-Regular-65" transform="translate(1045.500168 0)"/>
    <use xlink:href="#Lato-Regular-77" transform="translate(1097.900177 0)"/>
    <use xlink:href="#Lato-Regular-65" transform="translate(1174.500183 0)"/>
    <use xlink:href="#Lato-Regular-72" transform="translate(1226.900192 0)"/>
    <use xlink:href="#Lato-Regular-20" transform="translate(1267.200195 0)"/>
    <use xlink:href="#Lato-Regular-4d" transform="translate(1286.500198 0)"/>
    <use xlink:href="#Lato-Regular-50" transform="translate(1378.500214 0)"/>
    <use xlink:href="#Lato-Regular-73" transform="translate(1439.60022 0)"/>
   </g>
  </g>
 </g>
 <defs>
  <clipPath id="pc847bae2b2">
   <rect x="28.112571" y="86.112" width="575.157429" height="233.928"/>
  </clipPath>
 </defs>
</svg>
