<?xml version="1.0" encoding="utf-8" standalone="no"?>
<!DOCTYPE svg PUBLIC "-//W3C//DTD SVG 1.1//EN"
  "http://www.w3.org/Graphics/SVG/1.1/DTD/svg11.dtd">
<svg xmlns:xlink="http://www.w3.org/1999/xlink" width="483.8pt" height="328.171pt" viewBox="0 0 483.8 328.171" xmlns="http://www.w3.org/2000/svg" version="1.1">
 <metadata>
  <rdf:RDF xmlns:dc="http://purl.org/dc/elements/1.1/" xmlns:cc="http://creativecommons.org/ns#" xmlns:rdf="http://www.w3.org/1999/02/22-rdf-syntax-ns#">
   <cc:Work>
    <dc:type rdf:resource="http://purl.org/dc/dcmitype/StillImage"/>
    <dc:date>2025-01-01T21:08:52.881329</dc:date>
    <dc:format>image/svg+xml</dc:format>
    <dc:creator>
     <cc:Agent>
      <dc:title>Matplotlib v3.9.3, https://matplotlib.org/</dc:title>
     </cc:Agent>
    </dc:creator>
   </cc:Work>
  </rdf:RDF>
 </metadata>
 <defs>
  <style type="text/css">*{stroke-linejoin: round; stroke-linecap: butt}</style>
 </defs>
 <g id="figure_1">
  <g id="patch_1">
   <path d="M 0 328.171 
L 483.8 328.171 
L 483.8 0 
L 0 0 
z
" style="fill: #ffffff"/>
  </g>
  <g id="axes_1">
   <g id="patch_2">
    <path d="M 7.2 266.4 
L 453.6 266.4 
L 453.6 44.64 
L 7.2 44.64 
z
" style="fill: #ffffff"/>
   </g>
   <g id="patch_3">
    <path d="M 16.128 266.4 
L 87.552 266.4 
L 87.552 236.635543 
L 16.128 236.635543 
z
" clip-path="url(#pc0d3a8e50d)" style="fill: #b588b5; stroke: #000000; stroke-width: 0.8; stroke-linejoin: miter"/>
   </g>
   <g id="patch_4">
    <path d="M 105.408 266.4 
L 176.832 266.4 
L 176.832 169.179816 
L 105.408 169.179816 
z
" clip-path="url(#pc0d3a8e50d)" style="fill: #b588b5; stroke: #000000; stroke-width: 0.8; stroke-linejoin: miter"/>
   </g>
   <g id="patch_5">
    <path d="M 194.688 266.4 
L 266.112 266.4 
L 266.112 161.601371 
L 194.688 161.601371 
z
" clip-path="url(#pc0d3a8e50d)" style="fill: #b588b5; stroke: #000000; stroke-width: 0.8; stroke-linejoin: miter"/>
   </g>
   <g id="patch_6">
    <path d="M 283.968 266.4 
L 355.392 266.4 
L 355.392 151.534426 
L 283.968 151.534426 
z
" clip-path="url(#pc0d3a8e50d)" style="fill: #b588b5; stroke: #000000; stroke-width: 0.8; stroke-linejoin: miter"/>
   </g>
   <g id="patch_7">
    <path d="M 373.248 266.4 
L 444.672 266.4 
L 444.672 58.852542 
L 373.248 58.852542 
z
" clip-path="url(#pc0d3a8e50d)" style="fill: #b588b5; stroke: #000000; stroke-width: 0.8; stroke-linejoin: miter"/>
   </g>
   <g id="matplotlib.axis_1">
    <g id="xtick_1">
     <g id="line2d_1">
      <defs>
       <path id="mca5ae3e6ec" d="M 0 0 
L 0 3.5 
" style="stroke: #323034; stroke-width: 0.8"/>
      </defs>
      <g>
       <use xlink:href="#mca5ae3e6ec" x="51.84" y="266.4" style="fill: #323034; stroke: #323034; stroke-width: 0.8"/>
      </g>
     </g>
     <g id="text_1">
      <!-- India -->
      <g style="fill: #323034" transform="translate(35.4 284.3275) scale(0.16 -0.16)">
       <defs>
        <path id="STIXGeneral-Regular-49" d="M 2016 0 
L 2016 122 
C 1491 141 1389 237 1389 717 
L 1389 3526 
C 1389 4013 1478 4090 2016 4115 
L 2016 4237 
L 115 4237 
L 115 4115 
C 659 4083 736 4032 736 3526 
L 736 717 
C 736 218 653 141 115 122 
L 115 0 
L 2016 0 
z
" transform="scale(0.015625)"/>
        <path id="STIXGeneral-Regular-6e" d="M 3104 0 
L 3104 96 
C 2790 128 2714 198 2714 544 
L 2714 1958 
C 2714 2592 2445 2944 1958 2944 
C 1664 2944 1370 2803 1037 2426 
L 1030 2426 
L 1030 2925 
L 979 2944 
C 666 2829 454 2758 102 2656 
L 102 2547 
C 147 2566 218 2573 288 2573 
C 467 2573 512 2470 512 2157 
L 512 602 
C 512 224 442 122 115 96 
L 115 0 
L 1466 0 
L 1466 96 
C 1139 122 1050 211 1050 461 
L 1050 2227 
C 1344 2515 1498 2592 1709 2592 
C 2022 2592 2176 2400 2176 1946 
L 2176 672 
C 2176 250 2099 122 1779 96 
L 1773 0 
L 3104 0 
z
" transform="scale(0.015625)"/>
        <path id="STIXGeneral-Regular-64" d="M 3142 269 
L 3142 371 
C 3034 365 3027 365 2995 365 
C 2765 365 2714 435 2714 730 
L 2714 4358 
L 2682 4371 
C 2374 4262 2150 4198 1741 4090 
L 1741 3987 
C 1792 3994 1830 3994 1882 3994 
C 2118 3994 2176 3930 2176 3667 
L 2176 2669 
C 1933 2874 1760 2944 1504 2944 
C 768 2944 173 2221 173 1312 
C 173 493 646 -64 1357 -64 
C 1715 -64 1958 64 2176 365 
L 2176 -45 
L 2202 -64 
L 3142 269 
z
M 2176 653 
C 2176 608 2138 538 2080 474 
C 1965 339 1805 269 1606 269 
C 1069 269 723 781 723 1568 
C 723 2291 1037 2765 1523 2765 
C 1869 2765 2176 2464 2176 2125 
L 2176 653 
z
" transform="scale(0.015625)"/>
        <path id="STIXGeneral-Regular-69" d="M 1152 4045 
C 1152 4224 1011 4371 826 4371 
C 646 4371 499 4224 499 4045 
C 499 3859 640 3718 819 3718 
C 1011 3718 1152 3859 1152 4045 
z
M 1619 0 
L 1619 96 
C 1197 128 1146 198 1146 672 
L 1146 2918 
L 1120 2944 
L 128 2592 
L 128 2490 
C 243 2522 339 2522 397 2522 
C 557 2522 608 2419 608 2118 
L 608 666 
C 608 179 544 122 102 96 
L 102 0 
L 1619 0 
z
" transform="scale(0.015625)"/>
        <path id="STIXGeneral-Regular-61" d="M 2829 422 
C 2720 333 2656 301 2554 301 
C 2438 301 2355 429 2355 723 
L 2355 1946 
C 2355 2336 2330 2470 2176 2656 
C 2022 2842 1779 2944 1421 2944 
C 1133 2944 864 2867 685 2752 
C 461 2611 358 2406 358 2240 
C 358 2067 499 1946 634 1946 
C 800 1946 928 2086 928 2208 
C 928 2342 890 2362 890 2477 
C 890 2650 1082 2790 1338 2790 
C 1626 2790 1837 2611 1837 2214 
L 1837 1869 
C 1114 1600 877 1478 685 1350 
C 435 1184 237 934 237 602 
C 237 179 512 -64 909 -64 
C 1184 -64 1498 19 1837 403 
L 1843 403 
C 1875 64 2016 -64 2253 -64 
C 2470 -64 2637 0 2829 243 
L 2829 422 
z
M 1837 813 
C 1837 627 1798 538 1613 410 
C 1504 339 1370 307 1242 307 
C 992 307 800 461 800 800 
C 800 998 864 1152 1018 1293 
C 1178 1440 1440 1574 1837 1715 
L 1837 813 
z
" transform="scale(0.015625)"/>
       </defs>
       <use xlink:href="#STIXGeneral-Regular-49"/>
       <use xlink:href="#STIXGeneral-Regular-6e" x="33.299988"/>
       <use xlink:href="#STIXGeneral-Regular-64" x="83.299973"/>
       <use xlink:href="#STIXGeneral-Regular-69" x="133.299957"/>
       <use xlink:href="#STIXGeneral-Regular-61" x="161.099945"/>
      </g>
     </g>
    </g>
    <g id="xtick_2">
     <g id="line2d_2">
      <g>
       <use xlink:href="#mca5ae3e6ec" x="141.12" y="266.4" style="fill: #323034; stroke: #323034; stroke-width: 0.8"/>
      </g>
     </g>
     <g id="text_2">
      <!-- East Asia -->
      <g style="fill: #323034" transform="translate(110.67875 284.3275) scale(0.16 -0.16)">
       <defs>
        <path id="STIXGeneral-Regular-45" d="M 3821 1082 
L 3642 1082 
C 3354 403 3078 237 2163 237 
L 1933 237 
C 1459 237 1286 269 1286 538 
L 1286 2093 
L 2253 2093 
C 2803 2093 2899 2010 2976 1472 
L 3123 1472 
L 3123 2970 
L 2976 2970 
C 2899 2464 2803 2355 2253 2355 
L 1286 2355 
L 1286 3763 
C 1286 3968 1331 3994 1510 3994 
L 2349 3994 
C 3091 3994 3238 3898 3334 3322 
L 3494 3322 
L 3469 4237 
L 77 4237 
L 77 4115 
C 557 4090 634 3994 634 3520 
L 634 730 
C 634 237 570 154 77 122 
L 77 0 
L 3526 0 
L 3821 1082 
z
" transform="scale(0.015625)"/>
        <path id="STIXGeneral-Regular-73" d="M 998 1926 
C 819 2035 723 2221 723 2362 
C 723 2662 928 2797 1203 2797 
C 1587 2797 1779 2586 1926 2010 
L 2022 2010 
L 1990 2880 
L 1920 2880 
C 1869 2822 1843 2816 1818 2816 
C 1773 2816 1709 2835 1638 2867 
C 1504 2931 1363 2938 1210 2938 
C 685 2938 326 2656 326 2150 
C 326 1824 563 1517 1094 1222 
L 1440 1030 
C 1651 915 1779 749 1779 550 
C 1779 288 1574 77 1248 77 
C 806 77 570 358 435 979 
L 333 979 
L 333 -26 
L 416 -26 
C 454 38 493 51 570 51 
C 640 51 710 45 864 -6 
C 1011 -58 1197 -64 1331 -64 
C 1818 -64 2227 307 2227 736 
C 2227 1101 2074 1274 1664 1523 
L 998 1926 
z
" transform="scale(0.015625)"/>
        <path id="STIXGeneral-Regular-74" d="M 1702 493 
C 1562 326 1459 269 1318 269 
C 1082 269 986 435 986 845 
L 986 2675 
L 1632 2675 
L 1632 2880 
L 986 2880 
L 986 3622 
C 986 3686 973 3706 941 3706 
C 902 3642 851 3584 813 3526 
C 570 3174 358 2938 192 2842 
C 122 2797 83 2758 83 2720 
C 83 2701 90 2688 109 2675 
L 448 2675 
L 448 749 
C 448 211 640 -64 1011 -64 
C 1331 -64 1574 90 1786 422 
L 1702 493 
z
" transform="scale(0.015625)"/>
        <path id="STIXGeneral-Regular-20" transform="scale(0.015625)"/>
        <path id="STIXGeneral-Regular-41" d="M 4525 0 
L 4525 122 
C 4192 160 4102 294 3923 710 
L 2349 4314 
L 2221 4314 
L 902 1190 
C 525 294 467 160 96 122 
L 96 0 
L 1370 0 
L 1370 122 
C 1062 122 922 186 922 384 
C 922 461 947 570 979 653 
L 1274 1382 
L 2950 1382 
L 3213 781 
C 3290 602 3334 429 3334 333 
C 3334 275 3296 205 3245 179 
C 3168 134 3123 122 2893 122 
L 2893 0 
L 4525 0 
z
M 2861 1645 
L 1382 1645 
L 2118 3405 
L 2861 1645 
z
" transform="scale(0.015625)"/>
       </defs>
       <use xlink:href="#STIXGeneral-Regular-45"/>
       <use xlink:href="#STIXGeneral-Regular-61" x="61.099991"/>
       <use xlink:href="#STIXGeneral-Regular-73" x="105.499985"/>
       <use xlink:href="#STIXGeneral-Regular-74" x="144.399979"/>
       <use xlink:href="#STIXGeneral-Regular-20" x="172.199966"/>
       <use xlink:href="#STIXGeneral-Regular-41" x="197.199951"/>
       <use xlink:href="#STIXGeneral-Regular-73" x="269.399933"/>
       <use xlink:href="#STIXGeneral-Regular-69" x="308.299927"/>
       <use xlink:href="#STIXGeneral-Regular-61" x="336.099915"/>
      </g>
      <!-- &amp; Pacific -->
      <g style="fill: #323034" transform="translate(110.67125 300.913) scale(0.16 -0.16)">
       <defs>
        <path id="STIXGeneral-Regular-26" d="M 4704 710 
C 4499 454 4365 371 4115 371 
C 3725 371 3443 570 3142 960 
C 3494 1434 3654 1747 3949 2214 
C 4109 2470 4230 2592 4550 2592 
L 4550 2726 
L 3168 2726 
L 3168 2592 
C 3488 2560 3584 2483 3584 2291 
C 3584 1997 3411 1690 2995 1139 
C 2637 1542 2413 1894 2150 2458 
C 2899 2778 3142 3072 3142 3533 
C 3142 4038 2771 4326 2266 4326 
C 1722 4326 1293 3942 1293 3366 
C 1293 3078 1338 2848 1517 2413 
L 1274 2272 
C 621 1894 269 1395 269 877 
C 269 237 678 -83 1363 -83 
C 1882 -83 2266 77 2746 499 
C 3149 83 3462 -83 3834 -83 
C 4262 -83 4614 173 4800 640 
L 4704 710 
z
M 2803 3558 
C 2803 3181 2605 2912 2054 2662 
C 1843 3053 1798 3264 1798 3590 
C 1798 3910 2003 4122 2304 4122 
C 2598 4122 2803 3872 2803 3558 
z
M 2586 666 
C 2202 365 1926 256 1651 256 
C 1197 256 858 570 858 1114 
C 858 1555 1056 1837 1613 2195 
C 1958 1472 2214 1101 2586 666 
z
" transform="scale(0.015625)"/>
        <path id="STIXGeneral-Regular-50" d="M 102 4237 
L 102 4115 
C 576 4077 640 4000 640 3526 
L 640 781 
C 640 230 602 160 102 122 
L 102 0 
L 1894 0 
L 1894 122 
C 1376 147 1293 230 1293 717 
L 1293 1862 
C 1466 1850 1568 1843 1734 1843 
C 2419 1843 2733 1901 3104 2234 
C 3341 2445 3469 2733 3469 3072 
C 3469 3392 3360 3654 3149 3834 
C 2861 4077 2400 4237 1760 4237 
L 102 4237 
z
M 1293 3770 
C 1293 3942 1331 4000 1517 4000 
C 2387 4000 2771 3744 2771 3040 
C 2771 2464 2387 2099 1683 2099 
C 1555 2099 1440 2106 1293 2118 
L 1293 3770 
z
" transform="scale(0.015625)"/>
        <path id="STIXGeneral-Regular-63" d="M 2547 998 
C 2240 550 2010 397 1645 397 
C 1056 397 653 909 653 1645 
C 653 2310 1005 2758 1523 2758 
C 1754 2758 1837 2688 1901 2451 
L 1939 2310 
C 1990 2125 2106 2016 2246 2016 
C 2413 2016 2547 2138 2547 2285 
C 2547 2643 2099 2944 1562 2944 
C 1261 2944 954 2829 698 2618 
C 352 2330 160 1888 160 1357 
C 160 531 666 -64 1376 -64 
C 1651 -64 1894 26 2112 205 
C 2304 358 2432 544 2637 941 
L 2547 998 
z
" transform="scale(0.015625)"/>
        <path id="STIXGeneral-Regular-66" d="M 134 2880 
L 134 2675 
L 659 2675 
L 659 666 
C 659 198 589 122 128 96 
L 128 0 
L 1792 0 
L 1792 96 
C 1267 115 1197 186 1197 666 
L 1197 2675 
L 1978 2675 
L 1978 2880 
L 1197 2880 
L 1197 3622 
C 1197 4000 1312 4192 1555 4192 
C 1696 4192 1779 4128 1894 3942 
C 1997 3770 2074 3712 2182 3712 
C 2336 3712 2451 3827 2451 3974 
C 2451 4205 2170 4371 1786 4371 
C 1382 4371 1050 4198 883 3910 
C 717 3622 666 3392 659 2880 
L 134 2880 
z
" transform="scale(0.015625)"/>
       </defs>
       <use xlink:href="#STIXGeneral-Regular-26"/>
       <use xlink:href="#STIXGeneral-Regular-20" x="77.799988"/>
       <use xlink:href="#STIXGeneral-Regular-50" x="102.799973"/>
       <use xlink:href="#STIXGeneral-Regular-61" x="158.499969"/>
       <use xlink:href="#STIXGeneral-Regular-63" x="202.899963"/>
       <use xlink:href="#STIXGeneral-Regular-69" x="247.299957"/>
       <use xlink:href="#STIXGeneral-Regular-66" x="275.099945"/>
       <use xlink:href="#STIXGeneral-Regular-69" x="308.399933"/>
       <use xlink:href="#STIXGeneral-Regular-63" x="336.199921"/>
      </g>
     </g>
    </g>
    <g id="xtick_3">
     <g id="line2d_3">
      <g>
       <use xlink:href="#mca5ae3e6ec" x="230.4" y="266.4" style="fill: #323034; stroke: #323034; stroke-width: 0.8"/>
      </g>
     </g>
     <g id="text_3">
      <!-- Europe &amp; -->
      <g style="fill: #323034" transform="translate(199.0725 284.3275) scale(0.16 -0.16)">
       <defs>
        <path id="STIXGeneral-Regular-75" d="M 3072 320 
L 3034 320 
C 2739 320 2669 390 2669 685 
L 2669 2880 
L 1658 2880 
L 1658 2771 
C 2042 2746 2131 2694 2131 2355 
L 2131 877 
C 2131 653 2086 595 1984 506 
C 1824 365 1632 307 1446 307 
C 1197 307 992 518 992 813 
L 992 2880 
L 58 2880 
L 58 2790 
C 365 2771 454 2682 454 2362 
L 454 755 
C 454 262 742 -64 1235 -64 
C 1472 -64 1837 58 2150 486 
L 2163 486 
L 2163 -38 
L 2195 -58 
C 2515 70 2746 141 3072 230 
L 3072 320 
z
" transform="scale(0.015625)"/>
        <path id="STIXGeneral-Regular-72" d="M 1024 2931 
L 992 2944 
C 653 2810 422 2720 45 2598 
L 45 2496 
C 134 2515 192 2522 269 2522 
C 429 2522 486 2419 486 2138 
L 486 538 
C 486 218 442 173 32 96 
L 32 0 
L 1568 0 
L 1568 96 
C 1133 115 1024 211 1024 576 
L 1024 2016 
C 1024 2221 1293 2541 1472 2541 
C 1510 2541 1568 2509 1638 2445 
C 1741 2349 1811 2317 1894 2317 
C 2048 2317 2144 2426 2144 2605 
C 2144 2816 2010 2944 1792 2944 
C 1523 2944 1344 2803 1024 2342 
L 1024 2931 
z
" transform="scale(0.015625)"/>
        <path id="STIXGeneral-Regular-6f" d="M 3008 1478 
C 3008 2362 2406 2944 1626 2944 
C 762 2944 186 2349 186 1459 
C 186 570 794 -64 1568 -64 
C 2432 -64 3008 589 3008 1478 
z
M 2432 1306 
C 2432 563 2150 115 1677 115 
C 1446 115 1242 230 1101 435 
C 864 781 762 1242 762 1747 
C 762 2387 1062 2765 1504 2765 
C 1779 2765 1958 2637 2112 2445 
C 2317 2182 2432 1741 2432 1306 
z
" transform="scale(0.015625)"/>
        <path id="STIXGeneral-Regular-70" d="M 1018 2931 
L 979 2944 
C 640 2810 410 2726 58 2618 
L 58 2515 
C 115 2522 160 2522 218 2522 
C 435 2522 480 2458 480 2157 
L 480 -838 
C 480 -1171 410 -1242 32 -1280 
L 32 -1389 
L 1581 -1389 
L 1581 -1274 
C 1101 -1267 1018 -1197 1018 -794 
L 1018 211 
C 1248 0 1395 -64 1664 -64 
C 2426 -64 3008 653 3008 1581 
C 3008 2374 2560 2944 1939 2944 
C 1581 2944 1299 2790 1018 2438 
L 1018 2931 
z
M 1018 2138 
C 1018 2330 1376 2560 1670 2560 
C 2144 2560 2458 2074 2458 1325 
C 2458 621 2144 141 1683 141 
C 1382 141 1018 371 1018 563 
L 1018 2138 
z
" transform="scale(0.015625)"/>
        <path id="STIXGeneral-Regular-65" d="M 2611 1050 
C 2298 576 2054 378 1626 378 
C 1331 378 1094 493 915 730 
C 685 1037 653 1286 621 1773 
L 2592 1773 
C 2566 2118 2502 2323 2374 2502 
C 2170 2790 1882 2944 1485 2944 
C 678 2944 160 2291 160 1389 
C 160 506 621 -64 1376 -64 
C 2016 -64 2464 307 2714 1005 
L 2611 1050 
z
M 634 1978 
C 704 2458 954 2714 1312 2714 
C 1734 2714 1869 2496 1939 1978 
L 634 1978 
z
" transform="scale(0.015625)"/>
       </defs>
       <use xlink:href="#STIXGeneral-Regular-45"/>
       <use xlink:href="#STIXGeneral-Regular-75" x="61.099991"/>
       <use xlink:href="#STIXGeneral-Regular-72" x="111.099976"/>
       <use xlink:href="#STIXGeneral-Regular-6f" x="144.399963"/>
       <use xlink:href="#STIXGeneral-Regular-70" x="194.399948"/>
       <use xlink:href="#STIXGeneral-Regular-65" x="244.399933"/>
       <use xlink:href="#STIXGeneral-Regular-20" x="288.799927"/>
       <use xlink:href="#STIXGeneral-Regular-26" x="313.799911"/>
      </g>
      <!-- Central -->
      <g style="fill: #323034" transform="translate(206.8475 300.913) scale(0.16 -0.16)">
       <defs>
        <path id="STIXGeneral-Regular-43" d="M 3930 838 
C 3450 384 3098 192 2522 192 
C 2080 192 1664 352 1382 653 
C 1082 979 922 1478 922 2182 
C 922 3290 1491 4070 2458 4070 
C 2874 4070 3206 3885 3488 3584 
C 3648 3411 3744 3226 3821 2874 
L 3968 2874 
L 3910 4326 
L 3782 4326 
C 3744 4192 3635 4115 3514 4115 
C 3405 4115 3206 4192 3072 4230 
C 2816 4301 2560 4326 2310 4326 
C 1715 4326 1165 4115 755 3661 
C 390 3251 179 2720 179 2080 
C 179 1446 403 864 794 480 
C 1165 115 1722 -90 2304 -90 
C 3059 -90 3680 192 4051 723 
L 3930 838 
z
" transform="scale(0.015625)"/>
        <path id="STIXGeneral-Regular-6c" d="M 1645 0 
L 1645 96 
C 1235 122 1165 205 1165 557 
L 1165 4346 
L 1133 4371 
C 800 4262 563 4198 122 4090 
L 122 3987 
C 224 4000 307 4000 358 4000 
C 563 4000 627 3898 627 3590 
L 627 589 
C 627 237 538 128 134 96 
L 134 0 
L 1645 0 
z
" transform="scale(0.015625)"/>
       </defs>
       <use xlink:href="#STIXGeneral-Regular-43"/>
       <use xlink:href="#STIXGeneral-Regular-65" x="66.699997"/>
       <use xlink:href="#STIXGeneral-Regular-6e" x="111.099991"/>
       <use xlink:href="#STIXGeneral-Regular-74" x="161.099976"/>
       <use xlink:href="#STIXGeneral-Regular-72" x="188.899963"/>
       <use xlink:href="#STIXGeneral-Regular-61" x="222.199951"/>
       <use xlink:href="#STIXGeneral-Regular-6c" x="266.599945"/>
      </g>
      <!-- Asia -->
      <g style="fill: #323034" transform="translate(215.735 317.4985) scale(0.16 -0.16)">
       <use xlink:href="#STIXGeneral-Regular-41"/>
       <use xlink:href="#STIXGeneral-Regular-73" x="72.199982"/>
       <use xlink:href="#STIXGeneral-Regular-69" x="111.099976"/>
       <use xlink:href="#STIXGeneral-Regular-61" x="138.899963"/>
      </g>
     </g>
    </g>
    <g id="xtick_4">
     <g id="line2d_4">
      <g>
       <use xlink:href="#mca5ae3e6ec" x="319.68" y="266.4" style="fill: #323034; stroke: #323034; stroke-width: 0.8"/>
      </g>
     </g>
     <g id="text_4">
      <!-- China -->
      <g style="fill: #323034" transform="translate(300.5675 284.3275) scale(0.16 -0.16)">
       <defs>
        <path id="STIXGeneral-Regular-68" d="M 3117 0 
L 3117 96 
C 2771 160 2733 211 2733 653 
L 2733 1926 
C 2733 2598 2470 2944 1946 2944 
C 1568 2944 1299 2790 1005 2406 
L 1005 4352 
L 973 4371 
C 749 4294 602 4250 237 4141 
L 64 4090 
L 64 3987 
C 83 3994 115 3994 141 3994 
C 416 3994 467 3942 467 3667 
L 467 653 
C 467 205 429 147 58 96 
L 58 0 
L 1440 0 
L 1440 96 
C 1069 134 1005 211 1005 653 
L 1005 2195 
C 1274 2490 1466 2598 1722 2598 
C 2035 2598 2195 2368 2195 1920 
L 2195 653 
C 2195 211 2131 134 1760 96 
L 1760 0 
L 3117 0 
z
" transform="scale(0.015625)"/>
       </defs>
       <use xlink:href="#STIXGeneral-Regular-43"/>
       <use xlink:href="#STIXGeneral-Regular-68" x="66.699997"/>
       <use xlink:href="#STIXGeneral-Regular-69" x="116.699982"/>
       <use xlink:href="#STIXGeneral-Regular-6e" x="144.499969"/>
       <use xlink:href="#STIXGeneral-Regular-61" x="194.499954"/>
      </g>
     </g>
    </g>
    <g id="xtick_5">
     <g id="line2d_5">
      <g>
       <use xlink:href="#mca5ae3e6ec" x="408.96" y="266.4" style="fill: #323034; stroke: #323034; stroke-width: 0.8"/>
      </g>
     </g>
     <g id="text_5">
      <!-- United -->
      <g style="fill: #323034" transform="translate(387.18375 284.3275) scale(0.16 -0.16)">
       <defs>
        <path id="STIXGeneral-Regular-55" d="M 4512 4237 
L 3027 4237 
L 3027 4115 
C 3546 4083 3629 3942 3629 3283 
L 3629 1600 
C 3629 1082 3603 826 3392 570 
C 3187 333 2829 192 2419 192 
C 2054 192 1786 301 1600 480 
C 1344 730 1318 1018 1318 1517 
L 1318 3514 
C 1318 3994 1389 4070 1901 4115 
L 1901 4237 
L 90 4237 
L 90 4115 
C 595 4077 666 4006 666 3578 
L 666 1594 
C 666 915 832 467 1184 205 
C 1446 6 1805 -90 2272 -90 
C 2861 -90 3296 70 3565 378 
C 3853 704 3910 1050 3910 1670 
L 3910 3302 
C 3910 3910 3974 4064 4512 4115 
L 4512 4237 
z
" transform="scale(0.015625)"/>
       </defs>
       <use xlink:href="#STIXGeneral-Regular-55"/>
       <use xlink:href="#STIXGeneral-Regular-6e" x="72.199982"/>
       <use xlink:href="#STIXGeneral-Regular-69" x="122.199966"/>
       <use xlink:href="#STIXGeneral-Regular-74" x="149.999954"/>
       <use xlink:href="#STIXGeneral-Regular-65" x="177.799942"/>
       <use xlink:href="#STIXGeneral-Regular-64" x="222.199936"/>
      </g>
      <!-- States -->
      <g style="fill: #323034" transform="translate(389.8475 300.913) scale(0.16 -0.16)">
       <defs>
        <path id="STIXGeneral-Regular-53" d="M 3002 2963 
L 2861 4326 
L 2726 4326 
C 2701 4186 2630 4109 2522 4109 
C 2458 4109 2355 4134 2240 4186 
C 1997 4288 1830 4326 1568 4326 
C 934 4326 454 3904 454 3206 
C 454 2810 659 2413 1235 2106 
C 1645 1888 2086 1606 2310 1363 
C 2432 1229 2496 1082 2496 858 
C 2496 435 2182 141 1734 141 
C 1126 141 710 499 416 1274 
L 275 1274 
L 461 -83 
L 602 -83 
C 602 51 685 128 781 128 
C 851 128 960 109 1082 58 
C 1318 -45 1568 -90 1837 -90 
C 2579 -90 3142 390 3142 1107 
C 3142 1594 2829 1965 2150 2362 
C 1478 2752 1005 3021 1005 3456 
C 1005 3808 1254 4064 1651 4064 
C 2035 4064 2355 3853 2579 3565 
C 2694 3411 2765 3245 2842 2963 
L 3002 2963 
z
" transform="scale(0.015625)"/>
       </defs>
       <use xlink:href="#STIXGeneral-Regular-53"/>
       <use xlink:href="#STIXGeneral-Regular-74" x="55.599991"/>
       <use xlink:href="#STIXGeneral-Regular-61" x="83.399979"/>
       <use xlink:href="#STIXGeneral-Regular-74" x="127.799973"/>
       <use xlink:href="#STIXGeneral-Regular-65" x="155.59996"/>
       <use xlink:href="#STIXGeneral-Regular-73" x="199.999954"/>
      </g>
     </g>
    </g>
   </g>
   <g id="matplotlib.axis_2">
    <g id="ytick_1">
     <g id="line2d_6">
      <defs>
       <path id="m8a87c08448" d="M 0 0 
L 3.5 0 
" style="stroke: #323034; stroke-width: 0.8"/>
      </defs>
      <g>
       <use xlink:href="#m8a87c08448" x="453.6" y="266.4" style="fill: #323034; stroke: #323034; stroke-width: 0.8"/>
      </g>
     </g>
     <g id="text_6">
      <!-- $\mathdefault{0}$ -->
      <g style="fill: #323034" transform="translate(460.6 271.86375) scale(0.16 -0.16)">
       <defs>
        <path id="STIXGeneral-Regular-30" d="M 3046 2112 
C 3046 3424 2464 4326 1626 4326 
C 595 4326 154 3283 154 2150 
C 154 1101 506 -90 1600 -90 
C 2643 -90 3046 1011 3046 2112 
z
M 2432 2080 
C 2432 813 2144 77 1600 77 
C 1050 77 768 806 768 2106 
C 768 3405 1056 4160 1587 4160 
C 2150 4160 2432 3411 2432 2080 
z
" transform="scale(0.015625)"/>
       </defs>
       <use xlink:href="#STIXGeneral-Regular-30" transform="translate(0 0.40625)"/>
      </g>
     </g>
    </g>
    <g id="ytick_2">
     <g id="line2d_7">
      <g>
       <use xlink:href="#m8a87c08448" x="453.6" y="210.96" style="fill: #323034; stroke: #323034; stroke-width: 0.8"/>
      </g>
     </g>
     <g id="text_7">
      <!-- $\mathdefault{5}$ -->
      <g style="fill: #323034" transform="translate(460.6 216.42375) scale(0.16 -0.16)">
       <defs>
        <path id="STIXGeneral-Regular-35" d="M 2803 4358 
L 2746 4403 
C 2643 4269 2586 4237 2438 4237 
L 1114 4237 
L 416 2720 
C 416 2720 410 2701 410 2688 
C 410 2650 429 2637 486 2637 
C 1101 2637 1549 2432 1850 2189 
C 2138 1958 2278 1638 2278 1229 
C 2278 678 1862 147 1414 147 
C 1286 147 1139 205 960 352 
C 755 518 634 550 486 550 
C 307 550 198 467 198 307 
C 198 64 531 -90 1011 -90 
C 1446 -90 1798 6 2099 224 
C 2534 544 2726 941 2726 1555 
C 2726 1894 2669 2138 2502 2368 
C 2138 2874 1818 3014 902 3187 
L 1158 3731 
L 2400 3731 
C 2502 3731 2554 3770 2573 3814 
L 2803 4358 
z
" transform="scale(0.015625)"/>
       </defs>
       <use xlink:href="#STIXGeneral-Regular-35" transform="translate(0 0.203125)"/>
      </g>
     </g>
    </g>
    <g id="ytick_3">
     <g id="line2d_8">
      <g>
       <use xlink:href="#m8a87c08448" x="453.6" y="155.52" style="fill: #323034; stroke: #323034; stroke-width: 0.8"/>
      </g>
     </g>
     <g id="text_8">
      <!-- $\mathdefault{10}$ -->
      <g style="fill: #323034" transform="translate(460.6 160.98375) scale(0.16 -0.16)">
       <defs>
        <path id="STIXGeneral-Regular-31" d="M 2522 0 
L 2522 96 
C 2042 96 1914 211 1914 486 
L 1914 4307 
L 1856 4326 
L 710 3744 
L 710 3654 
L 883 3718 
C 998 3763 1107 3795 1171 3795 
C 1306 3795 1363 3699 1363 3482 
L 1363 608 
C 1363 256 1229 122 755 96 
L 755 0 
L 2522 0 
z
" transform="scale(0.015625)"/>
       </defs>
       <use xlink:href="#STIXGeneral-Regular-31" transform="translate(0 0.40625)"/>
       <use xlink:href="#STIXGeneral-Regular-30" transform="translate(49.999985 0.40625)"/>
      </g>
     </g>
    </g>
    <g id="ytick_4">
     <g id="line2d_9">
      <g>
       <use xlink:href="#m8a87c08448" x="453.6" y="100.08" style="fill: #323034; stroke: #323034; stroke-width: 0.8"/>
      </g>
     </g>
     <g id="text_9">
      <!-- $\mathdefault{15}$ -->
      <g style="fill: #323034" transform="translate(460.6 105.54375) scale(0.16 -0.16)">
       <use xlink:href="#STIXGeneral-Regular-31" transform="translate(0 0.203125)"/>
       <use xlink:href="#STIXGeneral-Regular-35" transform="translate(49.999985 0.203125)"/>
      </g>
     </g>
    </g>
    <g id="ytick_5">
     <g id="line2d_10">
      <g>
       <use xlink:href="#m8a87c08448" x="453.6" y="44.64" style="fill: #323034; stroke: #323034; stroke-width: 0.8"/>
      </g>
     </g>
     <g id="text_10">
      <!-- $\mathdefault{20}$ -->
      <g style="fill: #323034" transform="translate(460.6 50.10375) scale(0.16 -0.16)">
       <defs>
        <path id="STIXGeneral-Regular-32" d="M 3034 877 
L 2944 915 
C 2733 557 2598 486 2330 486 
L 832 486 
L 1888 1613 
C 2458 2214 2707 2694 2707 3200 
C 2707 3834 2246 4326 1523 4326 
C 736 4326 326 3802 192 3053 
L 326 3021 
C 582 3648 806 3853 1267 3853 
C 1811 3853 2157 3533 2157 2950 
C 2157 2406 1926 1920 1325 1286 
L 186 77 
L 186 0 
L 2688 0 
L 3034 877 
z
" transform="scale(0.015625)"/>
       </defs>
       <use xlink:href="#STIXGeneral-Regular-32" transform="translate(0 0.40625)"/>
       <use xlink:href="#STIXGeneral-Regular-30" transform="translate(49.999985 0.40625)"/>
      </g>
     </g>
    </g>
   </g>
   <g id="line2d_11">
    <path clip-path="url(#pc0d3a8e50d)" style="fill: none; stroke: #424242; stroke-width: 4.5; stroke-linecap: square"/>
   </g>
   <g id="line2d_12">
    <path clip-path="url(#pc0d3a8e50d)" style="fill: none; stroke: #424242; stroke-width: 4.5; stroke-linecap: square"/>
   </g>
   <g id="line2d_13">
    <path clip-path="url(#pc0d3a8e50d)" style="fill: none; stroke: #424242; stroke-width: 4.5; stroke-linecap: square"/>
   </g>
   <g id="line2d_14">
    <path clip-path="url(#pc0d3a8e50d)" style="fill: none; stroke: #424242; stroke-width: 4.5; stroke-linecap: square"/>
   </g>
   <g id="line2d_15">
    <path clip-path="url(#pc0d3a8e50d)" style="fill: none; stroke: #424242; stroke-width: 4.5; stroke-linecap: square"/>
   </g>
   <g id="text_11">
    <!-- CO$_2$ (metric tons per capita) -->
    <g style="fill: #323034" transform="translate(237.76 38.64) scale(0.19 -0.19)">
     <defs>
      <path id="STIXGeneral-Regular-4f" d="M 4403 2118 
C 4403 3386 3565 4326 2310 4326 
C 1062 4326 218 3437 218 2138 
C 218 806 1069 -90 2310 -90 
C 3539 -90 4403 800 4403 2118 
z
M 3674 2157 
C 3674 1389 3494 787 3142 448 
C 2918 237 2637 141 2317 141 
C 2022 141 1741 230 1523 429 
C 1133 787 947 1363 947 2125 
C 947 2733 1114 3354 1389 3667 
C 1638 3955 1958 4096 2304 4096 
C 2605 4096 2861 3987 3091 3795 
C 3456 3488 3674 2886 3674 2157 
z
" transform="scale(0.015625)"/>
      <path id="STIXGeneral-Regular-28" d="M 1946 -1030 
C 1050 -282 858 442 858 1632 
C 858 2867 1056 3462 1946 4224 
L 1888 4326 
C 864 3718 307 2797 307 1613 
C 307 525 858 -557 1869 -1133 
L 1946 -1030 
z
" transform="scale(0.015625)"/>
      <path id="STIXGeneral-Regular-6d" d="M 4960 0 
L 4960 96 
L 4794 109 
C 4602 122 4518 205 4518 493 
L 4518 1792 
C 4518 2547 4294 2944 3776 2944 
C 3405 2944 3078 2778 2733 2406 
C 2618 2771 2400 2944 2054 2944 
C 1766 2944 1498 2886 1075 2451 
L 1062 2451 
L 1062 2925 
L 1011 2944 
C 685 2822 474 2752 122 2656 
L 122 2547 
C 205 2566 256 2573 326 2573 
C 493 2573 550 2464 550 2150 
L 550 563 
C 550 192 461 102 102 96 
L 102 0 
L 1523 0 
L 1523 96 
C 1184 109 1088 173 1088 448 
L 1088 2227 
C 1088 2240 1126 2285 1171 2336 
C 1299 2490 1613 2611 1850 2611 
C 2125 2611 2266 2342 2266 1901 
L 2266 550 
C 2266 160 2195 122 1830 96 
L 1830 0 
L 3264 0 
L 3264 96 
C 2899 102 2803 192 2803 608 
L 2803 2221 
C 2995 2496 3187 2611 3488 2611 
C 3853 2611 3981 2400 3981 1894 
L 3981 576 
C 3981 205 3923 134 3565 96 
L 3565 0 
L 4960 0 
z
" transform="scale(0.015625)"/>
      <path id="STIXGeneral-Regular-29" d="M 186 4224 
C 1114 3494 1274 2758 1274 1562 
C 1274 320 1094 -282 186 -1030 
L 243 -1133 
C 1261 -512 1824 397 1824 1581 
C 1824 2669 1242 3738 262 4326 
L 186 4224 
z
" transform="scale(0.015625)"/>
     </defs>
     <use xlink:href="#STIXGeneral-Regular-43" transform="translate(0 0.703125)"/>
     <use xlink:href="#STIXGeneral-Regular-4f" transform="translate(66.699997 0.703125)"/>
     <use xlink:href="#STIXGeneral-Regular-32" transform="translate(140.44326 -12.525) scale(0.7)"/>
     <use xlink:href="#STIXGeneral-Regular-20" transform="translate(179.852624 0.703125)"/>
     <use xlink:href="#STIXGeneral-Regular-28" transform="translate(204.852609 0.703125)"/>
     <use xlink:href="#STIXGeneral-Regular-6d" transform="translate(238.152597 0.703125)"/>
     <use xlink:href="#STIXGeneral-Regular-65" transform="translate(315.952585 0.703125)"/>
     <use xlink:href="#STIXGeneral-Regular-74" transform="translate(360.352578 0.703125)"/>
     <use xlink:href="#STIXGeneral-Regular-72" transform="translate(388.152566 0.703125)"/>
     <use xlink:href="#STIXGeneral-Regular-69" transform="translate(421.452554 0.703125)"/>
     <use xlink:href="#STIXGeneral-Regular-63" transform="translate(449.252542 0.703125)"/>
     <use xlink:href="#STIXGeneral-Regular-20" transform="translate(493.652536 0.703125)"/>
     <use xlink:href="#STIXGeneral-Regular-74" transform="translate(518.65252 0.703125)"/>
     <use xlink:href="#STIXGeneral-Regular-6f" transform="translate(546.452508 0.703125)"/>
     <use xlink:href="#STIXGeneral-Regular-6e" transform="translate(596.452493 0.703125)"/>
     <use xlink:href="#STIXGeneral-Regular-73" transform="translate(646.452478 0.703125)"/>
     <use xlink:href="#STIXGeneral-Regular-20" transform="translate(685.352472 0.703125)"/>
     <use xlink:href="#STIXGeneral-Regular-70" transform="translate(710.352456 0.703125)"/>
     <use xlink:href="#STIXGeneral-Regular-65" transform="translate(760.352441 0.703125)"/>
     <use xlink:href="#STIXGeneral-Regular-72" transform="translate(804.752435 0.703125)"/>
     <use xlink:href="#STIXGeneral-Regular-20" transform="translate(838.052423 0.703125)"/>
     <use xlink:href="#STIXGeneral-Regular-63" transform="translate(863.052408 0.703125)"/>
     <use xlink:href="#STIXGeneral-Regular-61" transform="translate(907.452401 0.703125)"/>
     <use xlink:href="#STIXGeneral-Regular-70" transform="translate(951.852395 0.703125)"/>
     <use xlink:href="#STIXGeneral-Regular-69" transform="translate(1001.85238 0.703125)"/>
     <use xlink:href="#STIXGeneral-Regular-74" transform="translate(1029.652368 0.703125)"/>
     <use xlink:href="#STIXGeneral-Regular-61" transform="translate(1057.452356 0.703125)"/>
     <use xlink:href="#STIXGeneral-Regular-29" transform="translate(1101.85235 0.703125)"/>
    </g>
   </g>
  </g>
  <g id="text_12">
   <!-- The USA leads the world on per-capita emissions -->
   <g style="fill: #323034" transform="translate(14.686406 21.542344) scale(0.21 -0.21)">
    <defs>
     <path id="STIXGeneral-Regular-54" d="M 3795 3149 
L 3750 4237 
L 154 4237 
L 109 3149 
L 262 3149 
C 390 3853 563 3968 1242 3968 
L 1626 3968 
L 1626 787 
C 1626 224 1555 154 1024 122 
L 1024 0 
L 2893 0 
L 2893 122 
C 2368 147 2278 224 2278 710 
L 2278 3968 
L 2656 3968 
C 3334 3968 3501 3853 3642 3149 
L 3795 3149 
z
" transform="scale(0.015625)"/>
     <path id="STIXGeneral-Regular-77" d="M 4442 2880 
L 3654 2880 
L 3654 2784 
C 3872 2739 3936 2694 3936 2592 
C 3936 2490 3898 2336 3827 2163 
L 3251 742 
L 2714 2176 
C 2637 2374 2605 2451 2605 2560 
C 2605 2694 2675 2739 2976 2784 
L 2976 2880 
L 1677 2880 
L 1677 2784 
C 1914 2758 1997 2688 2118 2342 
L 2246 1984 
L 1664 710 
L 1030 2381 
C 1005 2445 992 2509 992 2573 
C 992 2707 1062 2758 1286 2784 
L 1286 2880 
L 134 2880 
L 134 2784 
C 282 2771 339 2726 474 2381 
L 1338 192 
C 1414 -6 1466 -90 1504 -90 
C 1536 -90 1587 -6 1664 160 
L 2381 1696 
L 2963 186 
C 3059 -58 3072 -90 3117 -90 
C 3162 -90 3194 -32 3296 224 
L 4179 2438 
C 4282 2694 4314 2739 4442 2784 
L 4442 2880 
z
" transform="scale(0.015625)"/>
     <path id="STIXGeneral-Regular-2d" d="M 1824 1242 
L 1824 1645 
L 250 1645 
L 250 1242 
L 1824 1242 
z
" transform="scale(0.015625)"/>
    </defs>
    <use xlink:href="#STIXGeneral-Regular-54"/>
    <use xlink:href="#STIXGeneral-Regular-68" x="61.099991"/>
    <use xlink:href="#STIXGeneral-Regular-65" x="111.099976"/>
    <use xlink:href="#STIXGeneral-Regular-20" x="155.499969"/>
    <use xlink:href="#STIXGeneral-Regular-55" x="180.499954"/>
    <use xlink:href="#STIXGeneral-Regular-53" x="252.699936"/>
    <use xlink:href="#STIXGeneral-Regular-41" x="308.299927"/>
    <use xlink:href="#STIXGeneral-Regular-20" x="380.499908"/>
    <use xlink:href="#STIXGeneral-Regular-6c" x="405.499893"/>
    <use xlink:href="#STIXGeneral-Regular-65" x="433.299881"/>
    <use xlink:href="#STIXGeneral-Regular-61" x="477.699875"/>
    <use xlink:href="#STIXGeneral-Regular-64" x="522.099869"/>
    <use xlink:href="#STIXGeneral-Regular-73" x="572.099854"/>
    <use xlink:href="#STIXGeneral-Regular-20" x="610.999847"/>
    <use xlink:href="#STIXGeneral-Regular-74" x="635.999832"/>
    <use xlink:href="#STIXGeneral-Regular-68" x="663.79982"/>
    <use xlink:href="#STIXGeneral-Regular-65" x="713.799805"/>
    <use xlink:href="#STIXGeneral-Regular-20" x="758.199799"/>
    <use xlink:href="#STIXGeneral-Regular-77" x="783.199783"/>
    <use xlink:href="#STIXGeneral-Regular-6f" x="855.399765"/>
    <use xlink:href="#STIXGeneral-Regular-72" x="905.39975"/>
    <use xlink:href="#STIXGeneral-Regular-6c" x="938.699738"/>
    <use xlink:href="#STIXGeneral-Regular-64" x="966.499725"/>
    <use xlink:href="#STIXGeneral-Regular-20" x="1016.49971"/>
    <use xlink:href="#STIXGeneral-Regular-6f" x="1041.499695"/>
    <use xlink:href="#STIXGeneral-Regular-6e" x="1091.49968"/>
    <use xlink:href="#STIXGeneral-Regular-20" x="1141.499664"/>
    <use xlink:href="#STIXGeneral-Regular-70" x="1166.499649"/>
    <use xlink:href="#STIXGeneral-Regular-65" x="1216.499634"/>
    <use xlink:href="#STIXGeneral-Regular-72" x="1260.899628"/>
    <use xlink:href="#STIXGeneral-Regular-2d" x="1294.199615"/>
    <use xlink:href="#STIXGeneral-Regular-63" x="1327.499603"/>
    <use xlink:href="#STIXGeneral-Regular-61" x="1371.899597"/>
    <use xlink:href="#STIXGeneral-Regular-70" x="1416.299591"/>
    <use xlink:href="#STIXGeneral-Regular-69" x="1466.299576"/>
    <use xlink:href="#STIXGeneral-Regular-74" x="1494.099564"/>
    <use xlink:href="#STIXGeneral-Regular-61" x="1521.899551"/>
    <use xlink:href="#STIXGeneral-Regular-20" x="1566.299545"/>
    <use xlink:href="#STIXGeneral-Regular-65" x="1591.29953"/>
    <use xlink:href="#STIXGeneral-Regular-6d" x="1635.699524"/>
    <use xlink:href="#STIXGeneral-Regular-69" x="1713.499512"/>
    <use xlink:href="#STIXGeneral-Regular-73" x="1741.2995"/>
    <use xlink:href="#STIXGeneral-Regular-73" x="1780.199493"/>
    <use xlink:href="#STIXGeneral-Regular-69" x="1819.099487"/>
    <use xlink:href="#STIXGeneral-Regular-6f" x="1846.899475"/>
    <use xlink:href="#STIXGeneral-Regular-6e" x="1896.89946"/>
    <use xlink:href="#STIXGeneral-Regular-73" x="1946.899445"/>
   </g>
  </g>
 </g>
 <defs>
  <clipPath id="pc0d3a8e50d">
   <rect x="7.2" y="44.64" width="446.4" height="221.76"/>
  </clipPath>
 </defs>
</svg>
