<?xml version="1.0" encoding="utf-8" standalone="no"?>
<!DOCTYPE svg PUBLIC "-//W3C//DTD SVG 1.1//EN"
  "http://www.w3.org/Graphics/SVG/1.1/DTD/svg11.dtd">
<svg xmlns:xlink="http://www.w3.org/1999/xlink" width="563.596268pt" height="276.691875pt" viewBox="0 0 563.596268 276.691875" xmlns="http://www.w3.org/2000/svg" version="1.1">
 <metadata>
  <rdf:RDF xmlns:dc="http://purl.org/dc/elements/1.1/" xmlns:cc="http://creativecommons.org/ns#" xmlns:rdf="http://www.w3.org/1999/02/22-rdf-syntax-ns#">
   <cc:Work>
    <dc:type rdf:resource="http://purl.org/dc/dcmitype/StillImage"/>
    <dc:date>2025-10-23T10:39:35.541719</dc:date>
    <dc:format>image/svg+xml</dc:format>
    <dc:creator>
     <cc:Agent>
      <dc:title>Matplotlib v3.9.3, https://matplotlib.org/</dc:title>
     </cc:Agent>
    </dc:creator>
   </cc:Work>
  </rdf:RDF>
 </metadata>
 <defs>
  <style type="text/css">*{stroke-linejoin: round; stroke-linecap: butt}</style>
 </defs>
 <g id="figure_1">
  <g id="patch_1">
   <path d="M 0 276.691875 
L 563.596268 276.691875 
L 563.596268 0 
L 0 0 
z
" style="fill: #ffffff"/>
  </g>
  <g id="axes_1">
   <g id="patch_2">
    <path d="M 51.77125 234.303125 
L 548.396268 234.303125 
L 548.396268 22.873125 
L 51.77125 22.873125 
z
" style="fill: #ffffff"/>
   </g>
   <g id="PolyCollection_1">
    <defs>
     <path id="m40234d97d1" d="M 96.918979 -157.714205 
L 96.918979 -119.272386 
L 99.199167 -119.272386 
L 101.479356 -119.272386 
L 103.759544 -119.272386 
L 106.039732 -119.272386 
L 108.319921 -119.272386 
L 110.600109 -119.272386 
L 112.880297 -119.272386 
L 115.160486 -119.272386 
L 117.440674 -119.272386 
L 119.720862 -119.272386 
L 122.001051 -119.272386 
L 124.281239 -119.272386 
L 126.561427 -119.272386 
L 128.841616 -119.272386 
L 131.121804 -119.272386 
L 133.401992 -119.272386 
L 135.682181 -119.272386 
L 137.962369 -119.272386 
L 140.242557 -119.272386 
L 142.522746 -119.272386 
L 144.802934 -119.272386 
L 147.083122 -119.272386 
L 149.363311 -119.272386 
L 151.643499 -119.272386 
L 153.923687 -119.272386 
L 156.203876 -119.272386 
L 158.484064 -119.272386 
L 160.764252 -119.272386 
L 163.044441 -119.272386 
L 165.324629 -119.272386 
L 167.604817 -119.272386 
L 169.885006 -119.272386 
L 172.165194 -119.272386 
L 174.445382 -119.272386 
L 176.72557 -119.272386 
L 179.005759 -119.272386 
L 181.285947 -119.272386 
L 183.566135 -119.272386 
L 185.846324 -119.272386 
L 188.126512 -119.272386 
L 190.4067 -119.272386 
L 192.686889 -119.272386 
L 194.967077 -119.272386 
L 197.247265 -119.272386 
L 199.527454 -119.272386 
L 201.807642 -119.272386 
L 204.08783 -119.272386 
L 206.368019 -119.272386 
L 208.648207 -119.272386 
L 210.928395 -119.272386 
L 213.208584 -119.272386 
L 215.488772 -119.272386 
L 217.76896 -119.272386 
L 220.049149 -119.272386 
L 222.329337 -119.272386 
L 224.609525 -119.272386 
L 226.889714 -119.272386 
L 229.169902 -119.272386 
L 231.45009 -119.272386 
L 233.730279 -119.272386 
L 236.010467 -119.272386 
L 238.290655 -119.272386 
L 240.570844 -119.272386 
L 242.851032 -119.272386 
L 245.13122 -119.272386 
L 247.411409 -119.272386 
L 249.691597 -119.272386 
L 251.971785 -119.272386 
L 254.251974 -119.272386 
L 256.532162 -119.272386 
L 258.81235 -119.272386 
L 261.092539 -119.272386 
L 263.372727 -119.272386 
L 265.652915 -119.272386 
L 267.933104 -119.272386 
L 270.213292 -119.272386 
L 272.49348 -119.272386 
L 274.773669 -119.272386 
L 277.053857 -119.272386 
L 279.334045 -119.272386 
L 281.614234 -119.272386 
L 283.894422 -119.272386 
L 286.17461 -119.272386 
L 288.454799 -119.272386 
L 290.734987 -119.272386 
L 293.015175 -119.272386 
L 295.295364 -119.272386 
L 297.575552 -119.272386 
L 299.85574 -119.272386 
L 302.135929 -119.272386 
L 304.416117 -119.272386 
L 306.696305 -119.272386 
L 308.976494 -119.272386 
L 311.256682 -119.272386 
L 313.53687 -119.272386 
L 315.817059 -119.272386 
L 318.097247 -119.272386 
L 320.377435 -119.272386 
L 322.657624 -119.272386 
L 322.657624 -157.714205 
L 322.657624 -157.714205 
L 320.377435 -157.714205 
L 318.097247 -157.714205 
L 315.817059 -157.714205 
L 313.53687 -157.714205 
L 311.256682 -157.714205 
L 308.976494 -157.714205 
L 306.696305 -157.714205 
L 304.416117 -157.714205 
L 302.135929 -157.714205 
L 299.85574 -157.714205 
L 297.575552 -157.714205 
L 295.295364 -157.714205 
L 293.015175 -157.714205 
L 290.734987 -157.714205 
L 288.454799 -157.714205 
L 286.17461 -157.714205 
L 283.894422 -157.714205 
L 281.614234 -157.714205 
L 279.334045 -157.714205 
L 277.053857 -157.714205 
L 274.773669 -157.714205 
L 272.49348 -157.714205 
L 270.213292 -157.714205 
L 267.933104 -157.714205 
L 265.652915 -157.714205 
L 263.372727 -157.714205 
L 261.092539 -157.714205 
L 258.81235 -157.714205 
L 256.532162 -157.714205 
L 254.251974 -157.714205 
L 251.971785 -157.714205 
L 249.691597 -157.714205 
L 247.411409 -157.714205 
L 245.13122 -157.714205 
L 242.851032 -157.714205 
L 240.570844 -157.714205 
L 238.290655 -157.714205 
L 236.010467 -157.714205 
L 233.730279 -157.714205 
L 231.45009 -157.714205 
L 229.169902 -157.714205 
L 226.889714 -157.714205 
L 224.609525 -157.714205 
L 222.329337 -157.714205 
L 220.049149 -157.714205 
L 217.76896 -157.714205 
L 215.488772 -157.714205 
L 213.208584 -157.714205 
L 210.928395 -157.714205 
L 208.648207 -157.714205 
L 206.368019 -157.714205 
L 204.08783 -157.714205 
L 201.807642 -157.714205 
L 199.527454 -157.714205 
L 197.247265 -157.714205 
L 194.967077 -157.714205 
L 192.686889 -157.714205 
L 190.4067 -157.714205 
L 188.126512 -157.714205 
L 185.846324 -157.714205 
L 183.566135 -157.714205 
L 181.285947 -157.714205 
L 179.005759 -157.714205 
L 176.72557 -157.714205 
L 174.445382 -157.714205 
L 172.165194 -157.714205 
L 169.885006 -157.714205 
L 167.604817 -157.714205 
L 165.324629 -157.714205 
L 163.044441 -157.714205 
L 160.764252 -157.714205 
L 158.484064 -157.714205 
L 156.203876 -157.714205 
L 153.923687 -157.714205 
L 151.643499 -157.714205 
L 149.363311 -157.714205 
L 147.083122 -157.714205 
L 144.802934 -157.714205 
L 142.522746 -157.714205 
L 140.242557 -157.714205 
L 137.962369 -157.714205 
L 135.682181 -157.714205 
L 133.401992 -157.714205 
L 131.121804 -157.714205 
L 128.841616 -157.714205 
L 126.561427 -157.714205 
L 124.281239 -157.714205 
L 122.001051 -157.714205 
L 119.720862 -157.714205 
L 117.440674 -157.714205 
L 115.160486 -157.714205 
L 112.880297 -157.714205 
L 110.600109 -157.714205 
L 108.319921 -157.714205 
L 106.039732 -157.714205 
L 103.759544 -157.714205 
L 101.479356 -157.714205 
L 99.199167 -157.714205 
L 96.918979 -157.714205 
z
" style="stroke: #bc80bd; stroke-opacity: 0.3; stroke-width: 0.8"/>
    </defs>
    <g clip-path="url(#p1731ac6e44)">
     <use xlink:href="#m40234d97d1" x="0" y="276.691875" style="fill: #bc80bd; fill-opacity: 0.3; stroke: #bc80bd; stroke-opacity: 0.3; stroke-width: 0.8"/>
    </g>
   </g>
   <g id="matplotlib.axis_1">
    <g id="xtick_1">
     <g id="line2d_1">
      <path d="M 96.918979 234.303125 
L 96.918979 22.873125 
" clip-path="url(#p1731ac6e44)" style="fill: none; stroke: #b1afb5; stroke-opacity: 0.3; stroke-width: 0.5; stroke-linecap: square"/>
     </g>
     <g id="line2d_2">
      <defs>
       <path id="m028e74c552" d="M 0 0 
L 0 3.5 
" style="stroke: #323034; stroke-width: 0.8"/>
      </defs>
      <g>
       <use xlink:href="#m028e74c552" x="96.918979" y="234.303125" style="fill: #323034; stroke: #323034; stroke-width: 0.8"/>
      </g>
     </g>
     <g id="text_1">
      <!-- $\mathdefault{0}$ -->
      <g style="fill: #323034" transform="translate(92.918979 252.230625) scale(0.16 -0.16)">
       <defs>
        <path id="STIXGeneral-Regular-30" d="M 3046 2112 
Q 3046 1683 2963 1302 
Q 2880 922 2717 602 
Q 2554 282 2266 96 
Q 1978 -90 1600 -90 
Q 1210 -90 915 108 
Q 621 307 461 640 
Q 301 973 227 1350 
Q 154 1728 154 2150 
Q 154 2746 301 3222 
Q 448 3699 790 4012 
Q 1133 4326 1626 4326 
Q 2253 4326 2649 3712 
Q 3046 3098 3046 2112 
z
M 2432 2080 
Q 2432 3091 2217 3625 
Q 2003 4160 1587 4160 
Q 1190 4160 979 3622 
Q 768 3085 768 2106 
Q 768 1120 979 598 
Q 1190 77 1600 77 
Q 2003 77 2217 598 
Q 2432 1120 2432 2080 
z
" transform="scale(0.015625)"/>
       </defs>
       <use xlink:href="#STIXGeneral-Regular-30" transform="translate(0 0.40625)"/>
      </g>
     </g>
    </g>
    <g id="xtick_2">
     <g id="line2d_3">
      <path d="M 187.214437 234.303125 
L 187.214437 22.873125 
" clip-path="url(#p1731ac6e44)" style="fill: none; stroke: #b1afb5; stroke-opacity: 0.3; stroke-width: 0.5; stroke-linecap: square"/>
     </g>
     <g id="line2d_4">
      <g>
       <use xlink:href="#m028e74c552" x="187.214437" y="234.303125" style="fill: #323034; stroke: #323034; stroke-width: 0.8"/>
      </g>
     </g>
     <g id="text_2">
      <!-- $\mathdefault{2}$ -->
      <g style="fill: #323034" transform="translate(183.214437 252.230625) scale(0.16 -0.16)">
       <defs>
        <path id="STIXGeneral-Regular-32" d="M 3034 877 
L 2688 0 
L 186 0 
L 186 77 
L 1325 1286 
Q 1773 1754 1965 2144 
Q 2157 2534 2157 2950 
Q 2157 3379 1920 3616 
Q 1683 3853 1267 3853 
Q 922 3853 720 3673 
Q 518 3494 326 3021 
L 192 3053 
Q 301 3648 630 3987 
Q 960 4326 1523 4326 
Q 2054 4326 2380 4006 
Q 2707 3686 2707 3200 
Q 2707 2477 1888 1613 
L 832 486 
L 2330 486 
Q 2541 486 2665 569 
Q 2790 653 2944 915 
L 3034 877 
z
" transform="scale(0.015625)"/>
       </defs>
       <use xlink:href="#STIXGeneral-Regular-32" transform="translate(0 0.40625)"/>
      </g>
     </g>
    </g>
    <g id="xtick_3">
     <g id="line2d_5">
      <path d="M 277.509895 234.303125 
L 277.509895 22.873125 
" clip-path="url(#p1731ac6e44)" style="fill: none; stroke: #b1afb5; stroke-opacity: 0.3; stroke-width: 0.5; stroke-linecap: square"/>
     </g>
     <g id="line2d_6">
      <g>
       <use xlink:href="#m028e74c552" x="277.509895" y="234.303125" style="fill: #323034; stroke: #323034; stroke-width: 0.8"/>
      </g>
     </g>
     <g id="text_3">
      <!-- $\mathdefault{4}$ -->
      <g style="fill: #323034" transform="translate(273.509895 252.230625) scale(0.16 -0.16)">
       <defs>
        <path id="STIXGeneral-Regular-34" d="M 3027 1069 
L 2368 1069 
L 2368 0 
L 1869 0 
L 1869 1069 
L 77 1069 
L 77 1478 
L 2086 4326 
L 2368 4326 
L 2368 1478 
L 3027 1478 
L 3027 1069 
z
M 1869 1478 
L 1869 3674 
L 333 1478 
L 1869 1478 
z
" transform="scale(0.015625)"/>
       </defs>
       <use xlink:href="#STIXGeneral-Regular-34" transform="translate(0 0.40625)"/>
      </g>
     </g>
    </g>
    <g id="xtick_4">
     <g id="line2d_7">
      <path d="M 367.805353 234.303125 
L 367.805353 22.873125 
" clip-path="url(#p1731ac6e44)" style="fill: none; stroke: #b1afb5; stroke-opacity: 0.3; stroke-width: 0.5; stroke-linecap: square"/>
     </g>
     <g id="line2d_8">
      <g>
       <use xlink:href="#m028e74c552" x="367.805353" y="234.303125" style="fill: #323034; stroke: #323034; stroke-width: 0.8"/>
      </g>
     </g>
     <g id="text_4">
      <!-- $\mathdefault{6}$ -->
      <g style="fill: #323034" transform="translate(363.805353 252.230625) scale(0.16 -0.16)">
       <defs>
        <path id="STIXGeneral-Regular-36" d="M 2854 4378 
L 2867 4275 
Q 2112 4154 1606 3664 
Q 1101 3174 973 2451 
Q 1344 2739 1786 2739 
Q 2349 2739 2672 2380 
Q 2995 2022 2995 1402 
Q 2995 774 2669 378 
Q 2291 -90 1651 -90 
Q 870 -90 518 557 
Q 218 1107 218 1786 
Q 218 2835 915 3552 
Q 1312 3962 1731 4131 
Q 2150 4301 2854 4378 
z
M 2419 1203 
Q 2419 2445 1555 2445 
Q 1235 2445 1024 2275 
Q 813 2106 813 1702 
Q 813 954 1046 522 
Q 1280 90 1722 90 
Q 2061 90 2240 394 
Q 2419 698 2419 1203 
z
" transform="scale(0.015625)"/>
       </defs>
       <use xlink:href="#STIXGeneral-Regular-36" transform="translate(0 0.59375)"/>
      </g>
     </g>
    </g>
    <g id="xtick_5">
     <g id="line2d_9">
      <path d="M 458.10081 234.303125 
L 458.10081 22.873125 
" clip-path="url(#p1731ac6e44)" style="fill: none; stroke: #b1afb5; stroke-opacity: 0.3; stroke-width: 0.5; stroke-linecap: square"/>
     </g>
     <g id="line2d_10">
      <g>
       <use xlink:href="#m028e74c552" x="458.10081" y="234.303125" style="fill: #323034; stroke: #323034; stroke-width: 0.8"/>
      </g>
     </g>
     <g id="text_5">
      <!-- $\mathdefault{8}$ -->
      <g style="fill: #323034" transform="translate(454.10081 252.230625) scale(0.16 -0.16)">
       <defs>
        <path id="STIXGeneral-Regular-38" d="M 2848 992 
Q 2848 499 2505 204 
Q 2163 -90 1587 -90 
Q 1050 -90 704 204 
Q 358 499 358 954 
Q 358 1293 524 1533 
Q 691 1773 1190 2125 
Q 710 2522 553 2765 
Q 397 3008 397 3328 
Q 397 3782 745 4054 
Q 1094 4326 1638 4326 
Q 2106 4326 2410 4060 
Q 2714 3795 2714 3411 
Q 2714 3059 2531 2848 
Q 2349 2637 1856 2374 
Q 2432 1990 2640 1689 
Q 2848 1389 2848 992 
z
M 2272 3411 
Q 2272 3744 2086 3945 
Q 1901 4147 1574 4147 
Q 1248 4147 1059 3977 
Q 870 3808 870 3513 
Q 870 3219 1059 2979 
Q 1248 2739 1670 2490 
Q 1997 2682 2134 2896 
Q 2272 3110 2272 3411 
z
M 1734 1741 
L 1357 1997 
Q 1075 1766 960 1545 
Q 845 1325 845 1011 
Q 845 576 1065 333 
Q 1286 90 1658 90 
Q 1971 90 2166 285 
Q 2362 480 2362 794 
Q 2362 1082 2214 1299 
Q 2067 1517 1734 1741 
z
" transform="scale(0.015625)"/>
       </defs>
       <use xlink:href="#STIXGeneral-Regular-38" transform="translate(0 0.40625)"/>
      </g>
     </g>
    </g>
    <g id="xtick_6">
     <g id="line2d_11">
      <path d="M 548.396268 234.303125 
L 548.396268 22.873125 
" clip-path="url(#p1731ac6e44)" style="fill: none; stroke: #b1afb5; stroke-opacity: 0.3; stroke-width: 0.5; stroke-linecap: square"/>
     </g>
     <g id="line2d_12">
      <g>
       <use xlink:href="#m028e74c552" x="548.396268" y="234.303125" style="fill: #323034; stroke: #323034; stroke-width: 0.8"/>
      </g>
     </g>
     <g id="text_6">
      <!-- $\mathdefault{10}$ -->
      <g style="fill: #323034" transform="translate(540.396268 252.230625) scale(0.16 -0.16)">
       <defs>
        <path id="STIXGeneral-Regular-31" d="M 2522 0 
L 755 0 
L 755 96 
Q 1107 115 1235 227 
Q 1363 339 1363 608 
L 1363 3482 
Q 1363 3795 1171 3795 
Q 1082 3795 883 3718 
L 710 3654 
L 710 3744 
L 1856 4326 
L 1914 4307 
L 1914 486 
Q 1914 275 2042 185 
Q 2170 96 2522 96 
L 2522 0 
z
" transform="scale(0.015625)"/>
       </defs>
       <use xlink:href="#STIXGeneral-Regular-31" transform="translate(0 0.40625)"/>
       <use xlink:href="#STIXGeneral-Regular-30" transform="translate(49.999985 0.40625)"/>
      </g>
     </g>
    </g>
    <g id="text_7">
     <!-- Quantity of Tickets (10,000s) -->
     <g transform="translate(226.086884 267.031875) scale(0.12 -0.12)">
      <defs>
       <path id="STIXGeneral-Bold-51" d="M 4672 -749 
L 4710 -902 
Q 4128 -1126 3565 -1126 
Q 2669 -1126 2106 -563 
Q 1920 -378 1747 -13 
Q 1024 205 624 777 
Q 224 1350 224 2112 
Q 224 3142 861 3782 
Q 1498 4422 2490 4422 
Q 3488 4422 4121 3782 
Q 4755 3142 4755 2093 
Q 4755 1286 4332 742 
Q 3910 198 3136 -38 
Q 3283 -339 3437 -493 
Q 3770 -826 4224 -826 
Q 4416 -826 4672 -749 
z
M 3622 2144 
Q 3622 3155 3328 3683 
Q 3034 4211 2483 4211 
Q 1946 4211 1651 3676 
Q 1357 3142 1357 2144 
Q 1357 1146 1645 618 
Q 1933 90 2490 90 
Q 3040 90 3331 621 
Q 3622 1152 3622 2144 
z
" transform="scale(0.015625)"/>
       <path id="STIXGeneral-Bold-75" d="M 3443 128 
L 3040 83 
Q 2509 26 2195 -83 
L 2195 333 
Q 1946 96 1738 3 
Q 1530 -90 1267 -90 
Q 864 -90 640 153 
Q 416 397 416 838 
L 416 2381 
Q 416 2605 358 2681 
Q 301 2758 102 2797 
L 102 2950 
L 1306 2950 
L 1306 813 
Q 1306 326 1664 326 
Q 1914 326 2189 627 
L 2189 2394 
Q 2189 2611 2112 2694 
Q 2035 2778 1798 2797 
L 1798 2950 
L 3078 2950 
L 3078 672 
Q 3078 461 3155 371 
Q 3232 282 3443 275 
L 3443 128 
z
" transform="scale(0.015625)"/>
       <path id="STIXGeneral-Bold-61" d="M 3027 410 
L 3123 275 
Q 2784 -90 2406 -90 
Q 2170 -90 2051 9 
Q 1933 109 1882 352 
Q 1395 -90 864 -90 
Q 544 -90 352 80 
Q 160 250 160 589 
Q 160 1018 589 1306 
Q 909 1517 1875 1792 
L 1875 2227 
Q 1875 2541 1756 2681 
Q 1638 2822 1357 2822 
Q 1178 2822 1059 2758 
Q 941 2694 941 2586 
Q 941 2515 1011 2438 
Q 1133 2291 1133 2170 
Q 1133 2003 1011 1894 
Q 890 1786 698 1786 
Q 499 1786 390 1901 
Q 282 2016 282 2221 
Q 282 2598 618 2812 
Q 954 3027 1504 3027 
Q 2093 3027 2425 2803 
Q 2758 2579 2758 2170 
L 2758 499 
Q 2758 320 2893 320 
Q 2938 320 2963 346 
L 3027 410 
z
M 1875 621 
L 1875 1568 
Q 1094 1350 1094 794 
Q 1094 589 1187 477 
Q 1280 365 1427 365 
Q 1696 365 1875 621 
z
" transform="scale(0.015625)"/>
       <path id="STIXGeneral-Bold-6e" d="M 3450 0 
L 1952 0 
L 1952 154 
Q 2112 173 2179 259 
Q 2246 346 2246 538 
L 2246 2054 
Q 2246 2598 1920 2598 
Q 1690 2598 1472 2381 
Q 1363 2272 1363 2227 
L 1363 538 
Q 1363 352 1430 265 
Q 1498 179 1670 154 
L 1670 0 
L 134 0 
L 134 154 
Q 346 198 410 275 
Q 474 352 474 557 
L 474 2406 
Q 474 2611 410 2688 
Q 346 2765 134 2797 
L 134 2950 
L 1357 2950 
L 1357 2470 
L 1363 2470 
Q 1677 3027 2272 3027 
Q 2669 3027 2902 2780 
Q 3136 2534 3136 2118 
L 3136 538 
Q 3136 320 3200 243 
Q 3264 166 3450 154 
L 3450 0 
z
" transform="scale(0.015625)"/>
       <path id="STIXGeneral-Bold-74" d="M 1965 717 
L 2125 646 
Q 1926 250 1712 86 
Q 1498 -77 1178 -77 
Q 845 -77 653 105 
Q 461 288 461 608 
L 461 2669 
L 122 2669 
L 122 2842 
Q 435 3053 646 3299 
Q 858 3546 1190 4032 
L 1350 4032 
L 1350 2950 
L 1958 2950 
L 1958 2669 
L 1350 2669 
L 1350 762 
Q 1350 378 1600 378 
Q 1786 378 1965 717 
z
" transform="scale(0.015625)"/>
       <path id="STIXGeneral-Bold-69" d="M 1376 3923 
Q 1376 3712 1232 3571 
Q 1088 3430 877 3430 
Q 666 3430 525 3571 
Q 384 3712 384 3923 
Q 384 4134 528 4278 
Q 672 4422 890 4422 
Q 1088 4422 1232 4275 
Q 1376 4128 1376 3923 
z
M 1638 0 
L 102 0 
L 102 154 
Q 326 205 384 275 
Q 442 346 442 563 
L 442 2387 
Q 442 2598 374 2675 
Q 307 2752 96 2797 
L 96 2950 
L 1331 2950 
L 1331 544 
Q 1331 339 1398 259 
Q 1466 179 1638 154 
L 1638 0 
z
" transform="scale(0.015625)"/>
       <path id="STIXGeneral-Bold-79" d="M 3085 2950 
L 3085 2797 
Q 2931 2778 2854 2710 
Q 2778 2643 2701 2445 
L 1754 -102 
Q 1466 -877 1261 -1101 
Q 1062 -1312 723 -1312 
Q 448 -1312 275 -1171 
Q 102 -1030 102 -806 
Q 102 -621 211 -499 
Q 320 -378 499 -378 
Q 659 -378 771 -474 
Q 883 -570 883 -710 
Q 883 -736 870 -800 
L 864 -838 
Q 864 -883 896 -915 
Q 928 -947 973 -947 
Q 1216 -947 1395 -422 
L 1510 -83 
L 749 1773 
Q 435 2547 320 2707 
Q 269 2771 102 2797 
L 102 2950 
L 1696 2950 
L 1696 2797 
L 1594 2790 
Q 1363 2771 1363 2630 
Q 1363 2586 1491 2259 
L 1952 1069 
L 2387 2272 
Q 2458 2477 2458 2586 
Q 2458 2701 2387 2745 
Q 2317 2790 2112 2797 
L 2112 2950 
L 3085 2950 
z
" transform="scale(0.015625)"/>
       <path id="STIXGeneral-Bold-20" transform="scale(0.015625)"/>
       <path id="STIXGeneral-Bold-6f" d="M 3046 1466 
Q 3046 794 2633 352 
Q 2221 -90 1600 -90 
Q 992 -90 576 348 
Q 160 787 160 1459 
Q 160 2157 573 2592 
Q 986 3027 1626 3027 
Q 2234 3027 2640 2585 
Q 3046 2144 3046 1466 
z
M 2106 1395 
Q 2106 2214 1997 2521 
Q 1888 2829 1606 2829 
Q 1312 2829 1206 2525 
Q 1101 2221 1101 1395 
Q 1101 698 1216 403 
Q 1331 109 1606 109 
Q 1882 109 1994 393 
Q 2106 678 2106 1395 
z
" transform="scale(0.015625)"/>
       <path id="STIXGeneral-Bold-66" d="M 90 2950 
L 454 2950 
Q 454 3789 710 4096 
Q 979 4422 1574 4422 
Q 1984 4422 2237 4243 
Q 2490 4064 2490 3782 
Q 2490 3603 2381 3488 
Q 2272 3373 2093 3373 
Q 1933 3373 1821 3481 
Q 1709 3590 1709 3738 
Q 1709 3866 1779 3971 
Q 1850 4077 1850 4102 
Q 1850 4224 1664 4224 
Q 1491 4224 1417 4112 
Q 1344 4000 1344 3718 
L 1344 2950 
L 1894 2950 
L 1894 2669 
L 1344 2669 
L 1344 685 
Q 1344 365 1440 262 
Q 1536 160 1869 154 
L 1869 0 
L 90 0 
L 90 154 
Q 307 179 380 259 
Q 454 339 454 557 
L 454 2669 
L 90 2669 
L 90 2950 
z
" transform="scale(0.015625)"/>
       <path id="STIXGeneral-Bold-54" d="M 4070 3040 
L 3885 3040 
Q 3802 3610 3523 3856 
Q 3245 4102 2656 4122 
L 2656 749 
Q 2656 384 2761 288 
Q 2867 192 3283 160 
L 3283 0 
L 998 0 
L 998 160 
Q 1408 192 1513 291 
Q 1619 390 1619 749 
L 1619 4122 
Q 1024 4102 745 3856 
Q 467 3610 384 3040 
L 198 3040 
L 218 4326 
L 4058 4326 
L 4070 3040 
z
" transform="scale(0.015625)"/>
       <path id="STIXGeneral-Bold-63" d="M 2637 698 
L 2752 582 
Q 2490 224 2202 67 
Q 1914 -90 1530 -90 
Q 922 -90 541 326 
Q 160 742 160 1421 
Q 160 2125 595 2576 
Q 1030 3027 1677 3027 
Q 2099 3027 2380 2828 
Q 2662 2630 2662 2323 
Q 2662 2138 2544 2026 
Q 2426 1914 2227 1914 
Q 2061 1914 1965 2035 
Q 1869 2157 1869 2381 
Q 1869 2496 1865 2547 
Q 1862 2598 1849 2665 
Q 1837 2733 1811 2761 
Q 1786 2790 1731 2809 
Q 1677 2829 1600 2829 
Q 1357 2829 1209 2544 
Q 1062 2259 1062 1747 
Q 1062 1094 1299 716 
Q 1536 339 1952 339 
Q 2323 339 2637 698 
z
" transform="scale(0.015625)"/>
       <path id="STIXGeneral-Bold-6b" d="M 3475 0 
L 1978 0 
L 1978 154 
Q 2246 166 2246 275 
Q 2246 352 2093 563 
L 1485 1421 
L 1338 1267 
L 1338 538 
Q 1338 314 1392 250 
Q 1446 186 1670 154 
L 1670 0 
L 141 0 
L 141 154 
Q 448 179 448 538 
L 448 3802 
Q 448 4147 141 4173 
L 141 4326 
L 1338 4326 
L 1338 1568 
L 2157 2387 
Q 2291 2522 2291 2630 
Q 2291 2746 2067 2778 
L 1914 2803 
L 1914 2950 
L 3283 2950 
L 3283 2803 
Q 2982 2765 2768 2617 
Q 2554 2470 2074 1965 
L 3315 250 
Q 3386 154 3475 154 
L 3475 0 
z
" transform="scale(0.015625)"/>
       <path id="STIXGeneral-Bold-65" d="M 2579 806 
L 2733 717 
Q 2451 269 2166 89 
Q 1882 -90 1466 -90 
Q 890 -90 525 342 
Q 160 774 160 1434 
Q 160 2150 528 2588 
Q 896 3027 1498 3027 
Q 2029 3027 2317 2707 
Q 2656 2336 2694 1568 
L 1082 1568 
Q 1101 1299 1133 1116 
Q 1165 934 1241 748 
Q 1318 563 1468 467 
Q 1619 371 1843 371 
Q 2048 371 2214 470 
Q 2381 570 2579 806 
z
M 1907 1805 
L 1907 1939 
Q 1907 2406 1850 2528 
Q 1773 2688 1699 2758 
Q 1626 2829 1498 2829 
Q 1267 2829 1158 2595 
Q 1050 2362 1050 1805 
L 1907 1805 
z
" transform="scale(0.015625)"/>
       <path id="STIXGeneral-Bold-73" d="M 2176 2086 
L 2016 2086 
Q 1894 2445 1715 2611 
Q 1498 2816 1235 2816 
Q 1056 2816 934 2710 
Q 813 2605 813 2445 
Q 813 2278 957 2147 
Q 1101 2016 1427 1882 
Q 1907 1683 2108 1452 
Q 2310 1222 2310 883 
Q 2310 454 2035 182 
Q 1760 -90 1325 -90 
Q 992 -90 634 58 
Q 538 96 486 96 
Q 416 96 320 -83 
L 160 -83 
L 160 973 
L 339 973 
Q 544 128 1216 128 
Q 1434 128 1565 243 
Q 1696 358 1696 544 
Q 1696 698 1555 829 
Q 1414 960 1082 1101 
Q 602 1306 387 1539 
Q 173 1773 173 2093 
Q 173 2496 457 2761 
Q 742 3027 1178 3027 
Q 1395 3027 1677 2931 
Q 1818 2886 1875 2886 
Q 1984 2886 2035 3014 
L 2176 3014 
L 2176 2086 
z
" transform="scale(0.015625)"/>
       <path id="STIXGeneral-Bold-28" d="M 1958 -896 
L 1958 -1075 
Q 1485 -794 1235 -566 
Q 986 -339 736 19 
Q 294 653 294 1658 
Q 294 2925 1133 3834 
Q 1318 4032 1491 4157 
Q 1664 4282 1958 4442 
L 1958 4269 
Q 1338 3757 1178 3267 
Q 1018 2778 1018 1651 
Q 1018 614 1197 108 
Q 1376 -397 1958 -896 
z
" transform="scale(0.015625)"/>
       <path id="STIXGeneral-Bold-31" d="M 2822 0 
L 435 0 
L 435 154 
Q 909 160 1049 285 
Q 1190 410 1190 826 
L 1190 3245 
Q 1190 3693 960 3693 
Q 806 3693 544 3590 
L 416 3539 
L 416 3706 
L 2022 4403 
L 2138 4403 
L 2138 755 
Q 2138 390 2262 275 
Q 2387 160 2822 154 
L 2822 0 
z
" transform="scale(0.015625)"/>
       <path id="STIXGeneral-Bold-30" d="M 3046 2157 
Q 3046 1152 2643 534 
Q 2240 -83 1606 -83 
Q 973 -83 563 531 
Q 154 1146 154 2138 
Q 154 2464 198 2774 
Q 243 3085 355 3385 
Q 467 3686 630 3907 
Q 794 4128 1050 4265 
Q 1306 4403 1619 4403 
Q 2099 4403 2435 4054 
Q 2771 3706 2908 3216 
Q 3046 2726 3046 2157 
z
M 2035 1434 
L 2035 2874 
Q 2035 3584 1932 3904 
Q 1830 4224 1593 4224 
Q 1357 4224 1261 3913 
Q 1165 3603 1165 2874 
L 1165 1434 
Q 1165 717 1267 406 
Q 1370 96 1606 96 
Q 1843 96 1939 403 
Q 2035 710 2035 1434 
z
" transform="scale(0.015625)"/>
       <path id="STIXGeneral-Bold-2c" d="M 365 -1152 
L 294 -1011 
Q 992 -525 992 -160 
Q 992 -26 870 -26 
Q 851 -26 800 -32 
Q 749 -38 717 -38 
Q 512 -38 381 96 
Q 250 230 250 448 
Q 250 698 397 845 
Q 544 992 787 992 
Q 1088 992 1257 793 
Q 1427 595 1427 250 
Q 1427 -595 365 -1152 
z
" transform="scale(0.015625)"/>
       <path id="STIXGeneral-Bold-29" d="M 173 4262 
L 173 4442 
Q 653 4154 912 3910 
Q 1171 3667 1395 3302 
Q 1837 2566 1837 1709 
Q 1837 442 998 -467 
Q 813 -666 640 -790 
Q 467 -915 173 -1075 
L 173 -902 
Q 397 -730 550 -579 
Q 704 -429 813 -243 
Q 922 -58 979 102 
Q 1037 262 1069 534 
Q 1101 806 1107 1049 
Q 1114 1293 1114 1715 
Q 1114 2822 950 3296 
Q 787 3770 173 4262 
z
" transform="scale(0.015625)"/>
      </defs>
      <use xlink:href="#STIXGeneral-Bold-51"/>
      <use xlink:href="#STIXGeneral-Bold-75" x="77.799988"/>
      <use xlink:href="#STIXGeneral-Bold-61" x="133.399979"/>
      <use xlink:href="#STIXGeneral-Bold-6e" x="183.399963"/>
      <use xlink:href="#STIXGeneral-Bold-74" x="238.999954"/>
      <use xlink:href="#STIXGeneral-Bold-69" x="272.299942"/>
      <use xlink:href="#STIXGeneral-Bold-74" x="300.09993"/>
      <use xlink:href="#STIXGeneral-Bold-79" x="333.399918"/>
      <use xlink:href="#STIXGeneral-Bold-20" x="383.399902"/>
      <use xlink:href="#STIXGeneral-Bold-6f" x="408.399887"/>
      <use xlink:href="#STIXGeneral-Bold-66" x="458.399872"/>
      <use xlink:href="#STIXGeneral-Bold-20" x="491.69986"/>
      <use xlink:href="#STIXGeneral-Bold-54" x="516.699844"/>
      <use xlink:href="#STIXGeneral-Bold-69" x="583.399841"/>
      <use xlink:href="#STIXGeneral-Bold-63" x="611.199829"/>
      <use xlink:href="#STIXGeneral-Bold-6b" x="655.599823"/>
      <use xlink:href="#STIXGeneral-Bold-65" x="711.199814"/>
      <use xlink:href="#STIXGeneral-Bold-74" x="755.599808"/>
      <use xlink:href="#STIXGeneral-Bold-73" x="788.899796"/>
      <use xlink:href="#STIXGeneral-Bold-20" x="827.799789"/>
      <use xlink:href="#STIXGeneral-Bold-28" x="852.799774"/>
      <use xlink:href="#STIXGeneral-Bold-31" x="886.099762"/>
      <use xlink:href="#STIXGeneral-Bold-30" x="936.099747"/>
      <use xlink:href="#STIXGeneral-Bold-2c" x="986.099731"/>
      <use xlink:href="#STIXGeneral-Bold-30" x="1011.099716"/>
      <use xlink:href="#STIXGeneral-Bold-30" x="1061.099701"/>
      <use xlink:href="#STIXGeneral-Bold-30" x="1111.099686"/>
      <use xlink:href="#STIXGeneral-Bold-73" x="1161.09967"/>
      <use xlink:href="#STIXGeneral-Bold-29" x="1199.999664"/>
     </g>
    </g>
   </g>
   <g id="matplotlib.axis_2">
    <g id="ytick_1">
     <g id="line2d_13">
      <path d="M 51.77125 234.303125 
L 548.396268 234.303125 
" clip-path="url(#p1731ac6e44)" style="fill: none; stroke: #b1afb5; stroke-opacity: 0.3; stroke-width: 0.5; stroke-linecap: square"/>
     </g>
     <g id="line2d_14">
      <defs>
       <path id="m845926a01b" d="M 0 0 
L -3.5 0 
" style="stroke: #323034; stroke-width: 0.8"/>
      </defs>
      <g>
       <use xlink:href="#m845926a01b" x="51.77125" y="234.303125" style="fill: #323034; stroke: #323034; stroke-width: 0.8"/>
      </g>
     </g>
     <g id="text_8">
      <!-- $\mathdefault{0}$ -->
      <g style="fill: #323034" transform="translate(36.77125 239.766875) scale(0.16 -0.16)">
       <use xlink:href="#STIXGeneral-Regular-30" transform="translate(0 0.40625)"/>
      </g>
     </g>
    </g>
    <g id="ytick_2">
     <g id="line2d_15">
      <path d="M 51.77125 195.861307 
L 548.396268 195.861307 
" clip-path="url(#p1731ac6e44)" style="fill: none; stroke: #b1afb5; stroke-opacity: 0.3; stroke-width: 0.5; stroke-linecap: square"/>
     </g>
     <g id="line2d_16">
      <g>
       <use xlink:href="#m845926a01b" x="51.77125" y="195.861307" style="fill: #323034; stroke: #323034; stroke-width: 0.8"/>
      </g>
     </g>
     <g id="text_9">
      <!-- $\mathdefault{20}$ -->
      <g style="fill: #323034" transform="translate(28.77125 201.325057) scale(0.16 -0.16)">
       <use xlink:href="#STIXGeneral-Regular-32" transform="translate(0 0.40625)"/>
       <use xlink:href="#STIXGeneral-Regular-30" transform="translate(49.999985 0.40625)"/>
      </g>
     </g>
    </g>
    <g id="ytick_3">
     <g id="line2d_17">
      <path d="M 51.77125 157.419489 
L 548.396268 157.419489 
" clip-path="url(#p1731ac6e44)" style="fill: none; stroke: #b1afb5; stroke-opacity: 0.3; stroke-width: 0.5; stroke-linecap: square"/>
     </g>
     <g id="line2d_18">
      <g>
       <use xlink:href="#m845926a01b" x="51.77125" y="157.419489" style="fill: #323034; stroke: #323034; stroke-width: 0.8"/>
      </g>
     </g>
     <g id="text_10">
      <!-- $\mathdefault{40}$ -->
      <g style="fill: #323034" transform="translate(28.77125 162.883239) scale(0.16 -0.16)">
       <use xlink:href="#STIXGeneral-Regular-34" transform="translate(0 0.40625)"/>
       <use xlink:href="#STIXGeneral-Regular-30" transform="translate(49.999985 0.40625)"/>
      </g>
     </g>
    </g>
    <g id="ytick_4">
     <g id="line2d_19">
      <path d="M 51.77125 118.97767 
L 548.396268 118.97767 
" clip-path="url(#p1731ac6e44)" style="fill: none; stroke: #b1afb5; stroke-opacity: 0.3; stroke-width: 0.5; stroke-linecap: square"/>
     </g>
     <g id="line2d_20">
      <g>
       <use xlink:href="#m845926a01b" x="51.77125" y="118.97767" style="fill: #323034; stroke: #323034; stroke-width: 0.8"/>
      </g>
     </g>
     <g id="text_11">
      <!-- $\mathdefault{60}$ -->
      <g style="fill: #323034" transform="translate(28.77125 124.44142) scale(0.16 -0.16)">
       <use xlink:href="#STIXGeneral-Regular-36" transform="translate(0 0.59375)"/>
       <use xlink:href="#STIXGeneral-Regular-30" transform="translate(49.999985 0.59375)"/>
      </g>
     </g>
    </g>
    <g id="ytick_5">
     <g id="line2d_21">
      <path d="M 51.77125 80.535852 
L 548.396268 80.535852 
" clip-path="url(#p1731ac6e44)" style="fill: none; stroke: #b1afb5; stroke-opacity: 0.3; stroke-width: 0.5; stroke-linecap: square"/>
     </g>
     <g id="line2d_22">
      <g>
       <use xlink:href="#m845926a01b" x="51.77125" y="80.535852" style="fill: #323034; stroke: #323034; stroke-width: 0.8"/>
      </g>
     </g>
     <g id="text_12">
      <!-- $\mathdefault{80}$ -->
      <g style="fill: #323034" transform="translate(28.77125 85.999602) scale(0.16 -0.16)">
       <use xlink:href="#STIXGeneral-Regular-38" transform="translate(0 0.40625)"/>
       <use xlink:href="#STIXGeneral-Regular-30" transform="translate(49.999985 0.40625)"/>
      </g>
     </g>
    </g>
    <g id="ytick_6">
     <g id="line2d_23">
      <path d="M 51.77125 42.094034 
L 548.396268 42.094034 
" clip-path="url(#p1731ac6e44)" style="fill: none; stroke: #b1afb5; stroke-opacity: 0.3; stroke-width: 0.5; stroke-linecap: square"/>
     </g>
     <g id="line2d_24">
      <g>
       <use xlink:href="#m845926a01b" x="51.77125" y="42.094034" style="fill: #323034; stroke: #323034; stroke-width: 0.8"/>
      </g>
     </g>
     <g id="text_13">
      <!-- $\mathdefault{100}$ -->
      <g style="fill: #323034" transform="translate(20.77125 47.557784) scale(0.16 -0.16)">
       <use xlink:href="#STIXGeneral-Regular-31" transform="translate(0 0.40625)"/>
       <use xlink:href="#STIXGeneral-Regular-30" transform="translate(49.999985 0.40625)"/>
       <use xlink:href="#STIXGeneral-Regular-30" transform="translate(99.999969 0.40625)"/>
      </g>
     </g>
    </g>
    <g id="text_14">
     <!-- Price (£) -->
     <g transform="translate(15.31125 150.410312) rotate(-90) scale(0.12 -0.12)">
      <defs>
       <path id="STIXGeneral-Bold-50" d="M 102 4326 
L 2118 4326 
Q 2938 4326 3389 4035 
Q 3840 3744 3840 3168 
Q 3840 2784 3625 2499 
Q 3411 2214 3014 2067 
Q 2810 1990 2563 1968 
Q 2317 1946 1677 1939 
L 1677 710 
Q 1677 384 1766 294 
Q 1856 205 2234 160 
L 2234 0 
L 102 0 
L 102 160 
Q 314 179 390 218 
Q 538 275 589 409 
Q 640 544 640 806 
L 640 3539 
Q 640 3910 541 4022 
Q 442 4134 102 4166 
L 102 4326 
z
M 1677 3878 
L 1677 2163 
Q 2278 2170 2508 2368 
Q 2739 2566 2739 3098 
Q 2739 3635 2566 3868 
Q 2394 4102 1997 4102 
Q 1677 4102 1677 3878 
z
" transform="scale(0.015625)"/>
       <path id="STIXGeneral-Bold-72" d="M 1395 2950 
L 1395 2426 
Q 1619 2752 1817 2889 
Q 2016 3027 2259 3027 
Q 2483 3027 2630 2883 
Q 2778 2739 2778 2522 
Q 2778 2330 2666 2208 
Q 2554 2086 2374 2086 
Q 2138 2086 1990 2330 
Q 1901 2477 1811 2477 
Q 1645 2477 1533 2285 
Q 1421 2093 1421 1811 
L 1421 678 
Q 1421 371 1507 272 
Q 1594 173 1882 154 
L 1882 0 
L 186 0 
L 186 154 
Q 397 192 464 265 
Q 531 339 531 538 
L 531 2387 
Q 531 2611 460 2688 
Q 390 2765 179 2797 
L 179 2950 
L 1395 2950 
z
" transform="scale(0.015625)"/>
       <path id="STIXGeneral-Bold-a3" d="M 2906 1171 
L 3053 1171 
Q 2995 486 2810 218 
Q 2592 -102 2214 -102 
Q 2016 -102 1849 -16 
Q 1683 70 1414 314 
Q 1107 -83 698 -83 
Q 429 -83 281 57 
Q 134 198 134 461 
Q 134 1050 813 1050 
Q 960 1050 1139 1005 
Q 1126 1280 877 1971 
L 250 1971 
L 250 2387 
L 762 2387 
Q 672 2893 672 3142 
Q 672 3443 809 3718 
Q 947 3994 1178 4160 
Q 1491 4378 1971 4378 
Q 2419 4378 2678 4182 
Q 2938 3987 2938 3654 
Q 2938 3437 2822 3315 
Q 2707 3194 2502 3194 
Q 2323 3194 2214 3309 
Q 2106 3424 2106 3610 
Q 2106 3661 2112 3753 
Q 2118 3846 2118 3910 
Q 2125 4045 2048 4115 
Q 1971 4186 1837 4186 
Q 1677 4186 1577 4077 
Q 1478 3968 1478 3789 
Q 1478 3488 1728 2387 
L 2458 2387 
L 2458 1971 
L 1760 1971 
Q 1773 1728 1773 1626 
Q 1773 1235 1645 858 
Q 2035 717 2259 717 
Q 2560 717 2697 813 
Q 2835 909 2906 1171 
z
M 1158 550 
Q 928 755 698 755 
Q 531 755 435 665 
Q 339 576 339 422 
Q 339 282 435 195 
Q 531 109 698 109 
Q 877 109 985 211 
Q 1094 314 1158 550 
z
" transform="scale(0.015625)"/>
      </defs>
      <use xlink:href="#STIXGeneral-Bold-50"/>
      <use xlink:href="#STIXGeneral-Bold-72" x="61.099991"/>
      <use xlink:href="#STIXGeneral-Bold-69" x="105.499985"/>
      <use xlink:href="#STIXGeneral-Bold-63" x="133.299973"/>
      <use xlink:href="#STIXGeneral-Bold-65" x="177.699966"/>
      <use xlink:href="#STIXGeneral-Bold-20" x="222.09996"/>
      <use xlink:href="#STIXGeneral-Bold-28" x="247.099945"/>
      <use xlink:href="#STIXGeneral-Bold-a3" x="280.399933"/>
      <use xlink:href="#STIXGeneral-Bold-29" x="330.399918"/>
     </g>
    </g>
   </g>
   <g id="line2d_25">
    <path d="M 96.918979 42.094034 
L 101.479356 43.647239 
L 106.039732 45.200444 
L 110.600109 46.753648 
L 115.160486 48.306853 
L 119.720862 49.860058 
L 124.281239 51.413263 
L 128.841616 52.966468 
L 133.401992 54.519672 
L 137.962369 56.072877 
L 142.522746 57.626082 
L 147.083122 59.179287 
L 151.643499 60.732491 
L 156.203876 62.285696 
L 160.764252 63.838901 
L 165.324629 65.392106 
L 169.885006 66.94531 
L 174.445382 68.498515 
L 179.005759 70.05172 
L 183.566135 71.604925 
L 188.126512 73.15813 
L 192.686889 74.711334 
L 197.247265 76.264539 
L 201.807642 77.817744 
L 206.368019 79.370949 
L 210.928395 80.924153 
L 215.488772 82.477358 
L 220.049149 84.030563 
L 224.609525 85.583768 
L 229.169902 87.136973 
L 233.730279 88.690177 
L 238.290655 90.243382 
L 242.851032 91.796587 
L 247.411409 93.349792 
L 251.971785 94.902996 
L 256.532162 96.456201 
L 261.092539 98.009406 
L 265.652915 99.562611 
L 270.213292 101.115816 
L 274.773669 102.66902 
L 279.334045 104.222225 
L 283.894422 105.77543 
L 288.454799 107.328635 
L 293.015175 108.881839 
L 297.575552 110.435044 
L 302.135929 111.988249 
L 306.696305 113.541454 
L 311.256682 115.094659 
L 315.817059 116.647863 
L 320.377435 118.201068 
L 324.937812 119.754273 
L 329.498189 121.307478 
L 334.058565 122.860682 
L 338.618942 124.413887 
L 343.179319 125.967092 
L 347.739695 127.520297 
L 352.300072 129.073501 
L 356.860449 130.626706 
L 361.420825 132.179911 
L 365.981202 133.733116 
L 370.541579 135.286321 
L 375.101955 136.839525 
L 379.662332 138.39273 
L 384.222709 139.945935 
L 388.783085 141.49914 
L 393.343462 143.052344 
L 397.903839 144.605549 
L 402.464215 146.158754 
L 407.024592 147.711959 
L 411.584969 149.265164 
L 416.145345 150.818368 
L 420.705722 152.371573 
L 425.266098 153.924778 
L 429.826475 155.477983 
L 434.386852 157.031187 
L 438.947228 158.584392 
L 443.507605 160.137597 
L 448.067982 161.690802 
L 452.628358 163.244007 
L 457.188735 164.797211 
L 461.749112 166.350416 
L 466.309488 167.903621 
L 470.869865 169.456826 
L 475.430242 171.01003 
L 479.990618 172.563235 
L 484.550995 174.11644 
L 489.111372 175.669645 
L 493.671748 177.22285 
L 498.232125 178.776054 
L 502.792502 180.329259 
L 507.352878 181.882464 
L 511.913255 183.435669 
L 516.473632 184.988873 
L 521.034008 186.542078 
L 525.594385 188.095283 
L 530.154762 189.648488 
L 534.715138 191.201692 
L 539.275515 192.754897 
L 543.835892 194.308102 
L 548.396268 195.861307 
" clip-path="url(#p1731ac6e44)" style="fill: none; stroke: #0000ff; stroke-width: 2.5; stroke-linecap: square"/>
   </g>
   <g id="line2d_26">
    <path d="M 322.657624 234.303125 
L 322.657624 3.652216 
" clip-path="url(#p1731ac6e44)" style="fill: none; stroke: #ff0000; stroke-width: 2.5; stroke-linecap: square"/>
   </g>
   <g id="line2d_27">
    <path d="M 51.77125 157.419489 
L 548.396268 157.419489 
" clip-path="url(#p1731ac6e44)" style="fill: none; stroke-dasharray: 5.55,2.4; stroke-dashoffset: 0; stroke: #008000; stroke-opacity: 0.7; stroke-width: 1.5"/>
   </g>
   <g id="line2d_28">
    <path d="M 51.77125 118.97767 
L 548.396268 118.97767 
" clip-path="url(#p1731ac6e44)" style="fill: none; stroke-dasharray: 5.55,2.4; stroke-dashoffset: 0; stroke: #800080; stroke-opacity: 0.7; stroke-width: 1.5"/>
   </g>
   <g id="line2d_29">
    <path d="M 322.657624 234.303125 
L 322.657624 22.873125 
" clip-path="url(#p1731ac6e44)" style="fill: none; stroke-dasharray: 3,4.95; stroke-dashoffset: 0; stroke: #808080; stroke-opacity: 0.5; stroke-width: 3"/>
   </g>
   <g id="patch_3">
    <path d="M 51.77125 234.303125 
L 51.77125 22.873125 
" style="fill: none; stroke: #000000; stroke-width: 0.6; stroke-linejoin: miter; stroke-linecap: square"/>
   </g>
   <g id="patch_4">
    <path d="M 51.77125 234.303125 
L 548.396268 234.303125 
" style="fill: none; stroke: #000000; stroke-width: 0.6; stroke-linejoin: miter; stroke-linecap: square"/>
   </g>
   <g id="text_15">
    <!-- p (face value) -->
    <g style="fill: #008000" transform="translate(74.345114 154.959489) scale(0.12 -0.12)">
     <defs>
      <path id="STIXGeneral-Bold-70" d="M 1357 2950 
L 1357 2509 
Q 1517 2790 1712 2908 
Q 1907 3027 2195 3027 
Q 2739 3027 3046 2659 
Q 3354 2291 3354 1594 
Q 3354 838 3024 377 
Q 2694 -83 2125 -83 
Q 1907 -83 1753 -3 
Q 1600 77 1370 301 
L 1370 -506 
Q 1370 -838 1475 -992 
Q 1581 -1146 1862 -1158 
L 1862 -1312 
L 122 -1312 
L 122 -1158 
Q 346 -1120 413 -1040 
Q 480 -960 480 -755 
L 480 2381 
Q 480 2592 409 2678 
Q 339 2765 128 2797 
L 128 2950 
L 1357 2950 
z
M 1370 2214 
L 1370 685 
Q 1446 499 1577 384 
Q 1709 269 1862 269 
Q 2406 269 2406 1498 
Q 2406 2662 1920 2662 
Q 1683 2662 1485 2426 
Q 1370 2291 1370 2214 
z
" transform="scale(0.015625)"/>
      <path id="STIXGeneral-Bold-76" d="M 3104 2950 
L 3104 2797 
Q 2950 2784 2886 2723 
Q 2822 2662 2733 2445 
L 1709 -90 
L 1542 -90 
L 774 1805 
Q 474 2547 352 2707 
Q 301 2771 134 2797 
L 134 2950 
L 1734 2950 
L 1734 2797 
L 1619 2784 
Q 1395 2758 1395 2630 
Q 1395 2573 1453 2432 
L 1958 1133 
L 2419 2298 
Q 2490 2464 2490 2586 
Q 2490 2701 2416 2742 
Q 2342 2784 2138 2797 
L 2138 2950 
L 3104 2950 
z
" transform="scale(0.015625)"/>
      <path id="STIXGeneral-Bold-6c" d="M 1638 0 
L 102 0 
L 102 154 
Q 429 179 429 557 
L 429 3757 
Q 429 4147 96 4173 
L 96 4326 
L 1318 4326 
L 1318 557 
Q 1318 346 1395 253 
Q 1472 160 1638 154 
L 1638 0 
z
" transform="scale(0.015625)"/>
     </defs>
     <use xlink:href="#STIXGeneral-Bold-70"/>
     <use xlink:href="#STIXGeneral-Bold-20" x="55.599991"/>
     <use xlink:href="#STIXGeneral-Bold-28" x="80.599976"/>
     <use xlink:href="#STIXGeneral-Bold-66" x="113.899963"/>
     <use xlink:href="#STIXGeneral-Bold-61" x="147.199951"/>
     <use xlink:href="#STIXGeneral-Bold-63" x="197.199936"/>
     <use xlink:href="#STIXGeneral-Bold-65" x="241.59993"/>
     <use xlink:href="#STIXGeneral-Bold-20" x="285.999924"/>
     <use xlink:href="#STIXGeneral-Bold-76" x="310.999908"/>
     <use xlink:href="#STIXGeneral-Bold-61" x="360.999893"/>
     <use xlink:href="#STIXGeneral-Bold-6c" x="410.999878"/>
     <use xlink:href="#STIXGeneral-Bold-75" x="438.799866"/>
     <use xlink:href="#STIXGeneral-Bold-65" x="494.399857"/>
     <use xlink:href="#STIXGeneral-Bold-29" x="538.79985"/>
    </g>
   </g>
   <g id="text_16">
    <!-- p' (equilibrium/resale) -->
    <g style="fill: #800080" transform="translate(74.345114 116.51767) scale(0.12 -0.12)">
     <defs>
      <path id="STIXGeneral-Bold-27" d="M 1030 2586 
L 755 2586 
Q 480 3898 480 3949 
Q 480 4166 585 4294 
Q 691 4422 889 4422 
Q 1088 4422 1197 4304 
Q 1306 4186 1306 3974 
Q 1306 3782 1030 2586 
z
" transform="scale(0.015625)"/>
      <path id="STIXGeneral-Bold-71" d="M 3430 -1312 
L 1722 -1312 
L 1722 -1158 
Q 2029 -1114 2109 -1008 
Q 2189 -902 2189 -576 
L 2189 269 
Q 1907 -90 1401 -90 
Q 896 -90 557 316 
Q 218 723 218 1402 
Q 218 2093 611 2560 
Q 1005 3027 1638 3027 
Q 1882 3027 2061 2950 
Q 2240 2874 2483 2669 
L 2976 3021 
L 3078 3021 
L 3078 -787 
Q 3078 -979 3142 -1046 
Q 3206 -1114 3430 -1158 
L 3430 -1312 
z
M 2189 627 
L 2189 2266 
Q 2189 2528 2070 2675 
Q 1952 2822 1760 2822 
Q 1478 2822 1315 2496 
Q 1152 2170 1152 1510 
Q 1152 883 1312 569 
Q 1472 256 1747 256 
Q 1926 256 2057 355 
Q 2189 454 2189 627 
z
" transform="scale(0.015625)"/>
      <path id="STIXGeneral-Bold-62" d="M 1350 4326 
L 1350 2669 
Q 1690 3027 2131 3027 
Q 2662 3027 2998 2611 
Q 3334 2195 3334 1530 
Q 3334 806 2931 358 
Q 2528 -90 1888 -90 
Q 1440 -90 1043 275 
L 538 -83 
L 461 -83 
L 461 3802 
Q 461 3994 397 4061 
Q 333 4128 109 4173 
L 109 4326 
L 1350 4326 
z
M 1350 2304 
L 1350 621 
Q 1350 390 1472 252 
Q 1594 115 1792 115 
Q 2394 115 2394 1414 
Q 2394 2682 1798 2682 
Q 1638 2682 1536 2595 
Q 1434 2509 1350 2304 
z
" transform="scale(0.015625)"/>
      <path id="STIXGeneral-Bold-6d" d="M 5210 0 
L 3693 0 
L 3693 154 
Q 3872 166 3936 246 
Q 4000 326 4000 531 
L 4000 1990 
Q 4000 2598 3661 2598 
Q 3475 2598 3290 2438 
Q 3232 2394 3174 2323 
Q 3117 2253 3117 2227 
L 3117 531 
Q 3117 346 3181 259 
Q 3245 173 3411 154 
L 3411 0 
L 1926 0 
L 1926 154 
Q 2099 166 2163 249 
Q 2227 333 2227 531 
L 2227 2067 
Q 2227 2355 2147 2476 
Q 2067 2598 1882 2598 
Q 1760 2598 1552 2454 
Q 1344 2310 1344 2202 
L 1344 531 
Q 1344 346 1405 262 
Q 1466 179 1632 154 
L 1632 0 
L 102 0 
L 102 154 
Q 314 192 384 272 
Q 454 352 454 550 
L 454 2387 
Q 454 2611 384 2688 
Q 314 2765 96 2797 
L 96 2950 
L 1325 2950 
L 1325 2470 
L 1344 2470 
Q 1530 2765 1744 2896 
Q 1958 3027 2266 3027 
Q 2566 3027 2752 2899 
Q 2938 2771 3085 2470 
Q 3334 2778 3542 2902 
Q 3750 3027 4026 3027 
Q 4422 3027 4656 2784 
Q 4890 2541 4890 2118 
L 4890 531 
Q 4890 326 4957 243 
Q 5024 160 5210 154 
L 5210 0 
z
" transform="scale(0.015625)"/>
      <path id="STIXGeneral-Bold-2f" d="M 1933 4422 
L 422 -122 
L -154 -122 
L 1357 4422 
L 1933 4422 
z
" transform="scale(0.015625)"/>
     </defs>
     <use xlink:href="#STIXGeneral-Bold-70"/>
     <use xlink:href="#STIXGeneral-Bold-27" x="55.599991"/>
     <use xlink:href="#STIXGeneral-Bold-20" x="83.399979"/>
     <use xlink:href="#STIXGeneral-Bold-28" x="108.399963"/>
     <use xlink:href="#STIXGeneral-Bold-65" x="141.699951"/>
     <use xlink:href="#STIXGeneral-Bold-71" x="186.099945"/>
     <use xlink:href="#STIXGeneral-Bold-75" x="241.699936"/>
     <use xlink:href="#STIXGeneral-Bold-69" x="297.299927"/>
     <use xlink:href="#STIXGeneral-Bold-6c" x="325.099915"/>
     <use xlink:href="#STIXGeneral-Bold-69" x="352.899902"/>
     <use xlink:href="#STIXGeneral-Bold-62" x="380.69989"/>
     <use xlink:href="#STIXGeneral-Bold-72" x="436.299881"/>
     <use xlink:href="#STIXGeneral-Bold-69" x="480.699875"/>
     <use xlink:href="#STIXGeneral-Bold-75" x="508.499863"/>
     <use xlink:href="#STIXGeneral-Bold-6d" x="564.099854"/>
     <use xlink:href="#STIXGeneral-Bold-2f" x="647.399841"/>
     <use xlink:href="#STIXGeneral-Bold-72" x="675.199829"/>
     <use xlink:href="#STIXGeneral-Bold-65" x="719.599823"/>
     <use xlink:href="#STIXGeneral-Bold-73" x="763.999817"/>
     <use xlink:href="#STIXGeneral-Bold-61" x="802.899811"/>
     <use xlink:href="#STIXGeneral-Bold-6c" x="852.899796"/>
     <use xlink:href="#STIXGeneral-Bold-65" x="880.699783"/>
     <use xlink:href="#STIXGeneral-Bold-29" x="925.099777"/>
    </g>
   </g>
   <g id="text_17">
    <!-- Equilibrium -->
    <g style="fill: #323034" transform="translate(331.687169 113.211398) scale(0.11 -0.11)">
     <defs>
      <path id="STIXGeneral-Bold-45" d="M 4102 1331 
L 3846 0 
L 102 0 
L 102 160 
Q 448 198 557 294 
Q 666 390 666 646 
L 666 3712 
Q 666 3955 550 4051 
Q 435 4147 102 4166 
L 102 4326 
L 3795 4326 
L 3795 3040 
L 3635 3040 
Q 3526 3680 3216 3894 
Q 2906 4109 2118 4109 
Q 1875 4109 1788 4032 
Q 1702 3955 1702 3763 
L 1702 2323 
Q 2221 2330 2451 2531 
Q 2682 2733 2739 3277 
L 2906 3277 
L 2906 1114 
L 2739 1114 
Q 2694 1677 2464 1891 
Q 2234 2106 1702 2106 
L 1702 557 
Q 1702 352 1814 275 
Q 1926 198 2234 198 
Q 2982 198 3398 544 
Q 3558 672 3667 838 
Q 3776 1005 3923 1331 
L 4102 1331 
z
" transform="scale(0.015625)"/>
     </defs>
     <use xlink:href="#STIXGeneral-Bold-45"/>
     <use xlink:href="#STIXGeneral-Bold-71" x="66.699997"/>
     <use xlink:href="#STIXGeneral-Bold-75" x="122.299988"/>
     <use xlink:href="#STIXGeneral-Bold-69" x="177.899979"/>
     <use xlink:href="#STIXGeneral-Bold-6c" x="205.699966"/>
     <use xlink:href="#STIXGeneral-Bold-69" x="233.499954"/>
     <use xlink:href="#STIXGeneral-Bold-62" x="261.299942"/>
     <use xlink:href="#STIXGeneral-Bold-72" x="316.899933"/>
     <use xlink:href="#STIXGeneral-Bold-69" x="361.299927"/>
     <use xlink:href="#STIXGeneral-Bold-75" x="389.099915"/>
     <use xlink:href="#STIXGeneral-Bold-6d" x="444.699905"/>
    </g>
   </g>
   <g id="text_18">
    <!-- Artist-gifted fan surplus (when p &lt; p') -->
    <g style="fill: #323034" transform="translate(129.760832 136.345142) scale(0.09 -0.09)">
     <defs>
      <path id="STIXGeneral-Bold-41" d="M 4410 0 
L 2349 0 
L 2349 160 
L 2554 179 
Q 2714 192 2781 240 
Q 2848 288 2848 390 
Q 2848 576 2554 1261 
L 1114 1261 
L 1030 1043 
Q 832 531 832 422 
Q 832 301 950 240 
Q 1069 179 1350 160 
L 1350 0 
L 58 0 
L 58 160 
Q 282 198 397 339 
Q 512 480 691 928 
L 2106 4416 
L 2285 4416 
L 3706 1075 
Q 3949 499 4080 329 
Q 4211 160 4410 160 
L 4410 0 
z
M 2458 1510 
L 1811 3066 
L 1210 1510 
L 2458 1510 
z
" transform="scale(0.015625)"/>
      <path id="STIXGeneral-Bold-2d" d="M 1837 1094 
L 282 1094 
L 282 1837 
L 1837 1837 
L 1837 1094 
z
" transform="scale(0.015625)"/>
      <path id="STIXGeneral-Bold-67" d="M 1626 435 
L 1958 435 
Q 2477 435 2784 227 
Q 3091 19 3091 -333 
Q 3091 -787 2652 -1052 
Q 2214 -1318 1421 -1318 
Q 179 -1318 179 -730 
Q 179 -339 794 -250 
Q 493 -141 381 -25 
Q 269 90 269 275 
Q 269 557 454 733 
Q 640 909 1030 1024 
Q 678 1120 457 1382 
Q 237 1645 237 1997 
Q 237 2464 598 2745 
Q 960 3027 1536 3027 
Q 1869 3027 2253 2886 
L 3078 2886 
L 3078 2547 
L 2566 2547 
Q 2822 2317 2822 1920 
Q 2822 1318 2234 1075 
Q 2080 1011 1971 998 
Q 1862 986 1421 986 
Q 1229 986 1104 899 
Q 979 813 979 672 
Q 979 538 1113 486 
Q 1248 435 1626 435 
z
M 1958 1997 
Q 1958 2445 1859 2637 
Q 1760 2829 1529 2829 
Q 1299 2829 1206 2643 
Q 1114 2458 1114 1990 
Q 1114 1542 1210 1353 
Q 1306 1165 1536 1165 
Q 1766 1165 1862 1353 
Q 1958 1542 1958 1997 
z
M 2016 -333 
L 966 -333 
Q 832 -442 787 -512 
Q 742 -582 742 -685 
Q 742 -1114 1600 -1114 
Q 2061 -1114 2323 -995 
Q 2586 -877 2586 -691 
Q 2586 -333 2016 -333 
z
" transform="scale(0.015625)"/>
      <path id="STIXGeneral-Bold-64" d="M 3418 128 
L 3021 77 
Q 2496 6 2170 -83 
L 2170 333 
Q 1946 96 1760 3 
Q 1574 -90 1318 -90 
Q 813 -90 486 332 
Q 160 755 160 1414 
Q 160 2112 509 2569 
Q 858 3027 1389 3027 
Q 1606 3027 1776 2940 
Q 1946 2854 2150 2630 
L 2150 3802 
Q 2150 4026 2067 4086 
Q 1984 4147 1664 4173 
L 1664 4326 
L 3040 4326 
L 3040 646 
Q 3040 442 3120 365 
Q 3200 288 3418 275 
L 3418 128 
z
M 2150 717 
L 2150 2272 
Q 2080 2458 1945 2563 
Q 1811 2669 1651 2669 
Q 1107 2669 1107 1466 
Q 1107 269 1606 269 
Q 1837 269 2029 506 
Q 2150 666 2150 717 
z
" transform="scale(0.015625)"/>
      <path id="STIXGeneral-Bold-77" d="M 4525 2950 
L 4525 2797 
Q 4403 2771 4336 2707 
Q 4269 2643 4205 2477 
L 3213 -90 
L 3066 -90 
L 2413 1894 
L 1613 -90 
L 1459 -90 
L 512 2304 
Q 390 2605 329 2688 
Q 269 2771 147 2797 
L 147 2950 
L 1568 2950 
L 1568 2797 
Q 1325 2765 1325 2618 
Q 1325 2541 1574 1882 
L 1862 1126 
L 2298 2221 
Q 2272 2298 2259 2342 
Q 2170 2656 2118 2717 
Q 2067 2778 1882 2797 
L 1882 2950 
L 3379 2950 
L 3379 2797 
Q 3200 2784 3136 2752 
Q 3072 2720 3072 2643 
Q 3072 2554 3245 1965 
Q 3392 1459 3462 1152 
L 3686 1754 
Q 3968 2509 3968 2573 
Q 3968 2682 3904 2730 
Q 3840 2778 3661 2797 
L 3661 2950 
L 4525 2950 
z
" transform="scale(0.015625)"/>
      <path id="STIXGeneral-Bold-68" d="M 3418 0 
L 1920 0 
L 1920 154 
Q 2080 173 2147 259 
Q 2214 346 2214 544 
L 2214 1978 
Q 2214 2323 2144 2460 
Q 2074 2598 1888 2598 
Q 1658 2598 1440 2381 
Q 1331 2272 1331 2227 
L 1331 544 
Q 1331 346 1395 262 
Q 1459 179 1638 154 
L 1638 0 
L 102 0 
L 102 154 
Q 333 198 387 256 
Q 442 314 442 570 
L 442 3782 
Q 442 4006 384 4067 
Q 326 4128 96 4173 
L 96 4326 
L 1331 4326 
L 1331 2534 
Q 1747 3027 2272 3027 
Q 2656 3027 2880 2784 
Q 3104 2541 3104 2157 
L 3104 557 
Q 3104 339 3177 246 
Q 3251 154 3418 154 
L 3418 0 
z
" transform="scale(0.015625)"/>
      <path id="STIXGeneral-Bold-3c" d="M 4288 -154 
L 512 1498 
L 512 1754 
L 4288 3418 
L 4288 2854 
L 1498 1626 
L 4288 410 
L 4288 -154 
z
" transform="scale(0.015625)"/>
     </defs>
     <use xlink:href="#STIXGeneral-Bold-41"/>
     <use xlink:href="#STIXGeneral-Bold-72" x="72.199982"/>
     <use xlink:href="#STIXGeneral-Bold-74" x="116.599976"/>
     <use xlink:href="#STIXGeneral-Bold-69" x="149.899963"/>
     <use xlink:href="#STIXGeneral-Bold-73" x="177.699951"/>
     <use xlink:href="#STIXGeneral-Bold-74" x="216.599945"/>
     <use xlink:href="#STIXGeneral-Bold-2d" x="249.899933"/>
     <use xlink:href="#STIXGeneral-Bold-67" x="283.199921"/>
     <use xlink:href="#STIXGeneral-Bold-69" x="333.199905"/>
     <use xlink:href="#STIXGeneral-Bold-66" x="360.999893"/>
     <use xlink:href="#STIXGeneral-Bold-74" x="394.299881"/>
     <use xlink:href="#STIXGeneral-Bold-65" x="427.599869"/>
     <use xlink:href="#STIXGeneral-Bold-64" x="471.999863"/>
     <use xlink:href="#STIXGeneral-Bold-20" x="527.599854"/>
     <use xlink:href="#STIXGeneral-Bold-66" x="552.599838"/>
     <use xlink:href="#STIXGeneral-Bold-61" x="585.899826"/>
     <use xlink:href="#STIXGeneral-Bold-6e" x="635.899811"/>
     <use xlink:href="#STIXGeneral-Bold-20" x="691.499802"/>
     <use xlink:href="#STIXGeneral-Bold-73" x="716.499786"/>
     <use xlink:href="#STIXGeneral-Bold-75" x="755.39978"/>
     <use xlink:href="#STIXGeneral-Bold-72" x="810.999771"/>
     <use xlink:href="#STIXGeneral-Bold-70" x="855.399765"/>
     <use xlink:href="#STIXGeneral-Bold-6c" x="910.999756"/>
     <use xlink:href="#STIXGeneral-Bold-75" x="938.799744"/>
     <use xlink:href="#STIXGeneral-Bold-73" x="994.399734"/>
     <use xlink:href="#STIXGeneral-Bold-20" x="1033.299728"/>
     <use xlink:href="#STIXGeneral-Bold-28" x="1058.299713"/>
     <use xlink:href="#STIXGeneral-Bold-77" x="1091.599701"/>
     <use xlink:href="#STIXGeneral-Bold-68" x="1163.799683"/>
     <use xlink:href="#STIXGeneral-Bold-65" x="1219.399673"/>
     <use xlink:href="#STIXGeneral-Bold-6e" x="1263.799667"/>
     <use xlink:href="#STIXGeneral-Bold-20" x="1319.399658"/>
     <use xlink:href="#STIXGeneral-Bold-70" x="1344.399643"/>
     <use xlink:href="#STIXGeneral-Bold-20" x="1399.999634"/>
     <use xlink:href="#STIXGeneral-Bold-3c" x="1424.999619"/>
     <use xlink:href="#STIXGeneral-Bold-20" x="1499.999603"/>
     <use xlink:href="#STIXGeneral-Bold-70" x="1524.999588"/>
     <use xlink:href="#STIXGeneral-Bold-27" x="1580.599579"/>
     <use xlink:href="#STIXGeneral-Bold-29" x="1608.399567"/>
    </g>
   </g>
   <g id="text_19">
    <!-- Q* (venue capacity) -->
    <g style="fill: #323034" transform="translate(327.172397 226.614761) scale(0.11 -0.11)">
     <defs>
      <path id="STIXGeneral-Bold-2a" d="M 1664 3181 
L 1709 3162 
Q 1901 3315 1977 3388 
Q 2054 3462 2170 3635 
Q 2259 3776 2339 3827 
Q 2419 3878 2528 3878 
Q 2662 3878 2764 3785 
Q 2867 3693 2867 3571 
Q 2867 3424 2704 3328 
Q 2541 3232 2342 3232 
Q 2131 3232 2032 3203 
Q 1933 3174 1773 3066 
L 1773 3014 
Q 2099 2861 2394 2835 
Q 2650 2816 2755 2742 
Q 2861 2669 2861 2509 
Q 2861 2368 2777 2278 
Q 2694 2189 2547 2189 
Q 2426 2189 2339 2262 
Q 2253 2336 2067 2586 
Q 1971 2720 1904 2777 
Q 1837 2835 1702 2906 
L 1664 2880 
Q 1670 2675 1702 2566 
Q 1734 2458 1837 2253 
Q 1933 2067 1933 1965 
Q 1933 1824 1840 1728 
Q 1747 1632 1606 1632 
Q 1472 1632 1382 1725 
Q 1293 1818 1293 1965 
Q 1293 2074 1395 2259 
Q 1485 2413 1510 2528 
Q 1536 2643 1542 2880 
L 1504 2906 
Q 1318 2765 1238 2685 
Q 1158 2605 1030 2426 
Q 934 2285 860 2237 
Q 787 2189 678 2189 
Q 544 2189 451 2275 
Q 358 2362 358 2496 
Q 358 2797 896 2835 
Q 1101 2848 1197 2883 
Q 1293 2918 1446 3021 
L 1446 3066 
Q 1146 3200 794 3232 
Q 358 3264 358 3571 
Q 358 3712 441 3795 
Q 525 3878 659 3878 
Q 794 3878 877 3820 
Q 960 3763 1056 3603 
Q 1165 3418 1245 3341 
Q 1325 3264 1510 3162 
L 1542 3181 
Q 1536 3392 1513 3488 
Q 1491 3584 1395 3763 
Q 1280 3968 1280 4102 
Q 1280 4243 1373 4332 
Q 1466 4422 1613 4422 
Q 1747 4422 1833 4326 
Q 1920 4230 1920 4070 
Q 1920 3974 1805 3770 
Q 1664 3533 1664 3277 
L 1664 3181 
z
" transform="scale(0.015625)"/>
     </defs>
     <use xlink:href="#STIXGeneral-Bold-51"/>
     <use xlink:href="#STIXGeneral-Bold-2a" x="77.799988"/>
     <use xlink:href="#STIXGeneral-Bold-20" x="127.799973"/>
     <use xlink:href="#STIXGeneral-Bold-28" x="152.799957"/>
     <use xlink:href="#STIXGeneral-Bold-76" x="186.099945"/>
     <use xlink:href="#STIXGeneral-Bold-65" x="236.09993"/>
     <use xlink:href="#STIXGeneral-Bold-6e" x="280.499924"/>
     <use xlink:href="#STIXGeneral-Bold-75" x="336.099915"/>
     <use xlink:href="#STIXGeneral-Bold-65" x="391.699905"/>
     <use xlink:href="#STIXGeneral-Bold-20" x="436.099899"/>
     <use xlink:href="#STIXGeneral-Bold-63" x="461.099884"/>
     <use xlink:href="#STIXGeneral-Bold-61" x="505.499878"/>
     <use xlink:href="#STIXGeneral-Bold-70" x="555.499863"/>
     <use xlink:href="#STIXGeneral-Bold-61" x="611.099854"/>
     <use xlink:href="#STIXGeneral-Bold-63" x="661.099838"/>
     <use xlink:href="#STIXGeneral-Bold-69" x="705.499832"/>
     <use xlink:href="#STIXGeneral-Bold-74" x="733.29982"/>
     <use xlink:href="#STIXGeneral-Bold-79" x="766.599808"/>
     <use xlink:href="#STIXGeneral-Bold-29" x="816.599792"/>
    </g>
   </g>
   <g id="patch_5">
    <path d="M 471.27371 184.435285 
Q 465.291072 176.53043 459.848203 169.338771 
" style="fill: none; stroke: #000000; stroke-width: 0.8; stroke-linecap: round"/>
    <path d="M 460.749284 174.17489 
L 459.848203 169.338771 
L 464.257747 171.519577 
" style="fill: none; stroke: #000000; stroke-width: 0.8; stroke-linecap: round"/>
   </g>
   <g id="text_20">
    <!-- Demand -->
    <g style="fill: #323034" transform="translate(458.10081 195.861307) scale(0.11 -0.11)">
     <defs>
      <path id="STIXGeneral-Bold-44" d="M 90 4326 
L 2086 4326 
Q 3181 4326 3798 3763 
Q 4416 3200 4416 2208 
Q 4416 1715 4221 1267 
Q 4026 819 3680 518 
Q 3085 0 2067 0 
L 90 0 
L 90 160 
Q 365 166 493 281 
Q 621 397 621 627 
L 621 3738 
Q 621 3955 509 4044 
Q 397 4134 90 4166 
L 90 4326 
z
M 1658 3827 
L 1658 640 
Q 1658 416 1738 320 
Q 1818 224 2029 224 
Q 2656 224 2982 685 
Q 3130 896 3216 1289 
Q 3302 1683 3302 2112 
Q 3302 3002 3040 3462 
Q 2669 4109 1997 4109 
Q 1658 4109 1658 3827 
z
" transform="scale(0.015625)"/>
     </defs>
     <use xlink:href="#STIXGeneral-Bold-44"/>
     <use xlink:href="#STIXGeneral-Bold-65" x="72.199982"/>
     <use xlink:href="#STIXGeneral-Bold-6d" x="116.599976"/>
     <use xlink:href="#STIXGeneral-Bold-61" x="199.899963"/>
     <use xlink:href="#STIXGeneral-Bold-6e" x="249.899948"/>
     <use xlink:href="#STIXGeneral-Bold-64" x="305.499939"/>
    </g>
   </g>
   <g id="patch_6">
    <path d="M 408.690327 66.633688 
Q 366.607344 82.835872 325.359062 98.716693 
" style="fill: none; stroke: #000000; stroke-width: 0.8; stroke-linecap: round"/>
    <path d="M 330.255697 99.188881 
L 325.359062 98.716693 
L 328.674793 95.082697 
" style="fill: none; stroke: #000000; stroke-width: 0.8; stroke-linecap: round"/>
   </g>
   <g id="text_21">
    <!-- Supply -->
    <g style="fill: #323034" transform="translate(412.953081 61.314943) scale(0.11 -0.11)">
     <defs>
      <path id="STIXGeneral-Bold-53" d="M 3098 3034 
L 2918 3034 
Q 2752 3578 2470 3866 
Q 2125 4224 1683 4224 
Q 1357 4224 1168 4048 
Q 979 3872 979 3590 
Q 979 3360 1113 3213 
Q 1248 3066 1638 2861 
Q 1754 2797 2077 2633 
Q 2400 2470 2586 2368 
Q 2899 2195 3091 1897 
Q 3283 1600 3283 1242 
Q 3283 634 2844 256 
Q 2406 -122 1696 -122 
Q 1306 -122 864 32 
Q 666 96 602 96 
Q 525 96 480 48 
Q 435 0 410 -122 
L 224 -122 
L 224 1466 
L 410 1466 
Q 557 851 794 550 
Q 1158 90 1715 90 
Q 2086 90 2304 285 
Q 2522 480 2522 813 
Q 2522 1120 2157 1376 
Q 1997 1491 1376 1792 
Q 806 2067 544 2368 
Q 282 2669 282 3136 
Q 282 3744 656 4083 
Q 1030 4422 1683 4422 
Q 2035 4422 2432 4275 
Q 2624 4211 2701 4211 
Q 2790 4211 2832 4256 
Q 2874 4301 2906 4429 
L 3098 4429 
L 3098 3034 
z
" transform="scale(0.015625)"/>
     </defs>
     <use xlink:href="#STIXGeneral-Bold-53"/>
     <use xlink:href="#STIXGeneral-Bold-75" x="55.599991"/>
     <use xlink:href="#STIXGeneral-Bold-70" x="111.199982"/>
     <use xlink:href="#STIXGeneral-Bold-70" x="166.799973"/>
     <use xlink:href="#STIXGeneral-Bold-6c" x="222.399963"/>
     <use xlink:href="#STIXGeneral-Bold-79" x="250.199951"/>
    </g>
   </g>
   <g id="text_22">
    <!-- Market for Gig Tickets -->
    <g style="fill: #323034" transform="translate(51.77125 16.873125) scale(0.14 -0.14)">
     <defs>
      <path id="STIXGeneral-Bold-4d" d="M 5894 0 
L 3770 0 
L 3770 160 
Q 4122 192 4230 301 
Q 4339 410 4339 698 
L 4339 3872 
L 2726 0 
L 2554 0 
L 941 3802 
L 941 826 
Q 941 454 1069 320 
Q 1197 186 1587 160 
L 1587 0 
L 90 0 
L 90 160 
Q 467 198 569 291 
Q 672 384 672 691 
L 672 3693 
Q 672 3955 563 4048 
Q 454 4141 102 4166 
L 102 4326 
L 1722 4326 
L 2995 1306 
L 4282 4326 
L 5894 4326 
L 5894 4166 
Q 5542 4141 5436 4022 
Q 5331 3904 5331 3546 
L 5331 806 
Q 5331 442 5427 317 
Q 5523 192 5894 160 
L 5894 0 
z
" transform="scale(0.015625)"/>
      <path id="STIXGeneral-Bold-47" d="M 4832 1837 
L 4832 1677 
Q 4493 1638 4387 1500 
Q 4282 1363 4282 1037 
L 4282 282 
Q 3968 96 3488 -13 
Q 3008 -122 2509 -122 
Q 1523 -122 880 492 
Q 237 1107 237 2118 
Q 237 3085 873 3753 
Q 1510 4422 2464 4422 
Q 2912 4422 3456 4198 
Q 3661 4109 3750 4109 
Q 3840 4109 3901 4169 
Q 3962 4230 4032 4403 
L 4205 4403 
L 4205 2899 
L 4045 2899 
Q 3859 3302 3740 3491 
Q 3622 3680 3430 3853 
Q 3027 4211 2547 4211 
Q 1984 4211 1677 3680 
Q 1370 3149 1370 2163 
Q 1370 1158 1677 646 
Q 1850 358 2080 224 
Q 2310 90 2669 90 
Q 3283 90 3283 634 
L 3283 1203 
Q 3283 1459 3158 1555 
Q 3034 1651 2630 1677 
L 2630 1837 
L 4832 1837 
z
" transform="scale(0.015625)"/>
     </defs>
     <use xlink:href="#STIXGeneral-Bold-4d"/>
     <use xlink:href="#STIXGeneral-Bold-61" x="94.399994"/>
     <use xlink:href="#STIXGeneral-Bold-72" x="144.399979"/>
     <use xlink:href="#STIXGeneral-Bold-6b" x="188.799973"/>
     <use xlink:href="#STIXGeneral-Bold-65" x="244.399963"/>
     <use xlink:href="#STIXGeneral-Bold-74" x="288.799957"/>
     <use xlink:href="#STIXGeneral-Bold-20" x="322.099945"/>
     <use xlink:href="#STIXGeneral-Bold-66" x="347.09993"/>
     <use xlink:href="#STIXGeneral-Bold-6f" x="380.399918"/>
     <use xlink:href="#STIXGeneral-Bold-72" x="430.399902"/>
     <use xlink:href="#STIXGeneral-Bold-20" x="474.799896"/>
     <use xlink:href="#STIXGeneral-Bold-47" x="499.799881"/>
     <use xlink:href="#STIXGeneral-Bold-69" x="577.599869"/>
     <use xlink:href="#STIXGeneral-Bold-67" x="605.399857"/>
     <use xlink:href="#STIXGeneral-Bold-20" x="655.399841"/>
     <use xlink:href="#STIXGeneral-Bold-54" x="680.399826"/>
     <use xlink:href="#STIXGeneral-Bold-69" x="747.099823"/>
     <use xlink:href="#STIXGeneral-Bold-63" x="774.899811"/>
     <use xlink:href="#STIXGeneral-Bold-6b" x="819.299805"/>
     <use xlink:href="#STIXGeneral-Bold-65" x="874.899796"/>
     <use xlink:href="#STIXGeneral-Bold-74" x="919.299789"/>
     <use xlink:href="#STIXGeneral-Bold-73" x="952.599777"/>
    </g>
   </g>
   <g id="line2d_30">
    <defs>
     <path id="ma64aba4cc9" d="M 0 5 
C 1.326016 5 2.597899 4.473168 3.535534 3.535534 
C 4.473168 2.597899 5 1.326016 5 0 
C 5 -1.326016 4.473168 -2.597899 3.535534 -3.535534 
C 2.597899 -4.473168 1.326016 -5 0 -5 
C -1.326016 -5 -2.597899 -4.473168 -3.535534 -3.535534 
C -4.473168 -2.597899 -5 -1.326016 -5 0 
C -5 1.326016 -4.473168 2.597899 -3.535534 3.535534 
C -2.597899 4.473168 -1.326016 5 0 5 
z
" style="stroke: #000000"/>
    </defs>
    <g clip-path="url(#p1731ac6e44)">
     <use xlink:href="#ma64aba4cc9" x="322.657624" y="118.97767" style="stroke: #000000"/>
    </g>
   </g>
  </g>
 </g>
 <defs>
  <clipPath id="p1731ac6e44">
   <rect x="51.77125" y="22.873125" width="496.625018" height="211.43"/>
  </clipPath>
 </defs>
</svg>
