<?xml version="1.0" encoding="UTF-8" standalone="no"?>
<!DOCTYPE svg PUBLIC "-//W3C//DTD SVG 1.1//EN"
 "http://www.w3.org/Graphics/SVG/1.1/DTD/svg11.dtd">
<!-- Generated by graphviz version 12.2.1 (20241206.2353)
 -->
<!-- Pages: 1 -->
<svg width="632pt" height="572pt"
 viewBox="0.00 0.00 632.46 571.63" xmlns="http://www.w3.org/2000/svg" xmlns:xlink="http://www.w3.org/1999/xlink">
<g id="graph0" class="graph" transform="scale(1 1) rotate(0) translate(4 567.63)">
<polygon fill="white" stroke="none" points="-4,4 -4,-567.63 628.46,-567.63 628.46,4 -4,4"/>
<!-- ingest_survey -->
<g id="node1" class="node">
<title>ingest_survey</title>
<path fill="#e1f5fe" stroke="#0277bd" d="M96,-563.63C96,-563.63 12,-563.63 12,-563.63 6,-563.63 0,-557.63 0,-551.63 0,-551.63 0,-518.03 0,-518.03 0,-512.03 6,-506.03 12,-506.03 12,-506.03 96,-506.03 96,-506.03 102,-506.03 108,-512.03 108,-518.03 108,-518.03 108,-551.63 108,-551.63 108,-557.63 102,-563.63 96,-563.63"/>
<text text-anchor="middle" x="54" y="-537.28" font-family="Arial" font-size="14.00">Ingest Survey</text>
<text text-anchor="middle" x="54" y="-521.53" font-family="Arial" font-size="14.00">Data</text>
</g>
<!-- validate_data -->
<g id="node2" class="node">
<title>validate_data</title>
<path fill="#fff3e0" stroke="#ef6c00" d="M200.14,-507C200.14,-507 116.14,-507 116.14,-507 110.14,-507 104.14,-501 104.14,-495 104.14,-495 104.14,-461.4 104.14,-461.4 104.14,-455.4 110.14,-449.4 116.14,-449.4 116.14,-449.4 200.14,-449.4 200.14,-449.4 206.14,-449.4 212.14,-455.4 212.14,-461.4 212.14,-461.4 212.14,-495 212.14,-495 212.14,-501 206.14,-507 200.14,-507"/>
<text text-anchor="middle" x="158.14" y="-480.65" font-family="Arial" font-size="14.00">Validate &amp;</text>
<text text-anchor="middle" x="158.14" y="-464.9" font-family="Arial" font-size="14.00">Clean Data</text>
</g>
<!-- ingest_survey&#45;&gt;validate_data -->
<g id="edge1" class="edge">
<title>ingest_survey&#45;&gt;validate_data</title>
<path fill="none" stroke="#666666" stroke-width="2" d="M108.22,-511.24C108.33,-511.16 108.45,-511.09 108.57,-511.01"/>
<polygon fill="#666666" stroke="#666666" stroke-width="2" points="105.09,-517.38 111.65,-509.06 101.33,-511.47 105.09,-517.38"/>
</g>
<!-- process_data -->
<g id="node3" class="node">
<title>process_data</title>
<path fill="#f3e5f5" stroke="#7b1fa2" d="M288.19,-440C288.19,-440 204.19,-440 204.19,-440 198.19,-440 192.19,-434 192.19,-428 192.19,-428 192.19,-394.4 192.19,-394.4 192.19,-388.4 198.19,-382.4 204.19,-382.4 204.19,-382.4 288.19,-382.4 288.19,-382.4 294.19,-382.4 300.19,-388.4 300.19,-394.4 300.19,-394.4 300.19,-428 300.19,-428 300.19,-434 294.19,-440 288.19,-440"/>
<text text-anchor="middle" x="246.19" y="-413.65" font-family="Arial" font-size="14.00">Process &amp;</text>
<text text-anchor="middle" x="246.19" y="-397.9" font-family="Arial" font-size="14.00">Transform</text>
</g>
<!-- validate_data&#45;&gt;process_data -->
<g id="edge2" class="edge">
<title>validate_data&#45;&gt;process_data</title>
<path fill="none" stroke="#666666" stroke-width="2" d="M204.43,-449C204.89,-448.61 205.36,-448.21 205.83,-447.8"/>
<polygon fill="#666666" stroke="#666666" stroke-width="2" points="206.76,-451.65 211.94,-442.41 202.12,-446.4 206.76,-451.65"/>
</g>
<!-- store_data -->
<g id="node4" class="node">
<title>store_data</title>
<path fill="#e8f5e8" stroke="#388e3c" d="M376.35,-372.96C376.35,-372.96 292.35,-372.96 292.35,-372.96 286.35,-372.96 280.35,-366.96 280.35,-360.96 280.35,-360.96 280.35,-327.36 280.35,-327.36 280.35,-321.36 286.35,-315.36 292.35,-315.36 292.35,-315.36 376.35,-315.36 376.35,-315.36 382.35,-315.36 388.35,-321.36 388.35,-327.36 388.35,-327.36 388.35,-360.96 388.35,-360.96 388.35,-366.96 382.35,-372.96 376.35,-372.96"/>
<text text-anchor="middle" x="334.35" y="-346.61" font-family="Arial" font-size="14.00">Store to</text>
<text text-anchor="middle" x="334.35" y="-330.86" font-family="Arial" font-size="14.00">Warehouse</text>
</g>
<!-- process_data&#45;&gt;store_data -->
<g id="edge3" class="edge">
<title>process_data&#45;&gt;store_data</title>
<path fill="none" stroke="#666666" stroke-width="2" d="M299.75,-382.05C300,-381.8 300.25,-381.54 300.5,-381.29"/>
<polygon fill="#666666" stroke="#666666" stroke-width="2" points="301.95,-384.83 306.32,-375.18 296.89,-380 301.95,-384.83"/>
</g>
<!-- compute_stats -->
<g id="node5" class="node">
<title>compute_stats</title>
<path fill="#f3e5f5" stroke="#7b1fa2" d="M448.59,-298.32C448.59,-298.32 364.59,-298.32 364.59,-298.32 358.59,-298.32 352.59,-292.32 352.59,-286.32 352.59,-286.32 352.59,-252.72 352.59,-252.72 352.59,-246.72 358.59,-240.72 364.59,-240.72 364.59,-240.72 448.59,-240.72 448.59,-240.72 454.59,-240.72 460.59,-246.72 460.59,-252.72 460.59,-252.72 460.59,-286.32 460.59,-286.32 460.59,-292.32 454.59,-298.32 448.59,-298.32"/>
<text text-anchor="middle" x="406.59" y="-271.97" font-family="Arial" font-size="14.00">Compute</text>
<text text-anchor="middle" x="406.59" y="-256.22" font-family="Arial" font-size="14.00">Statistics</text>
</g>
<!-- store_data&#45;&gt;compute_stats -->
<g id="edge4" class="edge">
<title>store_data&#45;&gt;compute_stats</title>
<path fill="none" stroke="#666666" stroke-width="2" d="M382.58,-315.15C384.99,-312.93 387.06,-310.63 388.95,-308.11"/>
<polygon fill="#666666" stroke="#666666" stroke-width="2" points="391,-311.48 393.21,-301.12 385.02,-307.84 391,-311.48"/>
</g>
<!-- publish_api -->
<g id="node6" class="node">
<title>publish_api</title>
<path fill="#fce4ec" stroke="#c2185b" d="M503.79,-217.92C503.79,-217.92 419.79,-217.92 419.79,-217.92 413.79,-217.92 407.79,-211.92 407.79,-205.92 407.79,-205.92 407.79,-172.32 407.79,-172.32 407.79,-166.32 413.79,-160.32 419.79,-160.32 419.79,-160.32 503.79,-160.32 503.79,-160.32 509.79,-160.32 515.79,-166.32 515.79,-172.32 515.79,-172.32 515.79,-205.92 515.79,-205.92 515.79,-211.92 509.79,-217.92 503.79,-217.92"/>
<text text-anchor="middle" x="461.79" y="-191.57" font-family="Arial" font-size="14.00">Publish to</text>
<text text-anchor="middle" x="461.79" y="-175.82" font-family="Arial" font-size="14.00">API</text>
</g>
<!-- compute_stats&#45;&gt;publish_api -->
<g id="edge5" class="edge">
<title>compute_stats&#45;&gt;publish_api</title>
<path fill="none" stroke="#666666" stroke-width="2" d="M433.97,-240.31C438.42,-235.36 441.92,-231.23 444.76,-227.49"/>
<polygon fill="#666666" stroke="#666666" stroke-width="2" points="446.64,-230.98 449.29,-220.73 440.82,-227.09 446.64,-230.98"/>
</g>
<!-- generate_csv -->
<g id="node7" class="node">
<title>generate_csv</title>
<path fill="#f1f8e9" stroke="#689f38" d="M548.47,-134.93C548.47,-134.93 464.47,-134.93 464.47,-134.93 458.47,-134.93 452.47,-128.93 452.47,-122.93 452.47,-122.93 452.47,-89.33 452.47,-89.33 452.47,-83.33 458.47,-77.33 464.47,-77.33 464.47,-77.33 548.47,-77.33 548.47,-77.33 554.47,-77.33 560.47,-83.33 560.47,-89.33 560.47,-89.33 560.47,-122.93 560.47,-122.93 560.47,-128.93 554.47,-134.93 548.47,-134.93"/>
<text text-anchor="middle" x="506.47" y="-108.58" font-family="Arial" font-size="14.00">Generate CSV</text>
<text text-anchor="middle" x="506.47" y="-92.83" font-family="Arial" font-size="14.00">from API</text>
</g>
<!-- publish_api&#45;&gt;generate_csv -->
<g id="edge6" class="edge">
<title>publish_api&#45;&gt;generate_csv</title>
<path fill="none" stroke="#666666" stroke-width="2" d="M482.13,-159.86C486.07,-154.06 489.18,-149.3 491.7,-145.15"/>
<polygon fill="#666666" stroke="#666666" stroke-width="2" points="493.94,-148.33 495.71,-137.89 487.81,-144.95 493.94,-148.33"/>
</g>
<!-- publish_website -->
<g id="node8" class="node">
<title>publish_website</title>
<path fill="#f1f8e9" stroke="#689f38" d="M612.46,-57.6C612.46,-57.6 528.46,-57.6 528.46,-57.6 522.46,-57.6 516.46,-51.6 516.46,-45.6 516.46,-45.6 516.46,-12 516.46,-12 516.46,-6 522.46,0 528.46,0 528.46,0 612.46,0 612.46,0 618.46,0 624.46,-6 624.46,-12 624.46,-12 624.46,-45.6 624.46,-45.6 624.46,-51.6 618.46,-57.6 612.46,-57.6"/>
<text text-anchor="middle" x="570.46" y="-31.25" font-family="Arial" font-size="14.00">Publish to</text>
<text text-anchor="middle" x="570.46" y="-15.5" font-family="Arial" font-size="14.00">Website</text>
</g>
<!-- generate_csv&#45;&gt;publish_website -->
<g id="edge7" class="edge">
<title>generate_csv&#45;&gt;publish_website</title>
<path fill="none" stroke="#666666" stroke-width="2" d="M532.36,-76.89C535.8,-72.98 538.77,-69.58 541.39,-66.55"/>
<polygon fill="#666666" stroke="#666666" stroke-width="2" points="542.92,-70.15 546.73,-60.26 537.59,-65.62 542.92,-70.15"/>
</g>
</g>
</svg>
